<svg width="53" height="54" viewBox="0 0 53 54" fill="none" xmlns="http://www.w3.org/2000/svg">
<path d="M52.7973 26.8876C52.7973 12.3031 40.9831 0.488892 26.3987 0.488892C11.8142 0.488892 0 12.3846 0 26.8876C0 41.472 11.8142 53.2862 26.3987 53.2862L42.5312 53.1233L42.6127 25.8284H42.5312C42.1238 17.5177 35.1982 10.8365 26.7246 10.8365C18.0065 10.8365 10.918 17.8436 10.918 26.5617C10.8365 34.9538 17.4362 41.8794 25.6654 42.4497C25.9913 42.4497 33.5687 42.4497 33.5687 42.4497C33.5687 40.7387 33.6502 38.7018 31.6132 37.7241C30.3911 37.1537 27.9467 37.3981 25.3395 37.2352C19.962 36.7463 15.8881 31.8577 16.1325 26.2357C16.377 20.6953 20.8582 16.214 26.3987 15.9696C32.5095 15.7252 37.4796 20.6138 37.4796 26.6431V47.9902L26.3987 48.0717C14.6659 48.0717 5.13307 38.4573 5.13307 26.7246C5.13307 15.0733 14.6659 5.54049 26.3987 5.54049C38.1314 5.54049 47.7457 15.0733 47.7457 26.8061V47.9902C47.5828 51.9826 48.479 53.2862 52.8788 53.1233L52.7973 26.8876Z" fill="#EF3E24"/>
</svg>
