<svg width="3807" height="1585" viewBox="0 0 3807 1585" fill="none" xmlns="http://www.w3.org/2000/svg">
<path d="M929.965 0L1859.93 1520H1809.3L671.355 422.691L929.965 0Z" fill="#FF5757"/>
<path d="M337.975 1520H447.128L1033.41 813.841L663.824 457.451L337.975 1520Z" fill="#FF914D"/>
<path d="M795.834 1520H486.445L801.082 1141.03L795.834 1520Z" fill="#FFBD59"/>
<path d="M826.086 1520H1392.97L831.82 1105.82L826.086 1520Z" fill="#FF5757"/>
<path d="M1457.4 1520L1077.17 856.035L1765.72 1520H1457.4Z" fill="#FF914D"/>
<path d="M1406.9 1492.69L850.239 1081.82L1040.43 852.744L1406.9 1492.69Z" fill="#FFBD59"/>
<path d="M306.336 1520H0L614.193 516.121L306.336 1520Z" fill="#FFBD59"/>
<path d="M2009.73 1426.62H2105.44V1443.17H2009.73V1426.62ZM2011.8 1520H1992.65V1338.92H2116.82V1355.48H2011.8V1520ZM2156.35 1520V1338.92H2224.13C2239.48 1338.92 2252.67 1341.42 2263.71 1346.42C2274.74 1351.25 2283.19 1358.32 2289.06 1367.64C2295.09 1376.78 2298.11 1387.9 2298.11 1401.01C2298.11 1413.77 2295.09 1424.8 2289.06 1434.12C2283.19 1443.26 2274.74 1450.33 2263.71 1455.33C2252.67 1460.16 2239.48 1462.57 2224.13 1462.57H2166.96L2175.5 1453.78V1520H2156.35ZM2280 1520L2233.44 1454.29H2254.14L2300.96 1520H2280ZM2175.5 1455.33L2166.96 1446.28H2223.61C2241.72 1446.28 2255.43 1442.31 2264.74 1434.38C2274.23 1426.44 2278.97 1415.32 2278.97 1401.01C2278.97 1386.52 2274.23 1375.31 2264.74 1367.38C2255.43 1359.44 2241.72 1355.48 2223.61 1355.48H2166.96L2175.5 1346.42V1455.33ZM2314.32 1520L2397.1 1338.92H2415.98L2498.76 1520H2478.58L2402.53 1350.04H2410.29L2334.24 1520H2314.32ZM2346.91 1471.63L2352.61 1456.11H2457.89L2463.58 1471.63H2346.91ZM2528.72 1520V1338.92H2544.5L2627.27 1480.16H2619L2701 1338.92H2716.78V1520H2698.41V1367.64H2702.81L2627.27 1496.98H2618.22L2542.17 1367.64H2547.08V1520H2528.72ZM2792.85 1419.89H2888.57V1436.19H2792.85V1419.89ZM2794.92 1503.44H2903.83V1520H2775.78V1338.92H2899.95V1355.48H2794.92V1503.44ZM2987.43 1520L2926.38 1338.92H2946.04L3003.21 1509.39H2993.38L3052.36 1338.92H3069.95L3128.15 1509.39H3118.84L3176.53 1338.92H3194.89L3133.84 1520H3113.67L3058.05 1358.32H3063.22L3007.35 1520H2987.43ZM3307.63 1521.55C3294.01 1521.55 3281.33 1519.31 3269.61 1514.83C3258.05 1510.17 3247.96 1503.7 3239.34 1495.43C3230.89 1486.97 3224.25 1477.23 3219.42 1466.19C3214.77 1454.98 3212.44 1442.74 3212.44 1429.46C3212.44 1416.18 3214.77 1404.02 3219.42 1392.99C3224.25 1381.78 3230.89 1372.03 3239.34 1363.75C3247.96 1355.3 3258.05 1348.84 3269.61 1344.35C3281.16 1339.7 3293.84 1337.37 3307.63 1337.37C3321.26 1337.37 3333.85 1339.7 3345.4 1344.35C3356.96 1348.84 3366.96 1355.22 3375.41 1363.5C3384.03 1371.77 3390.67 1381.52 3395.33 1392.73C3400.16 1403.94 3402.57 1416.18 3402.57 1429.46C3402.57 1442.74 3400.16 1454.98 3395.33 1466.19C3390.67 1477.4 3384.03 1487.15 3375.41 1495.43C3366.96 1503.7 3356.96 1510.17 3345.4 1514.83C3333.85 1519.31 3321.26 1521.55 3307.63 1521.55ZM3307.63 1504.48C3318.5 1504.48 3328.5 1502.67 3337.64 1499.05C3346.95 1495.25 3354.97 1489.99 3361.7 1483.27C3368.6 1476.37 3373.94 1468.44 3377.74 1459.47C3381.53 1450.33 3383.43 1440.33 3383.43 1429.46C3383.43 1418.6 3381.53 1408.68 3377.74 1399.71C3373.94 1390.57 3368.6 1382.64 3361.7 1375.91C3354.97 1369.01 3346.95 1363.75 3337.64 1360.13C3328.5 1356.34 3318.5 1354.44 3307.63 1354.44C3296.77 1354.44 3286.68 1356.34 3277.37 1360.13C3268.06 1363.75 3259.95 1369.01 3253.05 1375.91C3246.33 1382.64 3240.98 1390.57 3237.01 1399.71C3233.22 1408.68 3231.32 1418.6 3231.32 1429.46C3231.32 1440.15 3233.22 1450.07 3237.01 1459.21C3240.98 1468.35 3246.33 1476.37 3253.05 1483.27C3259.95 1489.99 3268.06 1495.25 3277.37 1499.05C3286.68 1502.67 3296.77 1504.48 3307.63 1504.48ZM3445.48 1520V1338.92H3513.25C3528.6 1338.92 3541.79 1341.42 3552.83 1346.42C3563.87 1351.25 3572.32 1358.32 3578.18 1367.64C3584.22 1376.78 3587.24 1387.9 3587.24 1401.01C3587.24 1413.77 3584.22 1424.8 3578.18 1434.12C3572.32 1443.26 3563.87 1450.33 3552.83 1455.33C3541.79 1460.16 3528.6 1462.57 3513.25 1462.57H3456.08L3464.62 1453.78V1520H3445.48ZM3569.13 1520L3522.57 1454.29H3543.26L3590.08 1520H3569.13ZM3464.62 1455.33L3456.08 1446.28H3512.74C3530.84 1446.28 3544.55 1442.31 3553.87 1434.38C3563.35 1426.44 3568.09 1415.32 3568.09 1401.01C3568.09 1386.52 3563.35 1375.31 3553.87 1367.38C3544.55 1359.44 3530.84 1355.48 3512.74 1355.48H3456.08L3464.62 1346.42V1455.33ZM3648.97 1474.99L3648.2 1451.71L3757.88 1338.92H3779.87L3699.93 1422.73L3689.07 1434.38L3648.97 1474.99ZM3632.42 1520V1338.92H3651.56V1520H3632.42ZM3762.54 1520L3684.41 1429.98L3697.35 1416.01L3785.3 1520H3762.54Z" fill="#FF5757"/>
<path d="M1940.57 1270L2242.27 599.565H2364.86L2667.51 1270H2537.26L2277.7 665.651H2327.51L2068.91 1270H1940.57ZM2079.45 1114.84L2112.97 1017.15H2475L2508.53 1114.84H2079.45ZM2894.64 1276.7C2851.86 1276.7 2810.67 1271.28 2771.09 1260.42C2732.14 1248.93 2701.17 1235.2 2678.18 1219.24L2724.16 1128.25C2747.14 1142.94 2774.6 1155.07 2806.52 1164.65C2838.45 1174.22 2870.38 1179.01 2902.3 1179.01C2939.97 1179.01 2967.11 1173.9 2983.71 1163.69C3000.95 1153.47 3009.57 1139.74 3009.57 1122.5C3009.57 1108.46 3003.82 1097.92 2992.33 1090.9C2980.84 1083.24 2965.83 1077.49 2947.32 1073.66C2928.8 1069.83 2908.05 1066.32 2885.06 1063.12C2862.71 1059.93 2840.05 1055.78 2817.06 1050.67C2794.71 1044.93 2774.28 1036.94 2755.76 1026.73C2737.25 1015.87 2722.24 1001.51 2710.75 983.628C2699.26 965.75 2693.51 942.125 2693.51 912.754C2693.51 880.19 2702.77 852.095 2721.28 828.471C2739.8 804.207 2765.66 785.69 2798.86 772.92C2832.7 759.511 2872.61 752.807 2918.58 752.807C2953.06 752.807 2987.86 756.638 3022.98 764.3C3058.1 771.962 3087.15 782.817 3110.14 796.864L3064.16 887.852C3039.9 873.166 3015.32 863.269 2990.42 858.161C2966.15 852.415 2941.89 849.541 2917.63 849.541C2881.23 849.541 2854.09 854.969 2836.22 865.823C2818.98 876.678 2810.36 890.406 2810.36 907.007C2810.36 922.331 2816.1 933.825 2827.6 941.487C2839.09 949.149 2854.09 955.215 2872.61 959.684C2891.13 964.154 2911.56 967.985 2933.91 971.177C2956.89 973.731 2979.56 977.882 3001.91 983.628C3024.26 989.375 3044.69 997.356 3063.21 1007.57C3082.36 1017.15 3097.69 1030.88 3109.18 1048.76C3120.67 1066.63 3126.42 1089.94 3126.42 1118.67C3126.42 1150.6 3116.84 1178.37 3097.69 1202C3079.17 1225.62 3052.67 1244.14 3018.19 1257.55C2983.71 1270.32 2942.53 1276.7 2894.64 1276.7ZM3519.72 752.807C3560.59 752.807 3596.98 760.788 3628.91 776.751C3661.47 792.714 3687.01 817.297 3705.53 850.499C3724.05 883.063 3733.3 925.205 3733.3 976.924V1270H3613.58V992.248C3613.58 946.914 3602.73 913.073 3581.02 890.725C3559.95 868.377 3530.26 857.203 3491.95 857.203C3463.85 857.203 3438.95 862.95 3417.24 874.443C3395.53 885.936 3378.61 903.176 3366.48 926.163C3354.99 948.51 3349.24 976.924 3349.24 1011.4V1270H3229.52V559.339H3349.24V896.472L3323.38 854.33C3341.26 821.766 3367.12 796.864 3400.96 779.625C3435.44 761.746 3475.03 752.807 3519.72 752.807Z" fill="#FFBD59"/>
</svg>
