<svg width="1908" height="2699" viewBox="0 0 1908 2699" fill="none" xmlns="http://www.w3.org/2000/svg">
<path d="M977.965 0L1907.93 1520H1857.3L719.355 422.691L977.965 0Z" fill="#FF5757"/>
<path d="M385.975 1520H495.128L1081.41 813.841L711.824 457.451L385.975 1520Z" fill="#FF914D"/>
<path d="M843.834 1520H534.445L849.082 1141.03L843.834 1520Z" fill="#FFBD59"/>
<path d="M874.086 1520H1440.97L879.82 1105.82L874.086 1520Z" fill="#FF5757"/>
<path d="M1505.4 1520L1125.17 856.035L1813.72 1520H1505.4Z" fill="#FF914D"/>
<path d="M1454.9 1492.69L898.239 1081.82L1088.43 852.744L1454.9 1492.69Z" fill="#FFBD59"/>
<path d="M354.336 1520H48L662.193 516.121L354.336 1520Z" fill="#FFBD59"/>
<path d="M64.7275 2539.8H160.441V2556.35H64.7275V2539.8ZM66.797 2633.18H47.6544V2452.1H171.823V2468.66H66.797V2633.18ZM211.353 2633.18V2452.1H279.128C294.477 2452.1 307.669 2454.6 318.707 2459.6C329.744 2464.43 338.194 2471.5 344.058 2480.82C350.094 2489.96 353.112 2501.08 353.112 2514.19C353.112 2526.95 350.094 2537.99 344.058 2547.3C338.194 2556.44 329.744 2563.51 318.707 2568.51C307.669 2573.34 294.477 2575.75 279.128 2575.75H221.959L230.495 2566.96V2633.18H211.353ZM335.004 2633.18L288.441 2567.48H309.135L355.957 2633.18H335.004ZM230.495 2568.51L221.959 2559.46H278.611C296.719 2559.46 310.429 2555.49 319.741 2547.56C329.226 2539.62 333.969 2528.5 333.969 2514.19C333.969 2499.7 329.226 2488.49 319.741 2480.56C310.429 2472.63 296.719 2468.66 278.611 2468.66H221.959L230.495 2459.6V2568.51ZM369.32 2633.18L452.099 2452.1H470.983L553.761 2633.18H533.584L457.531 2463.23H465.292L389.238 2633.18H369.32ZM401.914 2584.81L407.605 2569.29H512.889L518.58 2584.81H401.914ZM583.716 2633.18V2452.1H599.496L682.275 2593.34H673.997L756 2452.1H771.779V2633.18H753.413V2480.82H757.811L682.275 2610.16H673.221L597.168 2480.82H602.083V2633.18H583.716ZM847.853 2533.07H943.566V2549.37H847.853V2533.07ZM849.922 2616.63H958.828V2633.18H830.78V2452.1H954.948V2468.66H849.922V2616.63ZM1042.43 2633.18L981.38 2452.1H1001.04L1058.21 2622.58H1048.38L1107.36 2452.1H1124.95L1183.15 2622.58H1173.84L1231.53 2452.1H1249.89L1188.84 2633.18H1168.67L1113.05 2471.5H1118.22L1062.35 2633.18H1042.43ZM1362.63 2634.73C1349.01 2634.73 1336.33 2632.49 1324.61 2628.01C1313.05 2623.35 1302.96 2616.88 1294.34 2608.61C1285.89 2600.16 1279.25 2590.41 1274.42 2579.38C1269.77 2568.17 1267.44 2555.92 1267.44 2542.64C1267.44 2529.36 1269.77 2517.21 1274.42 2506.17C1279.25 2494.96 1285.89 2485.21 1294.34 2476.94C1302.96 2468.49 1313.05 2462.02 1324.61 2457.54C1336.16 2452.88 1348.84 2450.55 1362.63 2450.55C1376.26 2450.55 1388.85 2452.88 1400.4 2457.54C1411.96 2462.02 1421.96 2468.4 1430.41 2476.68C1439.03 2484.96 1445.67 2494.7 1450.33 2505.91C1455.16 2517.12 1457.57 2529.36 1457.57 2542.64C1457.57 2555.92 1455.16 2568.17 1450.33 2579.38C1445.67 2590.59 1439.03 2600.33 1430.41 2608.61C1421.96 2616.88 1411.96 2623.35 1400.4 2628.01C1388.85 2632.49 1376.26 2634.73 1362.63 2634.73ZM1362.63 2617.66C1373.5 2617.66 1383.5 2615.85 1392.64 2612.23C1401.95 2608.43 1409.97 2603.17 1416.7 2596.45C1423.6 2589.55 1428.94 2581.62 1432.74 2572.65C1436.53 2563.51 1438.43 2553.51 1438.43 2542.64C1438.43 2531.78 1436.53 2521.86 1432.74 2512.89C1428.94 2503.75 1423.6 2495.82 1416.7 2489.09C1409.97 2482.2 1401.95 2476.94 1392.64 2473.31C1383.5 2469.52 1373.5 2467.62 1362.63 2467.62C1351.77 2467.62 1341.68 2469.52 1332.37 2473.31C1323.06 2476.94 1314.95 2482.2 1308.05 2489.09C1301.33 2495.82 1295.98 2503.75 1292.01 2512.89C1288.22 2521.86 1286.32 2531.78 1286.32 2542.64C1286.32 2553.33 1288.22 2563.25 1292.01 2572.39C1295.98 2581.53 1301.33 2589.55 1308.05 2596.45C1314.95 2603.17 1323.06 2608.43 1332.37 2612.23C1341.68 2615.85 1351.77 2617.66 1362.63 2617.66ZM1500.48 2633.18V2452.1H1568.25C1583.6 2452.1 1596.79 2454.6 1607.83 2459.6C1618.87 2464.43 1627.32 2471.5 1633.18 2480.82C1639.22 2489.96 1642.24 2501.08 1642.24 2514.19C1642.24 2526.95 1639.22 2537.99 1633.18 2547.3C1627.32 2556.44 1618.87 2563.51 1607.83 2568.51C1596.79 2573.34 1583.6 2575.75 1568.25 2575.75H1511.08L1519.62 2566.96V2633.18H1500.48ZM1624.13 2633.18L1577.57 2567.48H1598.26L1645.08 2633.18H1624.13ZM1519.62 2568.51L1511.08 2559.46H1567.74C1585.84 2559.46 1599.55 2555.49 1608.87 2547.56C1618.35 2539.62 1623.09 2528.5 1623.09 2514.19C1623.09 2499.7 1618.35 2488.49 1608.87 2480.56C1599.55 2472.63 1585.84 2468.66 1567.74 2468.66H1511.08L1519.62 2459.6V2568.51ZM1703.97 2588.17L1703.2 2564.89L1812.88 2452.1H1834.87L1754.93 2535.92L1744.07 2547.56L1703.97 2588.17ZM1687.42 2633.18V2452.1H1706.56V2633.18H1687.42ZM1817.54 2633.18L1739.41 2543.16L1752.35 2529.19L1840.3 2633.18H1817.54Z" fill="#FF5757"/>
<path d="M41.3082 2394L343.004 1723.56H465.598L768.251 2394H637.995L378.441 1789.65H428.245L169.649 2394H41.3082ZM180.184 2238.84L213.706 2141.15H575.741L609.263 2238.84H180.184ZM995.376 2400.7C952.596 2400.7 911.412 2395.28 871.825 2384.42C832.876 2372.93 801.908 2359.2 778.922 2343.24L824.894 2252.25C847.881 2266.94 875.336 2279.07 907.262 2288.65C939.187 2298.22 971.113 2303.01 1003.04 2303.01C1040.71 2303.01 1067.85 2297.9 1084.45 2287.69C1101.69 2277.47 1110.31 2263.74 1110.31 2246.5C1110.31 2232.46 1104.56 2221.92 1093.07 2214.9C1081.58 2207.24 1066.57 2201.49 1048.05 2197.66C1029.54 2193.83 1008.79 2190.32 985.799 2187.12C963.451 2183.93 940.784 2179.78 917.797 2174.67C895.45 2168.93 875.017 2160.94 856.5 2150.73C837.984 2139.87 822.979 2125.51 811.486 2107.63C799.992 2089.75 794.246 2066.13 794.246 2036.75C794.246 2004.19 803.504 1976.1 822.021 1952.47C840.538 1928.21 866.397 1909.69 899.6 1896.92C933.441 1883.51 973.348 1876.81 1019.32 1876.81C1053.8 1876.81 1088.6 1880.64 1123.72 1888.3C1158.83 1895.96 1187.89 1906.82 1210.87 1920.86L1164.9 2011.85C1140.64 1997.17 1116.05 1987.27 1091.15 1982.16C1066.89 1976.41 1042.63 1973.54 1018.36 1973.54C981.968 1973.54 954.831 1978.97 936.953 1989.82C919.713 2000.68 911.093 2014.41 911.093 2031.01C911.093 2046.33 916.84 2057.82 928.333 2065.49C939.826 2073.15 954.831 2079.21 973.348 2083.68C991.865 2088.15 1012.3 2091.98 1034.64 2095.18C1057.63 2097.73 1080.3 2101.88 1102.65 2107.63C1124.99 2113.37 1145.43 2121.36 1163.94 2131.57C1183.1 2141.15 1198.42 2154.88 1209.92 2172.76C1221.41 2190.63 1227.16 2213.94 1227.16 2242.67C1227.16 2274.6 1217.58 2302.37 1198.42 2326C1179.91 2349.62 1153.41 2368.14 1118.93 2381.55C1084.45 2394.32 1043.26 2400.7 995.376 2400.7ZM1620.46 1876.81C1661.32 1876.81 1697.72 1884.79 1729.64 1900.75C1762.21 1916.71 1787.75 1941.3 1806.27 1974.5C1824.78 2007.06 1834.04 2049.2 1834.04 2100.92V2394H1714.32V2116.25C1714.32 2070.91 1703.47 2037.07 1681.76 2014.73C1660.69 1992.38 1631 1981.2 1592.68 1981.2C1564.59 1981.2 1539.69 1986.95 1517.98 1998.44C1496.27 2009.94 1479.35 2027.18 1467.22 2050.16C1455.72 2072.51 1449.98 2100.92 1449.98 2135.4V2394H1330.26V1683.34H1449.98V2020.47L1424.12 1978.33C1442 1945.77 1467.86 1920.86 1501.7 1903.62C1536.18 1885.75 1575.76 1876.81 1620.46 1876.81Z" fill="#FFBD59"/>
</svg>
