<?xml version="1.0" encoding="UTF-8"?>
<svg xmlns="http://www.w3.org/2000/svg" xmlns:xlink="http://www.w3.org/1999/xlink" width="1200px" height="500px" viewBox="0 0 1200 500" version="1.1">
<g id="surface1">
<path style=" stroke:none;fill-rule:nonzero;fill:rgb(100%,34.117647%,34.117647%);fill-opacity:1;" d="M 293.132812 0 L 586.265625 479.496094 L 570.308594 479.496094 L 211.617188 133.339844 Z M 293.132812 0 "/>
<path style=" stroke:none;fill-rule:nonzero;fill:rgb(100%,56.862745%,30.196078%);fill-opacity:1;" d="M 106.53125 479.496094 L 140.9375 479.496094 L 325.738281 256.730469 L 209.242188 144.304688 Z M 106.53125 479.496094 "/>
<path style=" stroke:none;fill-rule:nonzero;fill:rgb(100%,74.117647%,34.901961%);fill-opacity:1;" d="M 250.855469 479.496094 L 153.332031 479.496094 L 252.507812 359.945312 Z M 250.855469 479.496094 "/>
<path style=" stroke:none;fill-rule:nonzero;fill:rgb(100%,34.117647%,34.117647%);fill-opacity:1;" d="M 260.390625 479.496094 L 439.078125 479.496094 L 262.195312 348.839844 Z M 260.390625 479.496094 "/>
<path style=" stroke:none;fill-rule:nonzero;fill:rgb(100%,56.862745%,30.196078%);fill-opacity:1;" d="M 459.386719 479.496094 L 339.535156 270.042969 L 556.570312 479.496094 Z M 459.386719 479.496094 "/>
<path style=" stroke:none;fill-rule:nonzero;fill:rgb(100%,74.117647%,34.901961%);fill-opacity:1;" d="M 443.46875 470.878906 L 268.003906 341.269531 L 327.953125 269.003906 Z M 443.46875 470.878906 "/>
<path style=" stroke:none;fill-rule:nonzero;fill:rgb(100%,74.117647%,34.901961%);fill-opacity:1;" d="M 96.558594 479.496094 L 0 479.496094 L 193.597656 162.8125 Z M 96.558594 479.496094 "/>
<path style=" stroke:none;fill-rule:nonzero;fill:rgb(100%,34.117647%,34.117647%);fill-opacity:1;" d="M 633.484375 450.039062 L 663.652344 450.039062 L 663.652344 455.257812 L 633.484375 455.257812 Z M 634.136719 479.496094 L 628.101562 479.496094 L 628.101562 422.371094 L 667.242188 422.371094 L 667.242188 427.597656 L 634.136719 427.597656 Z M 679.699219 479.496094 L 679.699219 422.371094 L 701.066406 422.371094 C 705.902344 422.371094 710.0625 423.160156 713.542969 424.738281 C 717.019531 426.261719 719.679688 428.492188 721.53125 431.433594 C 723.433594 434.316406 724.382812 437.824219 724.382812 441.960938 C 724.382812 445.984375 723.433594 449.464844 721.53125 452.402344 C 719.679688 455.285156 717.019531 457.515625 713.542969 459.09375 C 710.0625 460.617188 705.902344 461.378906 701.066406 461.378906 L 683.042969 461.378906 L 685.738281 458.605469 L 685.738281 479.496094 Z M 718.675781 479.496094 L 704 458.765625 L 710.523438 458.765625 L 725.28125 479.496094 Z M 685.738281 459.09375 L 683.042969 456.238281 L 700.902344 456.238281 C 706.609375 456.238281 710.929688 454.988281 713.867188 452.484375 C 716.855469 449.980469 718.351562 446.472656 718.351562 441.960938 C 718.351562 437.386719 716.855469 433.851562 713.867188 431.351562 C 710.929688 428.84375 706.609375 427.597656 700.902344 427.597656 L 683.042969 427.597656 L 685.738281 424.738281 Z M 729.492188 479.496094 L 755.585938 422.371094 L 761.539062 422.371094 L 787.632812 479.496094 L 781.269531 479.496094 L 757.296875 425.878906 L 759.746094 425.878906 L 735.773438 479.496094 Z M 739.765625 464.238281 L 741.5625 459.339844 L 774.75 459.339844 L 776.542969 464.238281 Z M 797.074219 479.496094 L 797.074219 422.371094 L 802.050781 422.371094 L 828.140625 466.925781 L 825.53125 466.925781 L 851.378906 422.371094 L 856.351562 422.371094 L 856.351562 479.496094 L 850.5625 479.496094 L 850.5625 431.433594 L 851.949219 431.433594 L 828.140625 472.234375 L 825.285156 472.234375 L 801.3125 431.433594 L 802.863281 431.433594 L 802.863281 479.496094 Z M 880.332031 447.914062 L 910.503906 447.914062 L 910.503906 453.058594 L 880.332031 453.058594 Z M 880.984375 474.269531 L 915.3125 474.269531 L 915.3125 479.496094 L 874.949219 479.496094 L 874.949219 422.371094 L 914.089844 422.371094 L 914.089844 427.597656 L 880.984375 427.597656 Z M 941.664062 479.496094 L 922.421875 422.371094 L 928.617188 422.371094 L 946.636719 476.148438 L 943.539062 476.148438 L 962.128906 422.371094 L 967.675781 422.371094 L 986.019531 476.148438 L 983.085938 476.148438 L 1001.269531 422.371094 L 1007.058594 422.371094 L 987.8125 479.496094 L 981.457031 479.496094 L 963.925781 428.492188 L 965.554688 428.492188 L 947.941406 479.496094 Z M 1042.59375 479.984375 C 1038.300781 479.984375 1034.304688 479.277344 1030.609375 477.863281 C 1026.964844 476.394531 1023.785156 474.351562 1021.070312 471.746094 C 1018.40625 469.074219 1016.3125 466.003906 1014.789062 462.519531 C 1013.324219 458.984375 1012.589844 455.121094 1012.589844 450.933594 C 1012.589844 446.746094 1013.324219 442.910156 1014.789062 439.429688 C 1016.3125 435.894531 1018.40625 432.816406 1021.070312 430.203125 C 1023.785156 427.539062 1026.964844 425.5 1030.609375 424.085938 C 1034.25 422.617188 1038.246094 421.882812 1042.59375 421.882812 C 1046.890625 421.882812 1050.859375 422.617188 1054.5 424.085938 C 1058.144531 425.5 1061.296875 427.515625 1063.960938 430.125 C 1066.675781 432.734375 1068.769531 435.8125 1070.238281 439.347656 C 1071.761719 442.882812 1072.519531 446.746094 1072.519531 450.933594 C 1072.519531 455.121094 1071.761719 458.984375 1070.238281 462.519531 C 1068.769531 466.058594 1066.675781 469.132812 1063.960938 471.746094 C 1061.296875 474.351562 1058.144531 476.394531 1054.5 477.863281 C 1050.859375 479.277344 1046.890625 479.984375 1042.59375 479.984375 Z M 1042.59375 474.597656 C 1046.019531 474.597656 1049.171875 474.027344 1052.054688 472.886719 C 1054.988281 471.6875 1057.515625 470.027344 1059.636719 467.910156 C 1061.8125 465.730469 1063.496094 463.230469 1064.695312 460.402344 C 1065.886719 457.515625 1066.488281 454.363281 1066.488281 450.933594 C 1066.488281 447.507812 1065.886719 444.378906 1064.695312 441.550781 C 1063.496094 438.664062 1061.8125 436.164062 1059.636719 434.039062 C 1057.515625 431.863281 1054.988281 430.203125 1052.054688 429.0625 C 1049.171875 427.867188 1046.019531 427.269531 1042.59375 427.269531 C 1039.171875 427.269531 1035.992188 427.867188 1033.054688 429.0625 C 1030.121094 430.203125 1027.566406 431.863281 1025.390625 434.039062 C 1023.273438 436.164062 1021.585938 438.664062 1020.335938 441.550781 C 1019.140625 444.378906 1018.539062 447.507812 1018.539062 450.933594 C 1018.539062 454.304688 1019.140625 457.433594 1020.335938 460.320312 C 1021.585938 463.203125 1023.273438 465.730469 1025.390625 467.910156 C 1027.566406 470.027344 1030.121094 471.6875 1033.054688 472.886719 C 1035.992188 474.027344 1039.171875 474.597656 1042.59375 474.597656 Z M 1086.046875 479.496094 L 1086.046875 422.371094 L 1107.40625 422.371094 C 1112.246094 422.371094 1116.402344 423.160156 1119.882812 424.738281 C 1123.363281 426.261719 1126.027344 428.492188 1127.875 431.433594 C 1129.777344 434.316406 1130.730469 437.824219 1130.730469 441.960938 C 1130.730469 445.984375 1129.777344 449.464844 1127.875 452.402344 C 1126.027344 455.285156 1123.363281 457.515625 1119.882812 459.09375 C 1116.402344 460.617188 1112.246094 461.378906 1107.40625 461.378906 L 1089.386719 461.378906 L 1092.078125 458.605469 L 1092.078125 479.496094 Z M 1125.019531 479.496094 L 1110.34375 458.765625 L 1116.867188 458.765625 L 1131.625 479.496094 Z M 1092.078125 459.09375 L 1089.386719 456.238281 L 1107.246094 456.238281 C 1112.953125 456.238281 1117.273438 454.988281 1120.210938 452.484375 C 1123.199219 449.980469 1124.695312 446.472656 1124.695312 441.960938 C 1124.695312 437.386719 1123.199219 433.851562 1120.210938 431.351562 C 1117.273438 428.84375 1112.953125 427.597656 1107.246094 427.597656 L 1089.386719 427.597656 L 1092.078125 424.738281 Z M 1150.1875 465.296875 L 1149.945312 457.953125 L 1184.515625 422.371094 L 1191.449219 422.371094 L 1166.25 448.8125 L 1162.828125 452.484375 Z M 1144.972656 479.496094 L 1144.972656 422.371094 L 1151.003906 422.371094 L 1151.003906 479.496094 Z M 1185.984375 479.496094 L 1161.359375 451.097656 L 1165.4375 446.691406 L 1193.160156 479.496094 Z M 1185.984375 479.496094 "/>
<path style=" stroke:none;fill-rule:nonzero;fill:rgb(100%,74.117647%,34.901961%);fill-opacity:1;" d="M 611.683594 400.632812 L 706.785156 189.136719 L 745.425781 189.136719 L 840.824219 400.632812 L 799.765625 400.632812 L 717.949219 209.984375 L 733.652344 209.984375 L 652.140625 400.632812 Z M 655.460938 351.683594 L 666.027344 320.867188 L 780.140625 320.867188 L 790.710938 351.683594 Z M 912.417969 402.746094 C 898.929688 402.746094 885.949219 401.035156 873.472656 397.609375 C 861.195312 393.984375 851.433594 389.652344 844.1875 384.617188 L 858.679688 355.914062 C 865.921875 360.550781 874.578125 364.375 884.640625 367.398438 C 894.703125 370.417969 904.769531 371.925781 914.832031 371.925781 C 926.703125 371.925781 935.257812 370.316406 940.492188 367.09375 C 945.925781 363.871094 948.644531 359.539062 948.644531 354.101562 C 948.644531 349.671875 946.832031 346.347656 943.207031 344.132812 C 939.585938 341.714844 934.855469 339.902344 929.019531 338.695312 C 923.183594 337.484375 916.644531 336.378906 909.394531 335.367188 C 902.351562 334.363281 895.207031 333.054688 887.960938 331.441406 C 880.917969 329.632812 874.476562 327.109375 868.640625 323.890625 C 862.804688 320.464844 858.074219 315.933594 854.453125 310.292969 C 850.832031 304.652344 849.019531 297.199219 849.019531 287.933594 C 849.019531 277.664062 851.9375 268.800781 857.769531 261.347656 C 863.609375 253.691406 871.761719 247.851562 882.226562 243.824219 C 892.890625 239.59375 905.472656 237.480469 919.960938 237.480469 C 930.832031 237.480469 941.800781 238.6875 952.871094 241.105469 C 963.941406 243.519531 973.097656 246.945312 980.34375 251.375 L 965.851562 280.078125 C 958.203125 275.445312 950.457031 272.324219 942.605469 270.714844 C 934.957031 268.902344 927.308594 267.992188 919.664062 267.992188 C 908.1875 267.992188 899.632812 269.707031 894 273.128906 C 888.566406 276.554688 885.851562 280.886719 885.851562 286.121094 C 885.851562 290.957031 887.660156 294.582031 891.285156 297 C 894.90625 299.417969 899.632812 301.328125 905.472656 302.738281 C 911.308594 304.148438 917.75 305.359375 924.792969 306.363281 C 932.039062 307.171875 939.183594 308.480469 946.230469 310.292969 C 953.273438 312.105469 959.714844 314.625 965.550781 317.84375 C 971.585938 320.867188 976.417969 325.199219 980.039062 330.839844 C 983.664062 336.476562 985.476562 343.828125 985.476562 352.894531 C 985.476562 362.964844 982.457031 371.726562 976.417969 379.179688 C 970.582031 386.632812 962.230469 392.472656 951.359375 396.703125 C 940.492188 400.730469 927.511719 402.746094 912.417969 402.746094 Z M 1109.445312 237.480469 C 1122.328125 237.480469 1133.800781 239.996094 1143.863281 245.03125 C 1154.128906 250.066406 1162.179688 257.824219 1168.015625 268.296875 C 1173.851562 278.570312 1176.769531 291.863281 1176.769531 308.179688 L 1176.769531 400.632812 L 1139.03125 400.632812 L 1139.03125 313.011719 C 1139.03125 298.710938 1135.613281 288.035156 1128.769531 280.984375 C 1122.128906 273.9375 1112.769531 270.410156 1100.695312 270.410156 C 1091.835938 270.410156 1083.988281 272.222656 1077.144531 275.847656 C 1070.300781 279.476562 1064.96875 284.914062 1061.144531 292.164062 C 1057.523438 299.214844 1055.710938 308.179688 1055.710938 319.054688 L 1055.710938 400.632812 L 1017.972656 400.632812 L 1017.972656 176.449219 L 1055.710938 176.449219 L 1055.710938 282.796875 L 1047.558594 269.503906 C 1053.195312 259.230469 1061.347656 251.375 1072.011719 245.9375 C 1082.882812 240.296875 1095.359375 237.480469 1109.445312 237.480469 Z M 1109.445312 237.480469 "/>
</g>
</svg>
