<?xml version="1.0" encoding="UTF-8"?>
<svg width="60px" height="60px" viewBox="0 0 60 60" version="1.1" xmlns="http://www.w3.org/2000/svg" xmlns:xlink="http://www.w3.org/1999/xlink">
    <title>Daylite-icon@3x</title>
    <defs>
        <path d="M48.75,15.1827299 C48.75,14.6040033 48.75,14.0252174 48.746681,13.4464316 C48.7437821,12.9588742 48.7381617,12.4714352 48.7249094,11.9841144 C48.6962749,10.9219718 48.6336221,9.85071808 48.4447173,8.80040789 C48.2531501,7.73495212 47.9403005,6.74333103 47.447302,5.77525658 C46.9626454,4.82374761 46.3295509,3.95305448 45.5741681,3.19820134 C44.8189629,2.4433482 43.9480364,1.81066543 42.996176,1.32630282 C42.0270994,0.833184163 41.0344171,0.520451685 39.9677821,0.328942977 C38.9173576,0.140333227 37.8458121,0.0777985638 36.7836734,0.0491047969 C36.2959995,0.0359115804 35.8083257,0.0303503143 35.3205335,0.0273330316 C34.741454,0.0237832872 34.1623746,0.0240790992 33.5832951,0.0240790992 L26.8596313,0 L21.8308457,0 L15.226157,0.0240790992 C14.6459535,0.0240790992 14.06575,0.0237832872 13.4855464,0.0273330316 C12.9967485,0.0303503143 12.5081871,0.0359115804 12.0195667,0.0491047969 C10.9549432,0.0777985638 9.88097207,0.140392389 8.82806269,0.329238789 C7.76000779,0.520688335 6.76584646,0.833302488 5.79546833,1.32606617 C4.84159644,1.81048795 3.96877675,2.44322988 3.2119741,3.19820134 C2.45528978,3.95299532 1.82101201,4.82351096 1.33546797,5.77484245 C0.841108762,6.74339019 0.527667514,7.7356029 0.335627067,8.8016503 C0.146544728,9.85154635 0.0838919761,10.9224451 0.0550799928,11.9841144 C0.0419459881,12.4714943 0.0362664185,12.9589334 0.0333083093,13.4464316 C0.0297585783,14.0252766 0,14.7442773 0,15.3230631 L0,21.8362524 L0,26.9188947 L0.0300543892,33.5704649 C0.0300543892,34.1500198 0.0298177405,34.7295747 0.0333083093,35.3091296 C0.0362664185,35.7973378 0.0419459881,36.2854277 0.055139155,36.7734583 C0.0838919761,37.8369618 0.146663053,38.9097537 0.335922878,39.9614838 C0.527904163,41.0283594 0.841286249,42.0214004 1.33523132,42.9907173 C1.82083452,43.943587 2.45523061,44.8154042 3.2119741,45.5713223 C3.96871759,46.3272403 4.84130063,46.9607514 5.79499503,47.4458239 C6.76596479,47.9395934 7.76059941,48.25274 8.8293051,48.4444853 C9.88174118,48.6333909 10.9553573,48.6960439 12.0195667,48.7247377 C12.5081871,48.7379309 12.9968076,48.7435513 13.4856056,48.7465094 C14.0658091,48.75 14.6459535,48.75 15.226157,48.75 L21.8905403,48.75 L26.9318091,48.75 L33.5832951,48.75 C34.1623746,48.75 34.741454,48.75 35.3205335,48.7465094 C35.8083257,48.7435513 36.2959995,48.7379309 36.7836734,48.7247377 C37.8462262,48.6959847 38.9181267,48.6332726 39.9690245,48.4442487 C41.0350088,48.2525033 42.0272177,47.939475 42.9957618,47.4460014 C43.9477997,46.960988 44.8189037,46.3273586 45.5741681,45.5713223 C46.3294326,44.8155225 46.9624679,43.9438236 47.4471245,42.9911314 C47.9404188,42.0213412 48.2532684,41.027827 48.4449539,39.9602413 C48.6336813,38.9089254 48.6962749,37.8365476 48.7249685,36.7734583 C48.7381617,36.2853685 48.7437821,35.7972787 48.746681,35.3091296 C48.75,34.7295747 48.75,34.1500198 48.75,33.5704649 C48.75,33.5704649 48.75,27.0363321 48.75,26.9188947 L48.75,21.8309278 C48.75,21.7441957 48.75,15.1827299 48.75,15.1827299" id="path-1"></path>
        <linearGradient x1="50%" y1="0%" x2="50%" y2="100%" id="linearGradient-3">
            <stop stop-color="#FFE000" offset="0%"></stop>
            <stop stop-color="#FFBC00" offset="51.0309473%"></stop>
            <stop stop-color="#FF9D00" offset="74.9351235%"></stop>
            <stop stop-color="#FF6A00" offset="100%"></stop>
        </linearGradient>
        <rect id="path-4" x="0" y="0" width="48.75" height="48.75"></rect>
        <path d="M55.5537015,-6.80370146 L55.5537015,55.5537015 L-6.80370146,55.5537015 L-6.80370146,-6.80370146 L55.5537015,-6.80370146 Z M26.8596313,8.8817842e-16 L21.8308457,8.8817842e-16 L15.226157,0.0240790992 C14.6459535,0.0240790992 14.06575,0.0237832872 13.4855464,0.0273330316 C12.9967485,0.0303503143 12.5081871,0.0359115804 12.0195667,0.0491047969 C10.9549432,0.0777985638 9.88097207,0.140392389 8.82806269,0.329238789 C7.76000779,0.520688335 6.76584646,0.833302488 5.79546833,1.32606617 C4.84159644,1.81048795 3.96877675,2.44322988 3.2119741,3.19820134 C2.45528978,3.95299532 1.82101201,4.82351096 1.33546797,5.77484245 C0.841108762,6.74339019 0.527667514,7.7356029 0.335627067,8.8016503 C0.146544728,9.85154635 0.0838919761,10.9224451 0.0550799928,11.9841144 C0.0419459881,12.4714943 0.0362664185,12.9589334 0.0333083093,13.4464316 L0.0266063432,13.9024638 L0.0047052424,14.8670643 C0.00185991114,15.0249068 8.8817842e-16,15.1783667 8.8817842e-16,15.3230631 L8.8817842e-16,26.9188947 L0.0300543892,33.5704649 C0.0300543892,34.1500198 0.0298177405,34.7295747 0.0333083093,35.3091296 C0.0362664185,35.7973378 0.0419459881,36.2854277 0.055139155,36.7734583 C0.0838919761,37.8369618 0.146663053,38.9097537 0.335922878,39.9614838 C0.527904163,41.0283594 0.841286249,42.0214004 1.33523132,42.9907173 C1.82083452,43.943587 2.45523061,44.8154042 3.2119741,45.5713223 C3.96871759,46.3272403 4.84130063,46.9607514 5.79499503,47.4458239 C6.76596479,47.9395934 7.76059941,48.25274 8.8293051,48.4444853 C9.88174118,48.6333909 10.9553573,48.6960439 12.0195667,48.7247377 C12.5081871,48.7379309 12.9968076,48.7435513 13.4856056,48.7465094 L14.3558813,48.7495637 L33.5832951,48.75 C34.1623746,48.75 34.741454,48.75 35.3205335,48.7465094 C35.8083257,48.7435513 36.2959995,48.7379309 36.7836734,48.7247377 C37.8462262,48.6959847 38.9181267,48.6332726 39.9690245,48.4442487 C41.0350088,48.2525033 42.0272177,47.939475 42.9957618,47.4460014 C43.9477997,46.960988 44.8189037,46.3273586 45.5741681,45.5713223 C46.3294326,44.8155225 46.9624679,43.9438236 47.4471245,42.9911314 C47.9404188,42.0213412 48.2532684,41.027827 48.4449539,39.9602413 C48.6336813,38.9089254 48.6962749,37.8365476 48.7249685,36.7734583 C48.7381617,36.2853685 48.7437821,35.7972787 48.746681,35.3091296 L48.7495851,34.4397972 L48.75,15.1827299 C48.75,14.6040033 48.75,14.0252174 48.746681,13.4464316 C48.7437821,12.9588742 48.7381617,12.4714352 48.7249094,11.9841144 C48.6962749,10.9219718 48.6336221,9.85071808 48.4447173,8.80040789 C48.2531501,7.73495212 47.9403005,6.74333103 47.447302,5.77525658 C46.9626454,4.82374761 46.3295509,3.95305448 45.5741681,3.19820134 C44.8189629,2.4433482 43.9480364,1.81066543 42.996176,1.32630282 C42.0270994,0.833184163 41.0344171,0.520451685 39.9677821,0.328942977 C38.9173576,0.140333227 37.8458121,0.0777985638 36.7836734,0.0491047969 C36.2959995,0.0359115804 35.8083257,0.0303503143 35.3205335,0.0273330316 C34.741454,0.0237832872 34.1623746,0.0240790992 33.5832951,0.0240790992 L26.8596313,8.8817842e-16 Z" id="path-6"></path>
        <filter x="-19.2%" y="-19.2%" width="138.5%" height="138.5%" filterUnits="objectBoundingBox" id="filter-7">
            <feOffset dx="0" dy="0" in="SourceAlpha" result="shadowOffsetOuter1"></feOffset>
            <feGaussianBlur stdDeviation="4" in="shadowOffsetOuter1" result="shadowBlurOuter1"></feGaussianBlur>
            <feComposite in="shadowBlurOuter1" in2="SourceAlpha" operator="out" result="shadowBlurOuter1"></feComposite>
            <feColorMatrix values="0 0 0 0 0.999901831   0 0 0 0 1   0 0 0 0 0.999879897  0 0 0 1 0" type="matrix" in="shadowBlurOuter1"></feColorMatrix>
        </filter>
        <radialGradient cx="45.2134997%" cy="34.7333123%" fx="45.2134997%" fy="34.7333123%" r="47.2766355%" gradientTransform="translate(0.4521, 0.3473), scale(1, 0.748), rotate(90), translate(-0.4521, -0.3473)" id="radialGradient-8">
            <stop stop-color="#FFFFFF" offset="0%"></stop>
            <stop stop-color="#FFFFFF" stop-opacity="0.7" offset="72.3175534%"></stop>
            <stop stop-color="#FFFFFF" stop-opacity="0.35" offset="100%"></stop>
        </radialGradient>
        <path d="M26.6669717,51.7446234 L1.1373898,73.125 L-2.47952719,52.2729771 L23.2896238,45.3008016 C23.1348691,44.7435424 23.0061679,44.173108 22.9051366,43.590649 C22.5849696,41.7448422 22.5665492,39.9158975 22.8138535,38.1561106 L-3.80859375,33.8627933 L-3.32799193,15.4547847 L24.8568331,32.0890403 C26.0849702,29.8922599 27.7811026,27.9770811 29.8346314,26.5040692 L9.69875548,-2.54552305 L28.7754776,-1.83834546 L35.3460839,23.9121687 C35.7763009,23.7992361 36.2141837,23.7025013 36.6592019,23.6227339 C39.1365494,23.1786816 41.5830195,23.30562 43.8679568,23.9105492 L52.1534458,-8.05245536 L56.9112723,19.3770676 L50.45398,27.3515808 C53.4291948,29.8675128 55.5773828,33.4266543 56.3020428,37.6044186 C57.9281834,46.9793422 51.770279,55.9192817 42.5479776,57.5723337 C41.9843895,57.673354 41.4223996,57.744823 40.863546,57.7878354 L40.863546,52.4270813 C41.1203587,52.3985546 41.377967,52.3612706 41.6360608,52.3150086 C48.0020908,51.1739291 52.2528089,45.0028098 51.1303061,38.5314269 C50.0078032,32.0600439 43.9371486,27.7389796 37.5711187,28.880059 C31.2050887,30.0211385 26.9543706,36.1922578 28.0768734,42.6636407 C29.0552889,48.3043403 33.7930717,52.3113314 39.2090223,52.4914304 L39.2090223,57.8328524 C34.293341,57.7219063 29.748762,55.4334775 26.6669717,51.7446234 Z" id="path-9"></path>
    </defs>
    <g id="Marketcircle-Branding-Guidelines" stroke="none" stroke-width="1" fill="none" fill-rule="evenodd">
        <g id="Marketcircle-Branding-Guidelines---Old" transform="translate(-113, -291)">
            <g id="Daylite-icon" transform="translate(113, 291)">
                <g id="Artwork" transform="translate(5.625, 5.625)">
                    <mask id="mask-2" fill="white">
                        <use xlink:href="#path-1"></use>
                    </mask>
                    <use id="Mask" fill="#FFFFFF" xlink:href="#path-1"></use>
                    <g id="Icon-Center-Image-Artwork" mask="url(#mask-2)">
                        <g id="Icon">
                            <path d="M48.75,15.1827299 C48.75,14.6040033 48.75,14.0252174 48.746681,13.4464316 C48.7437821,12.9588742 48.7381617,12.4714352 48.7249094,11.9841144 C48.6962749,10.9219718 48.6336221,9.85071808 48.4447173,8.80040789 C48.2531501,7.73495212 47.9403005,6.74333103 47.447302,5.77525658 C46.9626454,4.82374761 46.3295509,3.95305448 45.5741681,3.19820134 C44.8189629,2.4433482 43.9480364,1.81066543 42.996176,1.32630282 C42.0270994,0.833184163 41.0344171,0.520451685 39.9677821,0.328942977 C38.9173576,0.140333227 37.8458121,0.0777985638 36.7836734,0.0491047969 C36.2959995,0.0359115804 35.8083257,0.0303503143 35.3205335,0.0273330316 C34.741454,0.0237832872 34.1623746,0.0240790992 33.5832951,0.0240790992 L26.8596313,0 L21.8308457,0 L15.226157,0.0240790992 C14.6459535,0.0240790992 14.06575,0.0237832872 13.4855464,0.0273330316 C12.9967485,0.0303503143 12.5081871,0.0359115804 12.0195667,0.0491047969 C10.9549432,0.0777985638 9.88097207,0.140392389 8.82806269,0.329238789 C7.76000779,0.520688335 6.76584646,0.833302488 5.79546833,1.32606617 C4.84159644,1.81048795 3.96877675,2.44322988 3.2119741,3.19820134 C2.45528978,3.95299532 1.82101201,4.82351096 1.33546797,5.77484245 C0.841108762,6.74339019 0.527667514,7.7356029 0.335627067,8.8016503 C0.146544728,9.85154635 0.0838919761,10.9224451 0.0550799928,11.9841144 C0.0419459881,12.4714943 0.0362664185,12.9589334 0.0333083093,13.4464316 C0.0297585783,14.0252766 0,14.7442773 0,15.3230631 L0,21.8362524 L0,26.9188947 L0.0300543892,33.5704649 C0.0300543892,34.1500198 0.0298177405,34.7295747 0.0333083093,35.3091296 C0.0362664185,35.7973378 0.0419459881,36.2854277 0.055139155,36.7734583 C0.0838919761,37.8369618 0.146663053,38.9097537 0.335922878,39.9614838 C0.527904163,41.0283594 0.841286249,42.0214004 1.33523132,42.9907173 C1.82083452,43.943587 2.45523061,44.8154042 3.2119741,45.5713223 C3.96871759,46.3272403 4.84130063,46.9607514 5.79499503,47.4458239 C6.76596479,47.9395934 7.76059941,48.25274 8.8293051,48.4444853 C9.88174118,48.6333909 10.9553573,48.6960439 12.0195667,48.7247377 C12.5081871,48.7379309 12.9968076,48.7435513 13.4856056,48.7465094 C14.0658091,48.75 14.6459535,48.75 15.226157,48.75 L21.8905403,48.75 L26.9318091,48.75 L33.5832951,48.75 C34.1623746,48.75 34.741454,48.75 35.3205335,48.7465094 C35.8083257,48.7435513 36.2959995,48.7379309 36.7836734,48.7247377 C37.8462262,48.6959847 38.9181267,48.6332726 39.9690245,48.4442487 C41.0350088,48.2525033 42.0272177,47.939475 42.9957618,47.4460014 C43.9477997,46.960988 44.8189037,46.3273586 45.5741681,45.5713223 C46.3294326,44.8155225 46.9624679,43.9438236 47.4471245,42.9911314 C47.9404188,42.0213412 48.2532684,41.027827 48.4449539,39.9602413 C48.6336813,38.9089254 48.6962749,37.8365476 48.7249685,36.7734583 C48.7381617,36.2853685 48.7437821,35.7972787 48.746681,35.3091296 C48.75,34.7295747 48.75,34.1500198 48.75,33.5704649 C48.75,33.5704649 48.75,27.0363321 48.75,26.9188947 L48.75,21.8309278 C48.75,21.7441957 48.75,15.1827299 48.75,15.1827299" id="Mask-(Temporary)"></path>
                            <mask id="mask-5" fill="white">
                                <use xlink:href="#path-4"></use>
                            </mask>
                            <use id="Background" fill="url(#linearGradient-3)" xlink:href="#path-4"></use>
                            <g id="Inner-Glow" opacity="0.75" style="mix-blend-mode: soft-light;" mask="url(#mask-5)">
                                <use fill="black" fill-opacity="1" filter="url(#filter-7)" xlink:href="#path-6"></use>
                                <use fill-opacity="0.546694" fill="#FFFFFF" fill-rule="evenodd" xlink:href="#path-6"></use>
                            </g>
                            <g id="Rays" mask="url(#mask-5)">
                                <use fill="url(#radialGradient-8)" xlink:href="#path-9"></use>
                                <use fill-opacity="0.1" fill="#FFFFFF" xlink:href="#path-9"></use>
                            </g>
                        </g>
                    </g>
                </g>
            </g>
        </g>
    </g>
</svg>