<?xml version="1.0" encoding="UTF-8"?>
<svg width="136px" height="44px" viewBox="0 0 136 44" version="1.1" xmlns="http://www.w3.org/2000/svg" xmlns:xlink="http://www.w3.org/1999/xlink">
    <title>logoDayliteDarkMode</title>
    <defs>
        <path d="M36.0425532,11.1340019 C36.0425532,10.7096024 36.0425532,10.2851595 36.0400994,9.86071653 C36.0379561,9.50317444 36.0338007,9.14571913 36.0240028,8.78835059 C36.0028324,8.00944596 35.956511,7.22385993 35.8168472,6.45363245 C35.675215,5.67229822 35.4439145,4.94510942 35.0794237,4.23518816 C34.7211004,3.53741491 34.2530318,2.89890662 33.6945514,2.34534765 C33.1362021,1.79178868 32.4922962,1.32782132 31.788553,0.972622066 C31.0720814,0.61100172 30.3381572,0.381664569 29.5495572,0.24122485 C28.7729422,0.102911033 27.9807117,0.0570522801 27.195436,0.0360101844 C26.8348819,0.026335159 26.4743278,0.0222568971 26.1136863,0.0200442231 C25.6855529,0.0174410773 25.2574195,0.0176580061 24.8292862,0.0176580061 L19.85825,0 L16.1402957,0 L11.257222,0.0176580061 C10.8282576,0.0176580061 10.3992931,0.0174410773 9.9703287,0.0200442231 C9.60894354,0.0222568971 9.24773335,0.026335159 8.88647941,0.0360101844 C8.09936661,0.0570522801 7.3053428,0.102954419 6.52689065,0.241441779 C5.73724089,0.381838112 5.0022232,0.611088491 4.28478924,0.972448523 C3.57955892,1.32769116 2.93425328,1.79170191 2.37472302,2.34534765 C1.81528025,2.89886323 1.34633686,3.53724137 0.987357441,4.23488446 C0.621860662,4.94515281 0.390122758,5.67277546 0.248140644,6.45454355 C0.108345562,7.22446733 0.0620242259,8.00979305 0.0407225348,8.78835059 C0.0310121129,9.14576252 0.0268130116,9.50321783 0.0246259797,9.86071653 C0.0220015413,10.2852028 0,10.81247 0,11.236913 L0,16.0132518 L0,19.7405228 L0.0222202445,24.6183409 C0.0222202445,25.0433478 0.022045282,25.4683548 0.0246259797,25.8933617 C0.0268130116,26.2513811 0.0310121129,26.6093136 0.0407662754,26.9672028 C0.0620242259,27.7471053 0.108433044,28.5338194 0.248359347,29.3050881 C0.39029772,30.0874636 0.621991884,30.8156936 0.987182478,31.526526 C1.34620564,32.2252971 1.81523651,32.8646297 2.37472302,33.4189697 C2.93420954,33.9733096 3.57934022,34.4378843 4.28443932,34.7936042 C5.00231068,35.1557018 5.7376783,35.3853427 6.5278092,35.5259559 C7.30591143,35.6644867 8.0996728,35.7104322 8.88647941,35.7314743 C9.24773335,35.7411493 9.60898728,35.745271 9.97037244,35.7474402 C10.3993369,35.75 10.8282576,35.75 11.257222,35.75 L16.18443,35.75 L19.9116136,35.75 L24.8292862,35.75 C25.2574195,35.75 25.6855529,35.75 26.1136863,35.7474402 C26.4743278,35.745271 26.8348819,35.7411493 27.195436,35.7314743 C27.9810179,35.7103888 28.7735108,35.6643999 29.5504758,35.5257824 C30.3385946,35.3851691 31.0721688,35.155615 31.7882468,34.7937344 C32.4921212,34.4380579 33.1361584,33.9733963 33.6945514,33.4189697 C34.2529444,32.8647165 34.7209692,32.2254707 35.0792925,31.5268297 C35.444002,30.8156502 35.6753024,30.0870731 35.8170221,29.304177 C35.9565548,28.533212 36.0028324,27.7468016 36.0240466,26.9672028 C36.0338007,26.6092702 36.0379561,26.2513377 36.0400994,25.8933617 C36.0425532,25.4683548 36.0425532,25.0433478 36.0425532,24.6183409 C36.0425532,24.6183409 36.0425532,19.8266435 36.0425532,19.7405228 L36.0425532,16.0093471 C36.0425532,15.9457435 36.0425532,11.1340019 36.0425532,11.1340019" id="path-1"></path>
        <linearGradient x1="50%" y1="0%" x2="50%" y2="100%" id="linearGradient-3">
            <stop stop-color="#FFE000" offset="0%"></stop>
            <stop stop-color="#FFBC00" offset="51.0309473%"></stop>
            <stop stop-color="#FF9D00" offset="74.9351235%"></stop>
            <stop stop-color="#FF6A00" offset="100%"></stop>
        </linearGradient>
        <rect id="path-4" x="0" y="0" width="36.0425532" height="35.75"></rect>
        <path d="M41.0727639,-4.98938107 L41.0727639,40.7393811 L-5.0302107,40.7393811 L-5.0302107,-4.98938107 L41.0727639,-4.98938107 Z M19.85825,0 L16.1402957,0 L11.257222,0.0176580061 C10.8282576,0.0176580061 10.3992931,0.0174410773 9.9703287,0.0200442231 C9.60894354,0.0222568971 9.24773335,0.026335159 8.88647941,0.0360101844 C8.09936661,0.0570522801 7.3053428,0.102954419 6.52689065,0.241441779 C5.73724089,0.381838112 5.0022232,0.611088491 4.28478924,0.972448523 C3.57955892,1.32769116 2.93425328,1.79170191 2.37472302,2.34534765 C1.81528025,2.89886323 1.34633686,3.53724137 0.987357441,4.23488446 C0.621860662,4.94515281 0.390122758,5.67277546 0.248140644,6.45454355 C0.108345562,7.22446733 0.0620242259,8.00979305 0.0407225348,8.78835059 C0.0310121129,9.14576252 0.0268130116,9.50321783 0.0246259797,9.86071653 C0.0220015413,10.2852028 -8.8817842e-16,10.81247 -8.8817842e-16,11.236913 L-8.8817842e-16,19.7405228 L0.0222202445,24.6183409 C0.0222202445,25.0433478 0.022045282,25.4683548 0.0246259797,25.8933617 C0.0268130116,26.2513811 0.0310121129,26.6093136 0.0407662754,26.9672028 C0.0620242259,27.7471053 0.108433044,28.5338194 0.248359347,29.3050881 C0.39029772,30.0874636 0.621991884,30.8156936 0.987182478,31.526526 C1.34620564,32.2252971 1.81523651,32.8646297 2.37472302,33.4189697 C2.93420954,33.9733096 3.57934022,34.4378843 4.28443932,34.7936042 C5.00231068,35.1557018 5.7376783,35.3853427 6.5278092,35.5259559 C7.30591143,35.6644867 8.0996728,35.7104322 8.88647941,35.7314743 C9.24773335,35.7411493 9.60898728,35.745271 9.97037244,35.7474402 L10.6137972,35.74968 L24.8292862,35.75 C25.2574195,35.75 25.6855529,35.75 26.1136863,35.7474402 C26.4743278,35.745271 26.8348819,35.7411493 27.195436,35.7314743 C27.9810179,35.7103888 28.7735108,35.6643999 29.5504758,35.5257824 C30.3385946,35.3851691 31.0721688,35.155615 31.7882468,34.7937344 C32.4921212,34.4380579 33.1361584,33.9733963 33.6945514,33.4189697 C34.2529444,32.8647165 34.7209692,32.2254707 35.0792925,31.5268297 C35.444002,30.8156502 35.6753024,30.0870731 35.8170221,29.304177 C35.9565548,28.533212 36.0028324,27.7468016 36.0240466,26.9672028 C36.0338007,26.6092702 36.0379561,26.2513377 36.0400994,25.8933617 L36.0422465,25.2558513 L36.0425532,11.1340019 C36.0425532,10.7096024 36.0425532,10.2851595 36.0400994,9.86071653 C36.0379561,9.50317444 36.0338007,9.14571913 36.0240028,8.78835059 C36.0028324,8.00944596 35.956511,7.22385993 35.8168472,6.45363245 C35.675215,5.67229822 35.4439145,4.94510942 35.0794237,4.23518816 C34.7211004,3.53741491 34.2530318,2.89890662 33.6945514,2.34534765 C33.1362021,1.79178868 32.4922962,1.32782132 31.788553,0.972622066 C31.0720814,0.61100172 30.3381572,0.381664569 29.5495572,0.24122485 C28.7729422,0.102911033 27.9807117,0.0570522801 27.195436,0.0360101844 C26.8348819,0.026335159 26.4743278,0.0222568971 26.1136863,0.0200442231 C25.6855529,0.0174410773 25.2574195,0.0176580061 24.8292862,0.0176580061 L19.85825,0 Z" id="path-6"></path>
        <filter x="-26.0%" y="-26.2%" width="152.1%" height="152.5%" filterUnits="objectBoundingBox" id="filter-7">
            <feOffset dx="0" dy="0" in="SourceAlpha" result="shadowOffsetOuter1"></feOffset>
            <feGaussianBlur stdDeviation="4" in="shadowOffsetOuter1" result="shadowBlurOuter1"></feGaussianBlur>
            <feComposite in="shadowBlurOuter1" in2="SourceAlpha" operator="out" result="shadowBlurOuter1"></feComposite>
            <feColorMatrix values="0 0 0 0 0.999901831   0 0 0 0 1   0 0 0 0 0.999879897  0 0 0 1 0" type="matrix" in="shadowBlurOuter1"></feColorMatrix>
        </filter>
        <radialGradient cx="45.2134997%" cy="34.7333123%" fx="45.2134997%" fy="34.7333123%" r="46.8928966%" gradientTransform="translate(0.4521, 0.3473), scale(1, 0.7541), rotate(90), translate(-0.4521, -0.3473)" id="radialGradient-8">
            <stop stop-color="#FFFFFF" offset="0%"></stop>
            <stop stop-color="#FFFFFF" stop-opacity="0.7" offset="72.3175534%"></stop>
            <stop stop-color="#FFFFFF" stop-opacity="0.35" offset="100%"></stop>
        </radialGradient>
        <path d="M19.7158102,37.9460571 L0.840911434,53.625 L-1.83319981,38.3335166 L17.2188206,33.2205879 C17.1044051,32.8119311 17.0092519,32.3936125 16.934556,31.9664759 C16.6978455,30.6128843 16.6842267,29.2716581 16.8670673,27.9811477 L-2.81582447,24.8327151 L-2.460499,11.3335088 L18.3775124,23.5319629 C19.2855164,21.9209906 20.5395255,20.5165261 22.0577701,19.4363174 L7.1706238,-1.8667169 L21.2747012,-1.34812 L26.1325766,17.5355903 C26.4506508,17.4527732 26.7743926,17.3818343 27.10341,17.3233382 C28.9349982,16.9976999 30.7437578,17.090788 32.4330906,17.5344028 L38.5588378,-5.90513393 L42.0764628,14.2098496 L37.3023642,20.0578259 C39.502043,21.9028427 41.0902724,24.5128798 41.6260384,27.5765736 C42.8283001,34.4515176 38.2755494,41.0074732 31.4571845,42.2197114 C31.0405045,42.293793 30.625006,42.3462035 30.2118263,42.377746 L30.2118263,38.4465263 C30.4016968,38.4256067 30.5921554,38.3982651 30.7829731,38.3643396 C35.4895982,37.527548 38.6323004,33.0020605 37.8023954,28.2563797 C36.9724904,23.5106989 32.4842465,20.3419184 27.7776214,21.17871 C23.0709963,22.0155015 19.9282941,26.5409891 20.7581991,31.2866699 C21.4815753,35.4231829 24.9843812,38.3616431 28.9885799,38.4937156 L28.9885799,42.4107584 C25.3542475,42.329398 21.9942838,40.6512168 19.7158102,37.9460571 Z" id="path-9"></path>
    </defs>
    <g id="Marketcircle-Branding-Guidelines" stroke="none" stroke-width="1" fill="none" fill-rule="evenodd">
        <g id="Daylite-Internal-Branding-Guidelines-v2021.11" transform="translate(-517, -652)">
            <g id="logoDaylite" transform="translate(521.1588, 656.125)">
                <g id="Daylite-Icon">
                    <mask id="mask-2" fill="white">
                        <use xlink:href="#path-1"></use>
                    </mask>
                    <use id="Mask" fill="#FFFFFF" xlink:href="#path-1"></use>
                    <g id="Icon-Center-Image-Artwork" mask="url(#mask-2)">
                        <g id="Icon">
                            <path d="M36.0425532,11.1340019 C36.0425532,10.7096024 36.0425532,10.2851595 36.0400994,9.86071653 C36.0379561,9.50317444 36.0338007,9.14571913 36.0240028,8.78835059 C36.0028324,8.00944596 35.956511,7.22385993 35.8168472,6.45363245 C35.675215,5.67229822 35.4439145,4.94510942 35.0794237,4.23518816 C34.7211004,3.53741491 34.2530318,2.89890662 33.6945514,2.34534765 C33.1362021,1.79178868 32.4922962,1.32782132 31.788553,0.972622066 C31.0720814,0.61100172 30.3381572,0.381664569 29.5495572,0.24122485 C28.7729422,0.102911033 27.9807117,0.0570522801 27.195436,0.0360101844 C26.8348819,0.026335159 26.4743278,0.0222568971 26.1136863,0.0200442231 C25.6855529,0.0174410773 25.2574195,0.0176580061 24.8292862,0.0176580061 L19.85825,0 L16.1402957,0 L11.257222,0.0176580061 C10.8282576,0.0176580061 10.3992931,0.0174410773 9.9703287,0.0200442231 C9.60894354,0.0222568971 9.24773335,0.026335159 8.88647941,0.0360101844 C8.09936661,0.0570522801 7.3053428,0.102954419 6.52689065,0.241441779 C5.73724089,0.381838112 5.0022232,0.611088491 4.28478924,0.972448523 C3.57955892,1.32769116 2.93425328,1.79170191 2.37472302,2.34534765 C1.81528025,2.89886323 1.34633686,3.53724137 0.987357441,4.23488446 C0.621860662,4.94515281 0.390122758,5.67277546 0.248140644,6.45454355 C0.108345562,7.22446733 0.0620242259,8.00979305 0.0407225348,8.78835059 C0.0310121129,9.14576252 0.0268130116,9.50321783 0.0246259797,9.86071653 C0.0220015413,10.2852028 0,10.81247 0,11.236913 L0,16.0132518 L0,19.7405228 L0.0222202445,24.6183409 C0.0222202445,25.0433478 0.022045282,25.4683548 0.0246259797,25.8933617 C0.0268130116,26.2513811 0.0310121129,26.6093136 0.0407662754,26.9672028 C0.0620242259,27.7471053 0.108433044,28.5338194 0.248359347,29.3050881 C0.39029772,30.0874636 0.621991884,30.8156936 0.987182478,31.526526 C1.34620564,32.2252971 1.81523651,32.8646297 2.37472302,33.4189697 C2.93420954,33.9733096 3.57934022,34.4378843 4.28443932,34.7936042 C5.00231068,35.1557018 5.7376783,35.3853427 6.5278092,35.5259559 C7.30591143,35.6644867 8.0996728,35.7104322 8.88647941,35.7314743 C9.24773335,35.7411493 9.60898728,35.745271 9.97037244,35.7474402 C10.3993369,35.75 10.8282576,35.75 11.257222,35.75 L16.18443,35.75 L19.9116136,35.75 L24.8292862,35.75 C25.2574195,35.75 25.6855529,35.75 26.1136863,35.7474402 C26.4743278,35.745271 26.8348819,35.7411493 27.195436,35.7314743 C27.9810179,35.7103888 28.7735108,35.6643999 29.5504758,35.5257824 C30.3385946,35.3851691 31.0721688,35.155615 31.7882468,34.7937344 C32.4921212,34.4380579 33.1361584,33.9733963 33.6945514,33.4189697 C34.2529444,32.8647165 34.7209692,32.2254707 35.0792925,31.5268297 C35.444002,30.8156502 35.6753024,30.0870731 35.8170221,29.304177 C35.9565548,28.533212 36.0028324,27.7468016 36.0240466,26.9672028 C36.0338007,26.6092702 36.0379561,26.2513377 36.0400994,25.8933617 C36.0425532,25.4683548 36.0425532,25.0433478 36.0425532,24.6183409 C36.0425532,24.6183409 36.0425532,19.8266435 36.0425532,19.7405228 L36.0425532,16.0093471 C36.0425532,15.9457435 36.0425532,11.1340019 36.0425532,11.1340019" id="Mask-(Temporary)"></path>
                            <mask id="mask-5" fill="white">
                                <use xlink:href="#path-4"></use>
                            </mask>
                            <use id="Background" fill="url(#linearGradient-3)" xlink:href="#path-4"></use>
                            <g id="Inner-Glow" opacity="0.75" style="mix-blend-mode: soft-light;" mask="url(#mask-5)">
                                <use fill="black" fill-opacity="1" filter="url(#filter-7)" xlink:href="#path-6"></use>
                                <use fill-opacity="0.546694" fill="#FFFFFF" fill-rule="evenodd" xlink:href="#path-6"></use>
                            </g>
                            <g id="Rays" mask="url(#mask-5)">
                                <use fill="url(#radialGradient-8)" xlink:href="#path-9"></use>
                                <use fill-opacity="0.1" fill="#FFFFFF" xlink:href="#path-9"></use>
                            </g>
                        </g>
                    </g>
                </g>
                <g id="Daylite-Wordmark" transform="translate(47.1742, 8.883)" fill="#FFFFFF" fill-opacity="0.9" fill-rule="nonzero">
                    <path d="M6.86,19.992 C8.52133333,19.992 9.95866667,19.7586667 11.172,19.292 C12.3853333,18.8253333 13.384,18.1486667 14.168,17.262 C14.952,16.3753333 15.5306667,15.2833333 15.904,13.986 C16.2773333,12.6886667 16.464,11.2 16.464,9.52 C16.464,6.30933333 15.6333333,3.92 13.972,2.352 C12.3106667,0.784 9.94,0 6.86,0 L0,0 L0,19.992 L6.86,19.992 Z M7.084,17.752 L2.66,17.752 L2.66,2.24 L7.14,2.24 C8.372,2.24 9.408,2.41266667 10.248,2.758 C11.088,3.10333333 11.774,3.60733333 12.306,4.27 C12.838,4.93266667 13.2206667,5.73533333 13.454,6.678 C13.6873333,7.62066667 13.804,8.68933333 13.804,9.884 C13.804,11.116 13.678,12.166 13.426,13.034 C13.174,13.902 12.852,14.6253333 12.46,15.204 C12.068,15.7826667 11.6246667,16.24 11.13,16.576 C10.6353333,16.912 10.136,17.1686667 9.632,17.346 C9.128,17.5233333 8.652,17.6353333 8.204,17.682 C7.756,17.7286667 7.38266667,17.752 7.084,17.752 Z M30.436,20.3 C31.164,20.3 31.7333333,20.1786667 32.144,19.936 L32.144,18.088 C31.864,18.1813333 31.6213333,18.228 31.416,18.228 C31.0426667,18.228 30.8233333,18.0973333 30.758,17.836 C30.6926667,17.5746667 30.66,17.164 30.66,16.604 L30.66,9.156 C30.66,8.316 30.5013333,7.63466667 30.184,7.112 C29.8666667,6.58933333 29.4466667,6.18333333 28.924,5.894 C28.4013333,5.60466667 27.818,5.41333333 27.174,5.32 C26.53,5.22666667 25.8813333,5.18 25.228,5.18 C24.4066667,5.18 23.6366667,5.264 22.918,5.432 C22.1993333,5.6 21.56,5.87533333 21,6.258 C20.44,6.64066667 19.992,7.14 19.656,7.756 C19.32,8.372 19.1333333,9.128 19.096,10.024 L21.476,10.024 C21.532,8.96 21.896,8.23666667 22.568,7.854 C23.24,7.47133333 24.08,7.28 25.088,7.28 C25.4613333,7.28 25.8393333,7.308 26.222,7.364 C26.6046667,7.42 26.95,7.532 27.258,7.7 C27.566,7.868 27.818,8.11066667 28.014,8.428 C28.21,8.74533333 28.308,9.16533333 28.308,9.688 C28.308,10.136 28.1773333,10.4766667 27.916,10.71 C27.6546667,10.9433333 27.3,11.1206667 26.852,11.242 C26.404,11.3633333 25.886,11.4566667 25.298,11.522 C24.71,11.5873333 24.0893333,11.6853333 23.436,11.816 C22.82,11.928 22.218,12.068 21.63,12.236 C21.042,12.404 20.5193333,12.6513333 20.062,12.978 C19.6046667,13.3046667 19.236,13.7293333 18.956,14.252 C18.676,14.7746667 18.536,15.4466667 18.536,16.268 C18.536,16.996 18.662,17.6166667 18.914,18.13 C19.166,18.6433333 19.5066667,19.0586667 19.936,19.376 C20.3653333,19.6933333 20.874,19.9266667 21.462,20.076 C22.05,20.2253333 22.6706667,20.3 23.324,20.3 C24.332,20.3 25.27,20.1273333 26.138,19.782 C27.006,19.4366667 27.7666667,18.872 28.42,18.088 C28.42,18.872 28.602,19.4366667 28.966,19.782 C29.33,20.1273333 29.82,20.3 30.436,20.3 Z M23.856,18.228 C23.4826667,18.228 23.128,18.1906667 22.792,18.116 C22.456,18.0413333 22.162,17.92 21.91,17.752 C21.658,17.584 21.4526667,17.3646667 21.294,17.094 C21.1353333,16.8233333 21.056,16.492 21.056,16.1 C21.056,15.5026667 21.1913333,15.0313333 21.462,14.686 C21.7326667,14.3406667 22.0826667,14.0746667 22.512,13.888 C22.9413333,13.7013333 23.4266667,13.566 23.968,13.482 C24.5093333,13.398 25.046,13.3233333 25.578,13.258 C26.11,13.1926667 26.6186667,13.1086667 27.104,13.006 C27.5893333,12.9033333 27.9813333,12.74 28.28,12.516 L28.28,14.952 C28.28,15.288 28.196,15.6473333 28.028,16.03 C27.86,16.4126667 27.5986667,16.7673333 27.244,17.094 C26.8893333,17.4206667 26.432,17.6913333 25.872,17.906 C25.312,18.1206667 24.64,18.228 23.856,18.228 Z M35.84,25.788 C36.3626667,25.788 36.8246667,25.718 37.226,25.578 C37.6273333,25.438 37.9913333,25.214 38.318,24.906 C38.6446667,24.598 38.9433333,24.2013333 39.214,23.716 C39.4846667,23.2306667 39.76,22.6333333 40.04,21.924 L46.34,5.516 L43.82,5.516 L39.76,17.36 L39.704,17.36 L35.476,5.516 L32.788,5.516 L38.528,19.908 L37.548,22.344 C37.38,22.7733333 37.1326667,23.1046667 36.806,23.338 C36.4793333,23.5713333 36.0733333,23.688 35.588,23.688 C35.4013333,23.688 35.1726667,23.6553333 34.902,23.59 C34.6313333,23.5246667 34.3933333,23.4453333 34.188,23.352 L34.188,25.536 C34.4493333,25.6293333 34.72,25.6946667 35,25.732 C35.28,25.7693333 35.56,25.788 35.84,25.788 Z M50.876,19.992 L50.876,0 L48.496,0 L48.496,19.992 L50.876,19.992 Z M57.092,2.912 L57.092,0 L54.712,0 L54.712,2.912 L57.092,2.912 Z M57.092,19.992 L57.092,5.516 L54.712,5.516 L54.712,19.992 L57.092,19.992 Z M66.976,19.992 L66.976,17.892 L65.884,17.892 C65.5106667,17.892 65.2073333,17.878 64.974,17.85 C64.7406667,17.822 64.5586667,17.7613333 64.428,17.668 C64.2973333,17.5746667 64.2086667,17.444 64.162,17.276 C64.1153333,17.108 64.092,16.884 64.092,16.604 L64.092,7.616 L66.976,7.616 L66.976,5.516 L64.092,5.516 L64.092,1.176 L61.712,1.176 L61.712,5.516 L59.248,5.516 L59.248,7.616 L61.712,7.616 L61.712,16.828 C61.712,17.5 61.7773333,18.0413333 61.908,18.452 C62.0386667,18.8626667 62.2393333,19.18 62.51,19.404 C62.7806667,19.628 63.1353333,19.782 63.574,19.866 C64.0126667,19.95 64.54,19.992 65.156,19.992 L66.976,19.992 Z M75.768,20.3 C77.4106667,20.3 78.7733333,19.8893333 79.856,19.068 C80.9386667,18.2466667 81.6386667,17.024 81.956,15.4 L79.604,15.4 C79.3986667,16.352 78.974,17.0613333 78.33,17.528 C77.686,17.9946667 76.86,18.228 75.852,18.228 C75.068,18.228 74.3866667,18.0973333 73.808,17.836 C73.2293333,17.5746667 72.7533333,17.2246667 72.38,16.786 C72.0066667,16.3473333 71.736,15.8433333 71.568,15.274 C71.4,14.7046667 71.3253333,14.1026667 71.344,13.468 L82.18,13.468 C82.2173333,12.5906667 82.138,11.6666667 81.942,10.696 C81.746,9.72533333 81.3913333,8.82933333 80.878,8.008 C80.3646667,7.18666667 79.6833333,6.51 78.834,5.978 C77.9846667,5.446 76.916,5.18 75.628,5.18 C74.6386667,5.18 73.7286667,5.36666667 72.898,5.74 C72.0673333,6.11333333 71.3486667,6.636 70.742,7.308 C70.1353333,7.98 69.664,8.77333333 69.328,9.688 C68.992,10.6026667 68.824,11.6106667 68.824,12.712 C68.8613333,13.8133333 69.0246667,14.8306667 69.314,15.764 C69.6033333,16.6973333 70.0373333,17.5 70.616,18.172 C71.1946667,18.844 71.9086667,19.3666667 72.758,19.74 C73.6073333,20.1133333 74.6106667,20.3 75.768,20.3 Z M79.66,11.368 L71.344,11.368 C71.3813333,10.808 71.5026667,10.2806667 71.708,9.786 C71.9133333,9.29133333 72.1933333,8.85733333 72.548,8.484 C72.9026667,8.11066667 73.3273333,7.81666667 73.822,7.602 C74.3166667,7.38733333 74.872,7.28 75.488,7.28 C76.0853333,7.28 76.6313333,7.38733333 77.126,7.602 C77.6206667,7.81666667 78.05,8.106 78.414,8.47 C78.778,8.834 79.0673333,9.268 79.282,9.772 C79.4966667,10.276 79.6226667,10.808 79.66,11.368 Z" id="Daylite-(Helvetica-Neue-28)"></path>
                </g>
            </g>
        </g>
    </g>
</svg>