<svg width="1718" height="320" viewBox="0 0 1718 320" fill="none" xmlns="http://www.w3.org/2000/svg">
<path d="M570.85 242.19C552.87 261.62 530.04 271.33 502.35 271.33C475.95 271.33 453.48 262.05 434.93 243.49C416.37 224.93 407.09 202.46 407.09 176.07C407.09 149.83 416.37 127.43 434.93 108.87C453.48 90.3201 475.95 81.04 502.35 81.04C528.59 81.04 550.99 90.3201 569.55 108.87C570.27 109.6 570.92 110.25 571.5 110.83L559.76 122.14C559.18 121.56 558.6 120.98 558.02 120.4C542.65 105.03 524.09 97.3501 502.35 97.3501C480.45 97.3501 461.82 105.03 446.45 120.4C431.08 135.77 423.4 154.33 423.4 176.07C423.4 197.97 431.08 216.6 446.45 231.97C461.82 247.33 480.45 255.02 502.35 255.02C522.5 255.02 539.9 248.42 554.54 235.23V184.34H499.3V168.03H570.85V242.19ZM615.87 165.63V265.89H599.56V124.53H615.87V138.67C629.5 125.62 645.81 119.1 664.8 119.1V135.41C649.72 135.41 636.89 140.7 626.31 151.28C621.96 155.63 618.48 160.42 615.87 165.63ZM824.65 195.21C824.65 216.23 817.22 234.18 802.35 249.04C787.49 263.9 769.55 271.33 748.53 271.33C727.51 271.33 709.57 263.9 694.71 249.04C679.84 234.18 672.41 216.23 672.41 195.21C672.41 174.19 679.84 156.25 694.71 141.39C709.57 126.53 727.51 119.1 748.53 119.1C769.55 119.1 787.49 126.53 802.35 141.39C817.22 156.25 824.65 174.19 824.65 195.21ZM748.53 135.41C732 135.41 717.9 141.24 706.23 152.91C694.56 164.58 688.72 178.69 688.72 195.21C688.72 211.74 694.56 225.84 706.23 237.51C717.9 249.18 732 255.02 748.53 255.02C765.06 255.02 779.16 249.18 790.83 237.51C802.5 225.84 808.34 211.74 808.34 195.21C808.34 178.69 802.5 164.58 790.83 152.91C779.16 141.24 765.06 135.41 748.53 135.41ZM962.75 224.79V124.53H979.06V265.89H962.75V251.76C949.12 264.81 932.81 271.33 913.82 271.33C894.24 271.33 877.57 264.44 863.79 250.67C850.02 236.89 843.13 220.22 843.13 200.65V124.53H859.44V200.65C859.44 215.73 864.74 228.56 875.32 239.14C885.9 249.73 898.74 255.02 913.82 255.02C928.89 255.02 941.72 249.73 952.31 239.14C956.66 234.79 960.14 230.01 962.75 224.79ZM1029.95 220.66C1032.85 226.75 1036.91 232.4 1042.13 237.62C1053.73 249.22 1067.79 255.02 1084.32 255.02C1100.85 255.02 1114.95 249.18 1126.62 237.51C1138.29 225.84 1144.12 211.74 1144.12 195.21C1144.12 178.69 1138.29 164.58 1126.62 152.91C1114.95 141.24 1100.85 135.41 1084.32 135.41C1067.79 135.41 1053.73 141.28 1042.13 153.02C1036.91 158.1 1032.85 163.68 1029.95 169.77V220.66ZM1029.95 303.95H1013.64V124.53H1029.95V141.93C1045.17 126.71 1063.29 119.1 1084.32 119.1C1105.34 119.1 1123.28 126.53 1138.14 141.39C1153 156.25 1160.43 174.19 1160.43 195.21C1160.43 216.23 1153 234.18 1138.14 249.04C1123.28 263.9 1105.34 271.33 1084.32 271.33C1063.29 271.33 1045.17 263.72 1029.95 248.49V303.95ZM1200.89 265.89H1184.58V86.4702H1293.32V102.79H1200.89V168.03H1271.57V184.34H1200.89V265.89ZM1328.11 86.4702V265.89H1311.8V86.4702H1328.11ZM1504.27 195.21C1504.27 216.23 1496.84 234.18 1481.98 249.04C1467.12 263.9 1449.18 271.33 1428.16 271.33C1407.13 271.33 1389.19 263.9 1374.33 249.04C1359.47 234.18 1352.04 216.23 1352.04 195.21C1352.04 174.19 1359.47 156.25 1374.33 141.39C1389.19 126.53 1407.13 119.1 1428.16 119.1C1449.18 119.1 1467.12 126.53 1481.98 141.39C1496.84 156.25 1504.27 174.19 1504.27 195.21ZM1428.16 135.41C1411.63 135.41 1397.53 141.24 1385.86 152.91C1374.19 164.58 1368.35 178.69 1368.35 195.21C1368.35 211.74 1374.19 225.84 1385.86 237.51C1397.53 249.18 1411.63 255.02 1428.16 255.02C1444.69 255.02 1458.78 249.18 1470.45 237.51C1482.13 225.84 1487.96 211.74 1487.96 195.21C1487.96 178.69 1482.13 164.58 1470.45 152.91C1458.78 141.24 1444.69 135.41 1428.16 135.41ZM1612.8 156.07L1573 265.89H1559.08L1507.75 124.53H1525.37L1566.25 238.71L1606.71 124.53H1618.89L1659.77 238.71L1700.22 124.53H1717.84L1666.51 265.89H1652.59L1612.8 156.07Z" fill="#00C298"/>
<circle cx="159.045" cy="160.045" r="159.045" fill="white"/>
<path fill-rule="evenodd" clip-rule="evenodd" d="M159.045 1C71.2089 1 0 72.2089 0 160.045C0 212.798 25.6946 259.542 65.2341 288.474L80.6199 288.562C112.522 288.618 156.518 275.571 152.982 235.81C152.505 230.445 150.997 225.623 148.237 221.189C136.155 206.346 119.084 209.051 103.687 217.121C103.754 219.393 103.565 221.71 103.089 224.015C99.841 239.678 84.5217 249.754 68.8478 246.518C55.7345 243.802 29.4967 222.02 20.6399 211.9C42.6211 206.989 60.5342 186.704 80.5866 189.774C89.532 191.149 96.6042 196.913 100.462 204.495C106.691 201.591 113.11 199.474 119.461 198.509C109.019 192.656 98.0785 187.003 90.0753 180.375C74.8004 167.727 65.6332 147.674 63.6601 127.057C51.2007 124.684 40.9916 114.497 40.4263 101.362C39.5617 81.0878 61.6648 65.4914 68.9475 44.1753C78.0482 54.0852 96.837 82.5399 98.1118 95.8749C99.4641 110.208 90.1418 123.088 76.6516 126.635C78.5027 143.551 86.0625 160.233 98.3445 170.409C104.74 175.708 112.234 180.042 119.86 184.243C117.931 177.226 117.566 169.744 119.195 162.04C109.097 154.625 104.242 141.278 109.152 129.24C116.823 110.463 143.426 105.519 158.923 89.1686C163.069 101.983 168.279 135.669 163.867 148.317C159.111 161.952 145.2 169.777 131.422 167.306C129.958 178.191 133.905 188.189 140.744 196.337C146.275 200.028 151.341 204.129 155.465 209.04C157.249 200.782 160.131 192.745 164.332 184.764C166.405 180.474 168.556 176.916 170.773 173.956C176.747 164.867 183.465 156.442 189.24 147.153C199.449 130.748 202.575 116.071 199.704 96.8171L199.416 94.8773C185.338 97.2162 171.349 88.8472 167.026 74.8249C163.08 62.033 169.509 28.5457 174.109 15.8979C189.007 32.7912 215.411 38.6994 222.384 57.7542C226.773 69.7258 221.719 82.6175 211.753 89.7561L212.518 94.9106C215.844 117.202 212.075 134.971 200.247 153.993C199.017 155.966 197.742 157.917 196.434 159.834C210.323 158.759 225.399 162.86 240.463 154.115C235.297 146.954 233.457 137.643 236.705 128.852C243.755 109.831 270.181 104.011 285.135 87.1734C289.691 99.8323 296.009 133.342 292.018 146.122C287.241 161.397 270.991 169.91 255.727 165.144C253.953 164.59 252.268 163.88 250.672 163.038C241.826 169.29 232.238 172.382 220.721 172.804C212.407 173.114 201.81 171.44 193.94 173.18C188.475 174.389 184.407 177.559 181.215 181.616C179.485 184.287 177.845 187.003 176.315 189.808C170.562 200.438 167.569 211.024 166.505 222.297C179.297 210.802 199.948 207.876 218.061 212.82C219.69 204.163 225.144 196.403 233.746 192.701C252.368 184.653 274.826 199.751 297.328 198.953C291.32 210.991 271.445 238.692 259.44 244.622C245.096 251.717 227.727 245.853 220.621 231.509C219.834 229.924 219.202 228.294 218.726 226.631C198.618 219.304 170.351 224.049 167.436 247.449C174.785 278.054 212.042 288.84 240.851 288.684L252.59 288.662C292.285 259.742 318.09 212.909 318.09 160.045C318.09 72.2089 246.881 1 159.045 1V1ZM86.1623 301.432C95.407 306.209 105.184 310.1 115.382 313.016L119.339 310.422C129.582 303.738 137.696 294.493 143.548 283.929C127.52 295.623 105.583 300.723 86.1623 301.432V301.432ZM132.53 316.873C141.154 318.314 150.011 319.079 159.045 319.079C168.855 319.079 178.466 318.181 187.777 316.485C175.406 306.52 166.184 293.218 160.397 278.508C154.533 293.406 145.145 306.863 132.53 316.873ZM204.57 312.461C214.114 309.612 223.293 305.899 231.994 301.399C212.507 300.224 192.067 294.781 176.792 283.098C182.678 294.005 190.947 303.56 201.444 310.422L204.57 312.461ZM277.398 110.507C269.328 115.772 252.401 124.363 249.043 133.419C246.05 141.522 251.803 150.135 259.651 152.585C267.987 155.19 276.854 150.545 279.459 142.198C281.244 136.468 279.681 122.645 277.398 110.507V110.507ZM44.7938 216.445C53.318 211.944 69.0363 201.314 78.5914 202.777C87.1267 204.085 91.871 213.307 90.2083 221.355C88.4347 229.901 80.0657 235.4 71.5082 233.626C65.6332 232.418 54.3046 224.337 44.7938 216.445V216.445ZM70.8431 68.6839C65.4448 76.665 53.1628 91.1417 53.5729 100.797C53.9387 109.421 62.5849 115.14 70.7655 114.364C79.467 113.533 85.8408 105.818 85.0094 97.1164C84.4441 91.1306 77.6492 78.9928 70.8431 68.6839V68.6839ZM230.719 218.185L230.875 217.908L230.731 217.83C230.875 212.365 233.646 207.078 238.955 204.772C247.834 200.948 265.736 207.255 275.103 209.461C267.909 219.493 258.986 230.168 253.599 232.839C245.773 236.708 236.284 233.504 232.415 225.678C231.263 223.35 230.708 220.757 230.719 218.185ZM150.421 112.236C142.196 117.235 124.992 125.261 121.334 134.217C118.075 142.21 123.551 151.011 131.3 153.716C139.558 156.598 148.57 152.23 151.441 143.983C153.425 138.308 152.305 124.452 150.421 112.236V112.236ZM181.769 39.2648C189.816 44.5522 206.71 53.2095 210.035 62.2769C213.006 70.3909 207.22 78.9817 199.36 81.4093C191.014 83.9809 182.168 79.2921 179.596 70.9452C177.823 65.2033 179.441 51.3916 181.769 39.2648V39.2648Z" fill="#00C298"/>
</svg>
