<svg
  viewBox="0 0 1718 319"
  fill="none"
  xmlns="http://www.w3.org/2000/svg"
>
  <path
    d="M570.85 242.19C552.87 261.62 530.04 271.33 502.35 271.33C475.95 271.33 453.48 262.05 434.93 243.49C416.37 224.93 407.09 202.46 407.09 176.07C407.09 149.83 416.37 127.43 434.93 108.87C453.48 90.3201 475.95 81.04 502.35 81.04C528.59 81.04 550.99 90.3201 569.55 108.87C570.27 109.6 570.92 110.25 571.5 110.83L559.76 122.14C559.18 121.56 558.6 120.98 558.02 120.4C542.65 105.03 524.09 97.3501 502.35 97.3501C480.45 97.3501 461.82 105.03 446.45 120.4C431.08 135.77 423.4 154.33 423.4 176.07C423.4 197.97 431.08 216.6 446.45 231.97C461.82 247.33 480.45 255.02 502.35 255.02C522.5 255.02 539.9 248.42 554.54 235.23V184.34H499.3V168.03H570.85V242.19V242.19ZM615.87 165.63V265.89H599.56V124.53H615.87V138.67C629.5 125.62 645.81 119.1 664.8 119.1V135.41C649.72 135.41 636.89 140.7 626.31 151.28C621.96 155.63 618.48 160.42 615.87 165.63V165.63ZM824.65 195.21C824.65 216.23 817.22 234.18 802.35 249.04C787.49 263.9 769.55 271.33 748.53 271.33C727.51 271.33 709.57 263.9 694.71 249.04C679.84 234.18 672.41 216.23 672.41 195.21C672.41 174.19 679.84 156.25 694.71 141.39C709.57 126.53 727.51 119.1 748.53 119.1C769.55 119.1 787.49 126.53 802.35 141.39C817.22 156.25 824.65 174.19 824.65 195.21ZM748.53 135.41C732 135.41 717.9 141.24 706.23 152.91C694.56 164.58 688.72 178.69 688.72 195.21C688.72 211.74 694.56 225.84 706.23 237.51C717.9 249.18 732 255.02 748.53 255.02C765.06 255.02 779.16 249.18 790.83 237.51C802.5 225.84 808.34 211.74 808.34 195.21C808.34 178.69 802.5 164.58 790.83 152.91C779.16 141.24 765.06 135.41 748.53 135.41ZM962.75 224.79V124.53H979.06V265.89H962.75V251.76C949.12 264.81 932.81 271.33 913.82 271.33C894.24 271.33 877.57 264.44 863.79 250.67C850.02 236.89 843.13 220.22 843.13 200.65V124.53H859.44V200.65C859.44 215.73 864.74 228.56 875.32 239.14C885.9 249.73 898.74 255.02 913.82 255.02C928.89 255.02 941.72 249.73 952.31 239.14C956.66 234.79 960.14 230.01 962.75 224.79ZM1029.95 220.66C1032.85 226.75 1036.91 232.4 1042.13 237.62C1053.73 249.22 1067.79 255.02 1084.32 255.02C1100.85 255.02 1114.95 249.18 1126.62 237.51C1138.29 225.84 1144.12 211.74 1144.12 195.21C1144.12 178.69 1138.29 164.58 1126.62 152.91C1114.95 141.24 1100.85 135.41 1084.32 135.41C1067.79 135.41 1053.73 141.28 1042.13 153.02C1036.91 158.1 1032.85 163.68 1029.95 169.77V220.66V220.66ZM1029.95 303.95H1013.64V124.53H1029.95V141.93C1045.17 126.71 1063.29 119.1 1084.32 119.1C1105.34 119.1 1123.28 126.53 1138.14 141.39C1153 156.25 1160.43 174.19 1160.43 195.21C1160.43 216.23 1153 234.18 1138.14 249.04C1123.28 263.9 1105.34 271.33 1084.32 271.33C1063.29 271.33 1045.17 263.72 1029.95 248.49V303.95ZM1200.89 265.89H1184.58V86.4702H1293.32V102.79H1200.89V168.03H1271.57V184.34H1200.89V265.89ZM1328.11 86.4702V265.89H1311.8V86.4702H1328.11ZM1504.27 195.21C1504.27 216.23 1496.84 234.18 1481.98 249.04C1467.12 263.9 1449.18 271.33 1428.16 271.33C1407.13 271.33 1389.19 263.9 1374.33 249.04C1359.47 234.18 1352.04 216.23 1352.04 195.21C1352.04 174.19 1359.47 156.25 1374.33 141.39C1389.19 126.53 1407.13 119.1 1428.16 119.1C1449.18 119.1 1467.12 126.53 1481.98 141.39C1496.84 156.25 1504.27 174.19 1504.27 195.21ZM1428.16 135.41C1411.63 135.41 1397.53 141.24 1385.86 152.91C1374.19 164.58 1368.35 178.69 1368.35 195.21C1368.35 211.74 1374.19 225.84 1385.86 237.51C1397.53 249.18 1411.63 255.02 1428.16 255.02C1444.69 255.02 1458.78 249.18 1470.45 237.51C1482.13 225.84 1487.96 211.74 1487.96 195.21C1487.96 178.69 1482.13 164.58 1470.45 152.91C1458.78 141.24 1444.69 135.41 1428.16 135.41ZM1612.8 156.07L1573 265.89H1559.08L1507.75 124.53H1525.37L1566.25 238.71L1606.71 124.53H1618.89L1659.77 238.71L1700.22 124.53H1717.84L1666.51 265.89H1652.59L1612.8 156.07Z"
    fill="#00C298"
  />
  <path
    fill-rule="evenodd"
    clip-rule="evenodd"
    d="M159.05 0C71.21 0 0 71.21 0 159.04C0 211.8 25.69 258.54 65.23 287.47L80.63 287.57C112.53 287.62 156.52 274.58 152.99 234.82C152.51 229.45 151 224.63 148.24 220.19C136.15 205.35 119.09 208.06 103.69 216.13C103.75 218.4 103.57 220.72 103.09 223.02C99.85 238.69 84.52 248.76 68.85 245.52C55.74 242.81 29.5 221.03 20.64 210.9C42.62 205.99 60.53 185.71 80.59 188.78C89.54 190.15 96.6 195.91 100.46 203.5C106.69 200.6 113.11 198.48 119.47 197.51C109.02 191.66 98.08 186.01 90.08 179.38C74.81 166.73 65.64 146.67 63.66 126.07C51.2 123.69 40.99 113.5 40.43 100.36C39.56 80.0901 61.67 64.5002 68.95 43.1802C78.05 53.0902 96.84 81.5401 98.11 94.8801C99.47 109.21 90.14 122.1 76.65 125.64C78.5 142.55 86.07 159.23 98.35 169.41C104.74 174.71 112.24 179.04 119.86 183.25C117.93 176.23 117.57 168.75 119.2 161.05C109.1 153.63 104.25 140.28 109.16 128.25C116.82 109.46 143.42 104.52 158.93 88.1802C163.07 100.98 168.28 134.68 163.87 147.32C159.11 160.96 145.2 168.78 131.42 166.31C129.96 177.19 133.9 187.19 140.74 195.34C146.28 199.04 151.34 203.13 155.46 208.05C157.25 199.78 160.14 191.75 164.34 183.76C166.41 179.48 168.55 175.92 170.77 172.96C176.75 163.87 183.47 155.44 189.25 146.15C199.45 129.75 202.57 115.07 199.71 95.8201L199.42 93.8801C185.34 96.2201 171.35 87.8501 167.02 73.8301C163.08 61.0401 169.51 27.5502 174.11 14.9102C189.01 31.8002 215.41 37.71 222.39 56.76C226.78 68.73 221.73 81.63 211.76 88.76L212.52 93.9202C215.84 116.21 212.08 133.98 200.25 153C199.02 154.98 197.74 156.92 196.43 158.84C210.32 157.76 225.4 161.86 240.46 153.12C235.3 145.96 233.45 136.65 236.71 127.86C243.76 108.83 270.18 103.01 285.14 86.1802C289.7 98.8402 296.01 132.35 292.02 145.13C287.24 160.4 271 168.92 255.72 164.15C253.96 163.6 252.27 162.88 250.68 162.04C241.83 168.29 232.25 171.39 220.72 171.81C212.4 172.12 201.82 170.45 193.95 172.19C188.48 173.4 184.41 176.57 181.21 180.62C179.49 183.29 177.84 186.01 176.32 188.82C170.57 199.44 167.57 210.03 166.51 221.3C179.29 209.8 199.95 206.88 218.07 211.83C219.7 203.16 225.15 195.41 233.74 191.7C252.37 183.66 274.83 198.76 297.34 197.95C291.32 209.99 271.44 237.69 259.44 243.63C245.1 250.73 227.72 244.86 220.62 230.52C219.84 228.93 219.21 227.29 218.73 225.63C198.62 218.31 170.35 223.06 167.44 246.45C174.78 277.06 212.05 287.84 240.86 287.69L252.6 287.66C292.29 258.75 318.09 211.91 318.09 159.04C318.09 71.21 246.88 0 159.05 0V0ZM86.16 300.44C95.41 305.21 105.18 309.11 115.38 312.02L119.34 309.43C129.58 302.74 137.7 293.5 143.55 282.94C127.52 294.63 105.58 299.72 86.16 300.44ZM132.53 315.88C141.16 317.32 150.01 318.09 159.05 318.09C168.86 318.09 178.46 317.19 187.78 315.49C175.41 305.53 166.19 292.22 160.4 277.51C154.53 292.41 145.14 305.87 132.53 315.88ZM204.57 311.47C214.12 308.62 223.29 304.9 232 300.4C212.51 299.23 192.06 293.79 176.79 282.1C182.68 293.01 190.95 302.56 201.45 309.43L204.57 311.47V311.47ZM277.4 109.51C269.33 114.77 252.41 123.36 249.05 132.43C246.05 140.53 251.81 149.14 259.65 151.59C267.99 154.2 276.85 149.54 279.46 141.2C281.25 135.47 279.68 121.65 277.4 109.51ZM44.8 215.45C53.32 210.95 69.04 200.32 78.6 201.79C87.13 203.09 91.87 212.31 90.21 220.35C88.44 228.91 80.07 234.4 71.52 232.63C65.63 231.42 54.3 223.34 44.8 215.45V215.45ZM70.84 67.6902C65.44 75.6702 53.16 90.14 53.58 99.8C53.94 108.43 62.59 114.14 70.77 113.36C79.46 112.54 85.84 104.82 85.01 96.1201C84.44 90.1401 77.65 78.0002 70.84 67.6902V67.6902ZM230.72 217.19L230.87 216.91L230.73 216.83C230.88 211.37 233.64 206.08 238.96 203.78C247.83 199.95 265.73 206.27 275.11 208.46C267.91 218.5 258.99 229.17 253.61 231.84C245.78 235.71 236.29 232.51 232.42 224.68C231.27 222.36 230.71 219.76 230.72 217.19V217.19ZM150.43 111.24C142.19 116.24 124.99 124.27 121.34 133.22C118.08 141.22 123.55 150.01 131.31 152.72C139.56 155.6 148.57 151.24 151.44 142.99C153.43 137.32 152.31 123.45 150.43 111.24ZM181.77 38.26C189.82 43.56 206.71 52.21 210.04 61.28C213.01 69.39 207.22 77.9902 199.37 80.4102C191.02 82.9802 182.17 78.3002 179.6 69.9502C177.83 64.2102 179.44 50.39 181.77 38.26Z"
    fill="#00C298"
  />
</svg>