<?xml version="1.0" encoding="UTF-8"?>
<svg width="133px" height="23px" viewBox="0 0 133 23" version="1.1" xmlns="http://www.w3.org/2000/svg" xmlns:xlink="http://www.w3.org/1999/xlink">
  <title>HereTask logo dark</title>
  <g stroke="none" stroke-width="1" fill="none" fill-rule="evenodd">
    <path d="M45.56,19.62 L44.22,19.62 L44.22,12.35 L35.32,12.35 L35.32,19.64 L34,19.64 L34,4.06 L35.33,4.06 L35.33,11.14 L44.23,11.14 L44.23,4.06 L45.57,4.06 L45.56,19.62 Z M61.06,13.62 L50,13.62 C49.9969715,14.3088684 50.1401229,14.9905418 50.42,15.62 C50.9199309,16.7913613 51.8720096,17.7109827 53.06,18.17 C53.636621,18.3960186 54.2506662,18.5113641 54.87,18.51 C55.6202144,18.5133321 56.3605056,18.3385411 57.03,18 C57.6738001,17.6920404 58.2357307,17.2363284 58.67,16.67 L59.67,17.46 C59.1412485,18.1560213 58.4561122,18.7178331 57.67,19.1 C56.8202555,19.5393147 55.8765717,19.7657988 54.92,19.7601086 C54.0916476,19.7628209 53.2714834,19.5960656 52.51,19.27 C51.7848604,18.9616136 51.1235642,18.5207495 50.56,17.97 C49.9950259,17.390693 49.5408739,16.7128542 49.22,15.97 C48.5805498,14.4304239 48.5805498,12.6995761 49.22,11.16 C49.5408739,10.4171458 49.9950259,9.73930699 50.56,9.16 C51.114309,8.5904756 51.7774434,8.13818394 52.51,7.83 C53.2671569,7.48819891 54.0892888,7.31422079 54.92,7.32 C56.5694785,7.38487188 58.1216777,8.11765429 59.22,9.35 C59.7855781,9.92675793 60.236857,10.6053727 60.55,11.35 C60.8572369,12.0866545 61.0299673,12.8724084 61.06,13.67 L61.06,13.62 Z M59.64,12.48 C59.3494965,11.3387101 58.6794767,10.3301539 57.74,9.62 C57.3196425,9.3204605 56.8536333,9.0908328 56.36,8.94 C55.8843921,8.77226481 55.3843,8.68441078 54.88,8.68 C54.3818871,8.69021861 53.8874288,8.76758283 53.41,8.91 C52.9084668,9.04840148 52.4370965,9.27899989 52.02,9.59 C51.5718974,9.91530517 51.1857827,10.3183547 50.88,10.78 C50.5260553,11.2961052 50.2685622,11.8720767 50.12,12.48 L59.64,12.48 Z M70.36,8.71 C69.6694967,8.72974728 68.9897459,8.88608996 68.36,9.17 C67.7700305,9.44135384 67.2319552,9.81360721 66.77,10.27 C66.3106191,10.755714 65.9445248,11.3218042 65.69,11.94 C65.4345621,12.641438 65.3091778,13.3835774 65.32,14.13 L65.32,19.57 L64,19.57 L64,7.71 L65.36,7.71 L65.36,10.41 C65.7828681,9.53546733 66.454187,8.80501671 67.29,8.31 C68.2470146,7.78847554 69.3201127,7.5167616 70.41,7.51997139 L70.36,8.71 Z M84.0000456,13.67 L73,13.67 C73.0160674,14.3598896 73.1690279,15.039714 73.45,15.67 C73.9499309,16.8413613 74.9020096,17.7609827 76.09,18.22 C76.666621,18.4460186 77.2806662,18.5613641 77.9,18.56 C78.640935,18.5659692 79.3721175,18.3908974 80.03,18.05 C80.6876269,17.7508392 81.2612551,17.2939976 81.7,16.72 L82.7,17.51 C82.1580022,18.1931233 81.4760588,18.752317 80.7,19.15 C79.849017,19.5859781 78.906161,19.8122636 77.95,19.8100352 C77.1216476,19.8128209 76.3014834,19.6460656 75.54,19.32 C74.792288,19.0263609 74.1119047,18.5841118 73.54,18.02 C72.9813409,17.4376642 72.5309628,16.7604039 72.21,16.02 C71.5705498,14.4804239 71.5705498,12.7495761 72.21,11.21 C72.5309628,10.4695961 72.9813409,9.79233582 73.54,9.21 C74.1022172,8.62674187 74.784692,8.17289612 75.54,7.88 C76.2971569,7.53819891 77.1192888,7.36422079 77.95,7.37 C79.5779215,7.4326159 81.112616,8.14592462 82.21,9.35 C82.7763196,9.92012541 83.2188833,10.6009927 83.51,11.35 C83.8361799,12.0797788 84.0032174,12.8706502 84.0000456,13.67 Z M82.61,12.53 C82.4618472,11.9312193 82.2041763,11.3650215 81.85,10.86 C81.5363452,10.3948836 81.1397338,9.99149247 80.68,9.67 C80.2713453,9.36323505 79.8106048,9.13286481 79.32,8.99 C78.8480382,8.82154657 78.3511099,8.7336545 77.85,8.73 C77.3516901,8.73795347 76.8569244,8.81536579 76.38,8.96 C75.8784668,9.09840148 75.4070965,9.32899989 74.99,9.64 C74.5403928,9.97002622 74.1484412,10.3721145 73.83,10.83 C73.4907523,11.3517013 73.240671,11.9262124 73.09,12.53 L82.61,12.53 Z M97.77,5.35 L92.53,5.35 L92.53,19.61 L91.19,19.61 L91.19,5.35 L86,5.35 L86,4.05 L97.77,4.05 L97.77,5.35 Z M109.16,19.58 L107.86,19.58 L107.86,17.48 C106.962288,18.9949029 105.309902,19.89969 103.55,19.84 C102.786781,19.8364771 102.033185,19.6693902 101.34,19.35 C100.634613,19.0485852 99.998262,18.6062019 99.47,18.05 C98.9247717,17.4936843 98.4903796,16.8387024 98.19,16.12 C97.8734649,15.3769569 97.7102033,14.5776556 97.7099759,13.77 C97.7076928,12.9620923 97.8710566,12.1622906 98.19,11.42 C98.5082419,10.7037842 98.9518779,10.0501831 99.5,9.49 C100.036195,8.94311449 100.670583,8.50209608 101.37,8.19 C102.052679,7.87093386 102.796448,7.70375648 103.55,7.7 L109.16,7.7 L109.16,19.58 Z M107.800007,13.83 L107.800007,8.95 L103.64,8.95 C103.042946,8.94266468 102.451823,9.06908978 101.91,9.32 C101.357517,9.55609948 100.855191,9.89550899 100.43,10.32 C99.9920716,10.753423 99.6512147,11.274934 99.43,11.85 C98.9105622,13.0216771 98.9105622,14.3583229 99.43,15.53 C99.6512147,16.105066 99.9920716,16.626577 100.43,17.06 C100.844407,17.4836222 101.336765,17.8231793 101.88,18.06 C102.431948,18.3123891 103.033148,18.4387776 103.64,18.43 C104.228058,18.443928 104.810924,18.3170688 105.34,18.06 C105.837754,17.8200385 106.28039,17.4795487 106.64,17.06 C107.017157,16.6193128 107.305763,16.1100083 107.49,15.56 C107.695994,15.0099925 107.801011,14.4273166 107.800007,13.84 L107.800007,13.83 Z M119.91,16.35 C119.91652,16.8096977 119.8173,17.2647442 119.62,17.68 C119.421685,18.0999442 119.143119,18.477028 118.8,18.79 C118.439519,19.1136384 118.017904,19.3618474 117.56,19.52 C117.071496,19.7195982 116.547643,19.8182458 116.02,19.81 C115.558932,19.8158355 115.099868,19.7483261 114.66,19.61 C114.260196,19.4830672 113.879911,19.3013385 113.53,19.07 C113.202262,18.84679 112.914837,18.5695098 112.68,18.25 C112.427225,17.9352467 112.252469,17.5651758 112.17,17.17 L113.53,17.08 C113.690317,17.5792384 114.023675,18.0048011 114.47,18.28 C114.937469,18.5616202 115.474301,18.7070844 116.02,18.7 C116.693573,18.7055515 117.347928,18.475643 117.87,18.05 C118.100052,17.8431922 118.298799,17.6040218 118.46,17.34 C118.598779,17.0464563 118.667256,16.7246151 118.66,16.4 C118.695364,15.9224953 118.552894,15.4487804 118.26,15.07 C117.88028,14.6596247 117.406767,14.3473808 116.88,14.16 C116.712814,14.1280591 116.548825,14.0812051 116.39,14.02 C116.19,14.02 115.94,13.88 115.68,13.8 C115.42,13.72 115.17,13.65 114.95,13.6 C114.783232,13.5340624 114.612977,13.4773107 114.44,13.43 C113.842096,13.2249952 113.317213,12.8495818 112.93,12.35 C112.576789,11.8504672 112.391216,11.2517302 112.4,10.64 C112.39819,10.2268036 112.494135,9.81903759 112.68,9.45 C112.858197,9.07106279 113.109706,8.73118592 113.42,8.45 C113.759459,8.1665757 114.140608,7.937212 114.55,7.77 C115.013093,7.59541951 115.505182,7.51057648 116,7.52 C116.791095,7.49971268 117.567148,7.73849841 118.21,8.2 C118.814366,8.60572569 119.262343,9.20537996 119.48,9.9 L118.09,9.9 C117.958109,9.47217736 117.663699,9.1131403 117.27,8.9 C116.886153,8.67164176 116.446598,8.55396541 116,8.56 C115.690587,8.54945737 115.381936,8.5969422 115.09,8.7 C114.819803,8.78426265 114.568502,8.92010134 114.35,9.1 C114.13294,9.26298688 113.958064,9.47558107 113.84,9.72 C113.701373,9.96333683 113.632194,10.2400548 113.64,10.52 C113.634877,10.9272346 113.765008,11.3246615 114.01,11.65 C114.275322,11.9846093 114.618694,12.2490058 115.01,12.42 C115.175094,12.4904424 115.34566,12.5472976 115.52,12.59 C115.75,12.59 116,12.73 116.26,12.78 C116.491557,12.871624 116.728702,12.9484454 116.97,13.01 L117.45,13.15 C118.915406,13.5132404 119.935709,14.8404647 119.91,16.35 L119.91,16.35 Z M132.91,19.58 L131.3,19.58 L126.91,12.58 L124.27,15.05 L124.27,19.53 L122.94,19.53 L122.94,4 L124.27,4 L124.27,13.58 L130.48,7.71 L132.32,7.71 L127.9,11.82 L132.91,19.58 Z" id="text" fill="#b0bec5" fill-rule="nonzero"></path>
    <g fill-rule="nonzero">
      <path d="M16.0367466,4.87223362 C15.9735971,4.74285215 15.9080189,4.61517307 15.8400118,4.48919638 C15.8181523,4.4457855 15.7914352,4.40237461 15.7695758,4.36151731 L15.6311328,4.11892706 L15.5364086,3.96826575 C15.4926897,3.89931904 15.4513997,3.83037234 15.405252,3.76397922 C15.3591043,3.6975861 15.3323873,3.65672879 15.2959549,3.60565716 C15.2595225,3.55458553 15.2133748,3.48563883 15.169656,3.42690645 L15.0457859,3.26092365 L14.9219158,3.1153695 L14.7810439,2.94683312 C14.7446115,2.90086865 14.7033215,2.85745777 14.6644603,2.81404688 L14.5065867,2.63784975 C14.4725831,2.60209961 14.4385795,2.56890305 14.4070048,2.53315291 L14.2151276,2.34929504 L14.1568358,2.29566982 C13.7212838,1.87958906 13.245001,1.51323054 12.735973,1.20273692 L12.7214,1.20273692 C12.6193894,1.14145096 12.5198075,1.08527216 12.4177969,1.02909337 L12.3959374,1.02909337 L12.0850478,0.865664149 L12.068046,0.865664149 C11.9611777,0.812038936 11.8518806,0.763520887 11.7425834,0.715002837 L11.7425834,0.715002837 L11.5142739,0.76862805 C11.7863325,1.15989018 12.0299073,1.57218847 12.2429214,2.00200794 C12.5243155,2.56500772 12.7560236,3.15394495 12.9351367,3.76142564 C13.1649734,4.53355475 13.3004557,5.33328605 13.3383217,6.14136365 C13.7645968,6.55316014 14.1406921,7.01890736 14.4580101,7.52795844 C14.5673073,7.71436989 14.6717468,7.90844209 14.7688998,8.10762146 C15.8108659,10.2832729 15.8497271,12.7193898 14.7859016,14.7750229 C14.4624545,15.3646898 14.10811,15.9350166 13.7245049,16.483369 L13.8046561,16.3710114 L14.0693981,15.9981885 L14.1981258,15.8143306 C14.2709906,15.7070802 14.3462842,15.6023833 14.4167201,15.5002401 L14.5503055,15.3061679 L14.7494692,15.0176132 L14.8781969,14.8260945 L15.05793,14.5707364 L15.1769424,14.3894321 C15.2352343,14.3026103 15.2886684,14.2183421 15.3421026,14.1340739 L15.4513997,13.9655376 L15.599558,13.7255009 L15.6918534,13.5773932 L15.8327253,13.3399101 L15.8983036,13.2249989 C15.961453,13.1126413 16.0197448,13.0079445 16.0683213,12.913462 C17.338597,10.4237199 17.2924493,7.4922083 16.0367466,4.87223362 Z" id="Path" fill="#81D4FA"></path>
      <path d="M11.3709732,0.515823475 L11.3709732,0.515823475 C11.2398166,0.464751844 11.10866,0.418787376 10.9775035,0.375376489 L10.9775035,0.375376489 C10.8342028,0.331965603 10.705475,0.306429787 10.5718896,0.257911738 L10.5500302,0.257911738 C10.4237313,0.222161596 10.3071477,0.191518617 10.1662758,0.16342922 L10.1322722,0.16342922 C10.0084021,0.135339823 9.88938971,0.112357589 9.75823314,0.0919289362 L9.70965663,0.0919289362 C9.58821537,0.0646907329 9.47082214,0.0434108865 9.35747696,0.0280893972 L9.29675633,0.0280893972 C9.18017271,0.0280893972 9.0538738,0.00766074468 8.94457666,0 L8.86928307,0 C8.75512828,0 8.64340232,0 8.52924753,0 L8.43938099,0 C8.33008385,0 8.22321554,0 8.1139184,0 L8.00947891,0 C7.90503942,0 7.80302875,0.0153214894 7.69858926,0.0255358156 L7.58200565,0.0255358156 L7.28083131,0.0663931206 L7.15453239,0.0842681915 L6.86550218,0.140446986 L6.73191679,0.168536383 C6.6371926,0.188965035 6.54489724,0.21194727 6.45260187,0.237483085 L6.30930118,0.273233227 L6.03727274,0.354947837 L5.89154322,0.400912305 L5.62194361,0.500501986 L5.47135644,0.561787943 L5.19204153,0.681806277 L5.06331379,0.737985071 C4.92729957,0.799271029 4.79371418,0.865664149 4.66012878,0.937164433 C0.453403318,3.14856606 -1.169052,8.67451656 0.888163052,12.9058012 C0.927024257,12.9849622 0.970743113,13.071784 1.01931962,13.1611594 C1.01931962,13.181588 1.04117905,13.1994631 1.05089435,13.2224453 L1.20876799,13.5007857 L1.2379139,13.5493038 C1.28891923,13.6386791 1.34235339,13.7280545 1.4006452,13.822537 L1.44436405,13.8940373 C1.50751351,13.9961805 1.57552062,14.1059845 1.64595655,14.2157885 L1.70424836,14.3077175 L1.88641026,14.6064865 L1.93741559,14.683094 L2.18029812,15.0329346 L2.26773584,15.1631673 C2.33817177,15.2678642 2.41103653,15.3751146 2.48633012,15.482365 L2.58591195,15.6253656 L2.78507563,15.9139203 L2.89923042,16.0747959 C2.97938166,16.1897071 3.06196172,16.3071718 3.14211295,16.4246366 L3.27326952,16.6084945 C3.32670368,16.6825483 3.38013784,16.7591558 3.43600082,16.8332096 L3.57444386,17.0298354 L3.57444386,17.0298354 C3.05767342,16.3172177 2.58936674,15.5671562 2.17301165,14.7852372 C1.05941756,12.4196123 1.22020278,9.61095713 2.59562726,7.40283294 C3.26484112,6.31228644 4.20005481,5.43044717 5.30376749,4.84925138 C5.56227152,4.71153617 5.82922531,4.5921039 6.10285103,4.49174997 C6.97507509,3.14027252 8.18541778,2.0683581 9.60035949,1.39425553 C9.79952317,1.29721943 10.0011157,1.21295124 10.2027082,1.13889738 C10.631377,0.967571486 11.0713496,0.829312034 11.5191315,0.725217163 L11.7474411,0.67159195 C11.623571,0.615413156 11.4997009,0.561787943 11.3709732,0.515823475 Z" id="Path" fill="#80CBC4"></path>
      <path d="M12.944852,3.71801475 C12.7657389,3.11053407 12.5340308,2.52159683 12.2526368,1.95859706 C12.0396226,1.52877758 11.7960478,1.1164793 11.5239892,0.725217163 C11.0796867,0.827290203 10.6429803,0.962983348 10.2172811,1.13123663 C10.0156886,1.21295124 9.81409612,1.29721943 9.61493245,1.38659479 C8.19526032,2.05692349 6.97971121,3.12721433 6.10285103,4.47898206 C8.61463143,3.53224163 11.419606,4.15902632 13.348037,6.09795277 C13.310171,5.28987517 13.1746887,4.49014386 12.944852,3.71801475 Z" id="Path" fill="#B2EBF2"></path>
      <path d="M14.7591845,8.10762146 C14.6620315,7.90844209 14.557592,7.71436989 14.4482948,7.52795844 C14.1398012,7.0048382 13.7701685,6.52442642 13.348037,6.09795277 C13.4244663,7.75148945 13.0512429,9.39369803 12.2720674,10.832293 C11.6284286,12.0350299 9.9841139,14.2847353 8.29365147,16.4910297 C8.80127596,17.1319787 9.33318871,17.7933563 9.85781498,18.4343053 C10.2974324,18.9680038 10.7297633,19.4889345 11.1353771,19.9664542 C11.9660354,18.863307 12.8817025,17.6299271 13.7075031,16.4731546 C14.0911083,15.9248023 14.4454527,15.3544755 14.7688998,14.7648086 C15.8400118,12.7193898 15.8011506,10.2832729 14.7591845,8.10762146 Z" id="Path" fill="#5C6BC0"></path>
      <path d="M5.67052012,12.7934436 C4.29934461,10.1609497 4.46689669,6.93863713 6.10285103,4.47898206 C5.82922531,4.579336 5.56227152,4.69876827 5.30376749,4.83648348 C4.20005481,5.41767926 3.26484112,6.29951854 2.59562726,7.39006504 C1.22020278,9.59818922 1.05941756,12.4068443 2.17301165,14.7724693 C2.58936674,15.5543883 3.05767342,16.3044497 3.57444386,17.0170675 C4.25694378,17.972107 4.98559138,18.9475752 5.67780659,19.8540966 C6.1295681,19.2846479 6.62504847,18.6539133 7.13510179,17.9976428 C7.51885619,17.5048016 7.90989707,16.9991924 8.29850912,16.4910297 C7.13024414,15.0022917 6.10527985,13.6156969 5.67052012,12.7934436 Z" id="Path" fill="#C8E6C9"></path>
      <path d="M9.86510146,18.4368589 C9.34047518,17.7959099 8.80856244,17.1345323 8.30093795,16.4935833 C7.91232589,17.0042996 7.52128502,17.5150159 7.13753061,18.0001964 C6.62504847,18.6564669 5.68023542,19.8566502 5.68023542,19.8566502 C6.05670334,20.3673665 7.08166763,21.7667292 7.75688107,22.6400541 C7.92971489,22.8675401 8.19160019,23 8.46852689,23 C8.74545359,23 9.0073389,22.8675401 9.18017271,22.6400541 C9.84324203,21.7718364 10.7370497,20.5333493 11.1426636,19.9690078 L11.1426636,19.9536863 C10.7273344,19.4787201 10.2998612,18.9628967 9.86510146,18.4368589 Z" id="Path" fill="#80CBC4"></path>
    </g>
  </g>
</svg>