<svg width="1021" height="348" viewBox="0 0 1021 348" fill="none" xmlns="http://www.w3.org/2000/svg">
<g clip-path="url(#clip0_1003_705)">
<g clip-path="url(#clip1_1003_705)">
<g clip-path="url(#clip2_1003_705)">
<path d="M405.977 133.222C419.439 123.574 425.194 113.868 425.194 100.925C425.194 85.2398 417.971 58.9067 369.593 58.9067H313.761V219.013H369.593C415.755 219.013 432.202 195.083 432.202 172.693C432.209 157.476 427.792 145.511 405.977 133.222ZM338.036 80.9157H369.6C388.501 80.9157 399.336 88.4631 399.336 101.615C399.336 117.588 389.889 125.027 369.6 125.027H338.036V80.9157ZM369.6 197.012H338.036V145.892H369.6C387.263 145.892 406.135 153.116 406.135 173.369C406.135 190.824 386.457 197.012 369.6 197.012Z" fill="white"/>
<path d="M503.05 101.939C470.141 101.939 443.383 128.704 443.383 161.606C443.383 194.508 470.148 221.273 503.05 221.273C535.952 221.273 562.731 194.508 562.731 161.606C562.739 128.697 535.959 101.939 503.05 101.939ZM503.05 198.825C482.797 198.825 468.105 183.169 468.105 161.606C468.105 140.043 482.797 124.387 503.05 124.387C523.368 124.387 537.557 139.691 537.557 161.606C537.557 183.522 523.368 198.825 503.05 198.825Z" fill="white"/>
<path d="M582.006 161.376V218.783H606.274V161.376C606.274 142.23 620.506 129.366 641.68 129.366H642.493V101.702H641.68C605.433 101.702 582.006 125.128 582.006 161.376Z" fill="white"/>
<path d="M683.439 72.1096H659.171V96.1548H683.439V72.1096Z" fill="white"/>
<path d="M683.439 104.191H659.171V219.014H683.439V104.191Z" fill="white"/>
<path d="M757.805 101.702C725.334 101.702 702.656 123.819 702.656 155.49V218.776L725.795 219.021V162.052C725.795 136.517 736.083 123.027 755.538 123.027C775.598 123.027 786.642 136.805 786.642 161.829V218.791H810.91V155.49C810.917 108.688 777.641 101.702 757.805 101.702Z" fill="white"/>
<path d="M889.319 101.939C853.626 101.939 829.652 125.913 829.652 161.606C829.652 196.782 853.626 220.863 889.319 221.503H890.233C908.22 221.503 920.638 210.179 924.725 205.847V220.69C924.725 243.261 912.501 255.103 888.42 255.866C888.024 255.866 887.686 255.923 887.355 255.988C887.125 256.031 886.88 256.096 886.607 256.096C866.245 256.096 856.122 242.973 856.014 242.836L855.453 242.088L838.898 258.643L839.308 259.204C839.444 259.384 853.697 278.544 883.203 278.544C942.583 278.544 949 235.699 949 217.287V161.599C949.008 119.006 916.861 102.839 889.319 101.939ZM889.319 199.264C869.138 199.264 853.913 183.076 853.913 161.606C853.913 140.13 869.138 123.927 889.319 123.927C910.019 123.927 925.639 140.13 925.639 161.606C925.639 183.083 910.019 199.264 889.319 199.264Z" fill="white"/>
<path d="M342.807 268.859C340.95 266.651 338.691 265.276 336.008 264.787C338.504 264.053 340.548 262.772 342.138 260.931C343.72 259.103 344.512 256.707 344.512 253.765C344.512 250.232 343.246 247.347 340.735 245.124C338.216 242.9 334.561 241.785 329.762 241.785H313.768V289.336H330.23C333.446 289.336 336.216 288.775 338.519 287.659C340.835 286.544 342.591 285.041 343.792 283.105C344.994 281.184 345.591 279.018 345.591 276.615C345.591 273.673 344.663 271.083 342.807 268.859ZM318.524 245.598H329.41C332.763 245.598 335.324 246.375 337.058 247.915C338.814 249.455 339.677 251.556 339.677 254.239C339.677 256.909 338.806 259.024 337.058 260.564C335.324 262.103 332.835 262.88 329.619 262.88H318.524V245.598ZM337.943 282.968C336.022 284.63 333.338 285.451 329.878 285.451H318.524V266.751H329.683C333.079 266.751 335.792 267.607 337.806 269.298C339.835 271.003 340.843 273.277 340.843 276.141C340.843 279.04 339.878 281.321 337.943 282.968Z" fill="white"/>
<path d="M381.795 252.196V272.392C381.795 276.795 380.73 280.134 378.593 282.393C376.457 284.667 373.607 285.811 370.01 285.811C366.521 285.811 363.779 284.746 361.75 282.609C359.736 280.472 358.736 277.4 358.736 273.356V252.203H354.045V273.91C354.045 279.119 355.448 283.098 358.254 285.847C361.074 288.588 364.7 289.962 369.132 289.962C371.953 289.962 374.5 289.35 376.752 288.12C379.025 286.904 380.702 285.134 381.795 282.818V289.358H386.551V252.218H381.795V252.196Z" fill="white"/>
<path d="M421.345 274.162C420.23 272.853 418.863 271.86 417.23 271.177C415.597 270.493 413.481 269.817 410.906 269.133C408.682 268.507 406.912 267.932 405.603 267.399C404.279 266.881 403.178 266.162 402.293 265.234C401.408 264.306 400.97 263.118 400.97 261.651C400.97 259.881 401.703 258.42 403.178 257.233C404.653 256.06 406.625 255.463 409.064 255.463C411.791 255.463 413.927 256.161 415.496 257.578C417.064 258.981 417.906 260.794 418.043 263.018H422.813C422.633 259.463 421.317 256.693 418.863 254.679C416.41 252.65 413.194 251.643 409.2 251.643C406.668 251.643 404.401 252.117 402.43 253.046C400.466 253.974 398.941 255.226 397.876 256.78C396.811 258.348 396.278 260.053 396.278 261.917C396.278 264.277 396.89 266.155 398.077 267.572C399.279 268.975 400.732 270.025 402.409 270.731C404.085 271.428 406.308 272.148 409.071 272.882C411.208 273.414 412.899 273.932 414.143 274.407C415.395 274.882 416.417 275.537 417.237 276.343C418.043 277.163 418.453 278.199 418.453 279.479C418.453 281.386 417.719 282.955 416.244 284.206C414.769 285.458 412.74 286.063 410.165 286.063C407.207 286.063 404.862 285.408 403.121 284.099C401.365 282.789 400.38 281.034 400.164 278.854H395.257C395.573 282.221 397.084 284.89 399.782 286.883C402.48 288.876 405.912 289.869 410.085 289.869C412.676 289.869 414.935 289.43 416.885 288.509C418.834 287.61 420.345 286.358 421.41 284.775C422.475 283.192 423.007 281.393 423.007 279.393C423.007 277.227 422.453 275.486 421.345 274.162Z" fill="white"/>
<path d="M432.116 252.196V289.336H436.872V252.196H432.116ZM436.951 239.166C436.268 238.512 435.455 238.188 434.498 238.188C433.555 238.188 432.728 238.505 432.059 239.166C431.375 239.821 431.037 240.663 431.037 241.649C431.037 242.656 431.375 243.491 432.059 244.167C432.728 244.85 433.555 245.189 434.498 245.189C435.455 245.189 436.268 244.85 436.951 244.167C437.635 243.498 437.973 242.656 437.973 241.649C437.973 240.663 437.635 239.821 436.951 239.166Z" fill="white"/>
<path d="M475.997 255.628C473.177 252.887 469.551 251.513 465.097 251.513C462.291 251.513 459.78 252.125 457.55 253.326C455.327 254.513 453.636 256.254 452.442 258.521V252.196H447.686V289.336H452.442V269.068C452.442 264.665 453.506 261.341 455.643 259.068C457.78 256.794 460.629 255.672 464.227 255.672C467.716 255.672 470.457 256.722 472.486 258.859C474.501 260.996 475.501 264.068 475.501 268.111V289.343H480.192V267.579C480.206 262.348 478.803 258.37 475.997 255.628Z" fill="white"/>
<path d="M524.361 268.795C524.361 265.672 523.642 262.787 522.21 260.154C520.778 257.535 518.749 255.441 516.08 253.938C513.425 252.412 510.331 251.65 506.799 251.65C503.266 251.65 500.108 252.427 497.352 253.966C494.575 255.506 492.431 257.729 490.891 260.629C489.351 263.543 488.574 266.91 488.574 270.766C488.574 274.623 489.366 277.99 490.92 280.868C492.488 283.746 494.654 285.976 497.409 287.53C500.179 289.099 503.309 289.876 506.799 289.876C511.295 289.876 515.03 288.732 517.987 286.444C520.958 284.156 522.894 281.199 523.807 277.573H518.778C518.095 280.105 516.706 282.127 514.584 283.624C512.483 285.12 509.893 285.861 506.799 285.861C504.453 285.861 502.273 285.343 500.273 284.293C498.273 283.257 496.661 281.731 495.409 279.702C494.157 277.688 493.488 275.27 493.395 272.464H524.217C524.311 271.601 524.361 270.378 524.361 268.795ZM493.402 268.932C493.539 266.111 494.222 263.723 495.445 261.722C496.661 259.722 498.251 258.233 500.201 257.226C502.151 256.233 504.288 255.729 506.604 255.729C508.964 255.729 511.13 256.233 513.13 257.226C515.13 258.233 516.713 259.722 517.857 261.722C519.016 263.723 519.577 266.111 519.534 268.932H493.402Z" fill="white"/>
<path d="M556.975 274.162C555.86 272.853 554.493 271.86 552.86 271.177C551.212 270.493 549.111 269.817 546.536 269.133C544.313 268.507 542.543 267.932 541.219 267.399C539.909 266.881 538.808 266.162 537.923 265.234C537.039 264.306 536.6 263.118 536.6 261.651C536.6 259.881 537.334 258.42 538.808 257.233C540.283 256.06 542.24 255.463 544.694 255.463C547.421 255.463 549.558 256.161 551.126 257.578C552.68 258.981 553.536 260.794 553.673 263.018H558.443C558.263 259.463 556.932 256.693 554.493 254.679C552.04 252.65 548.824 251.643 544.831 251.643C542.284 251.643 540.032 252.117 538.06 253.046C536.096 253.974 534.571 255.226 533.506 256.78C532.441 258.348 531.909 260.053 531.909 261.917C531.909 264.277 532.506 266.155 533.707 267.572C534.909 268.975 536.362 270.025 538.039 270.731C539.715 271.428 541.938 272.148 544.701 272.882C546.838 273.414 548.529 273.932 549.773 274.407C551.011 274.882 552.047 275.537 552.867 276.343C553.673 277.163 554.083 278.199 554.083 279.479C554.083 281.386 553.349 282.955 551.874 284.206C550.392 285.458 548.37 286.063 545.795 286.063C542.838 286.063 540.492 285.408 538.751 284.099C536.995 282.789 536.01 281.034 535.779 278.854H530.887C531.204 282.221 532.714 284.89 535.413 286.883C538.111 288.876 541.543 289.869 545.716 289.869C548.306 289.869 550.565 289.43 552.515 288.509C554.464 287.61 555.975 286.358 557.04 284.775C558.105 283.192 558.637 281.393 558.637 279.393C558.637 277.227 558.069 275.486 556.975 274.162Z" fill="white"/>
<path d="M591.662 274.162C590.547 272.853 589.18 271.86 587.546 271.177C585.913 270.493 583.798 269.817 581.222 269.133C578.999 268.507 577.229 267.932 575.919 267.399C574.596 266.881 573.495 266.162 572.61 265.234C571.725 264.306 571.286 263.118 571.286 261.651C571.286 259.881 572.02 258.42 573.495 257.233C574.97 256.06 576.927 255.463 579.38 255.463C582.107 255.463 584.244 256.161 585.812 257.578C587.381 258.981 588.223 260.794 588.359 263.018H593.13C592.95 259.463 591.619 256.693 589.18 254.679C586.726 252.65 583.51 251.643 579.517 251.643C576.97 251.643 574.718 252.117 572.746 253.046C570.782 253.974 569.257 255.226 568.192 256.78C567.127 258.348 566.595 260.053 566.595 261.917C566.595 264.277 567.192 266.155 568.394 267.572C569.595 268.975 571.049 270.025 572.725 270.731C574.401 271.428 576.625 272.148 579.387 272.882C581.524 273.414 583.215 273.932 584.46 274.407C585.697 274.882 586.733 275.537 587.554 276.343C588.359 277.163 588.769 278.199 588.769 279.479C588.769 281.386 588.036 282.955 586.561 284.206C585.086 285.458 583.057 286.063 580.481 286.063C577.524 286.063 575.178 285.408 573.437 284.099C571.682 282.789 570.696 281.034 570.466 278.854H565.573C565.89 282.221 567.401 284.89 570.099 286.883C572.797 288.876 576.229 289.869 580.402 289.869C582.992 289.869 585.251 289.43 587.201 288.509C589.151 287.61 590.662 286.358 591.726 284.775C592.791 283.192 593.324 281.393 593.324 279.393C593.324 277.227 592.763 275.486 591.662 274.162Z" fill="white"/>
<path d="M627.269 285.595V241.792H622.513V289.343H644.335V285.595H627.269Z" fill="white"/>
<path d="M684.741 268.795C684.741 265.672 684.022 262.787 682.605 260.154C681.173 257.535 679.13 255.441 676.475 253.938C673.82 252.412 670.726 251.65 667.193 251.65C663.661 251.65 660.502 252.427 657.732 253.966C654.976 255.506 652.825 257.729 651.271 260.629C649.731 263.543 648.969 266.91 648.969 270.766C648.969 274.623 649.746 277.99 651.314 280.868C652.868 283.746 655.034 285.976 657.804 287.53C660.56 289.099 663.704 289.876 667.193 289.876C671.676 289.876 675.41 288.732 678.381 286.444C681.353 284.156 683.288 281.199 684.187 277.573H679.158C678.489 280.105 677.086 282.127 674.985 283.624C672.87 285.12 670.273 285.861 667.2 285.861C664.841 285.861 662.661 285.343 660.66 284.293C658.66 283.257 657.049 281.731 655.797 279.702C654.545 277.688 653.876 275.27 653.782 272.464H684.598C684.691 271.601 684.741 270.378 684.741 268.795ZM653.782 268.932C653.919 266.111 654.602 263.723 655.825 261.722C657.063 259.722 658.646 258.233 660.596 257.226C662.545 256.233 664.668 255.729 666.985 255.729C669.345 255.729 671.525 256.233 673.525 257.226C675.525 258.233 677.093 259.722 678.252 261.722C679.41 263.723 679.957 266.111 679.914 268.932H653.782Z" fill="white"/>
<path d="M723.709 252.197V260.348C722.579 257.816 720.737 255.729 718.176 254.096C715.6 252.463 712.549 251.643 709.017 251.643C705.621 251.643 702.57 252.434 699.872 253.988C697.174 255.557 695.073 257.78 693.548 260.665C692.022 263.543 691.274 266.881 691.274 270.695C691.274 274.508 692.022 277.861 693.548 280.753C695.073 283.667 697.174 285.904 699.872 287.487C702.57 289.07 705.599 289.862 708.959 289.862C712.492 289.862 715.542 289.041 718.104 287.379C720.665 285.732 722.536 283.631 723.716 281.098V289.329H728.486V252.189H723.709V252.197ZM721.881 278.659C720.644 280.933 718.989 282.667 716.881 283.904C714.765 285.12 712.449 285.732 709.902 285.732C707.283 285.732 704.916 285.135 702.829 283.933C700.743 282.731 699.095 280.976 697.908 278.688C696.706 276.4 696.095 273.738 696.095 270.702C696.095 267.622 696.706 264.953 697.908 262.701C699.095 260.463 700.743 258.751 702.829 257.578C704.916 256.391 707.283 255.794 709.902 255.794C712.449 255.794 714.765 256.42 716.881 257.636C718.982 258.852 720.644 260.607 721.881 262.881C723.097 265.14 723.709 267.773 723.709 270.759C723.709 273.767 723.104 276.386 721.881 278.659Z" fill="white"/>
<path d="M769.633 239.001V260.233C768.396 257.686 766.475 255.628 763.841 254.031C761.223 252.448 758.265 251.657 754.999 251.657C751.603 251.657 748.552 252.448 745.854 254.002C743.156 255.571 741.041 257.794 739.501 260.679C737.962 263.557 737.185 266.895 737.185 270.709C737.185 274.522 737.947 277.875 739.458 280.767C740.983 283.681 743.084 285.919 745.797 287.501C748.48 289.084 751.546 289.876 754.941 289.876C758.431 289.876 761.467 289.055 764.057 287.393C766.633 285.746 768.489 283.631 769.633 281.04V289.35H774.389V239.008H769.633V239.001ZM767.791 278.659C766.576 280.933 764.913 282.666 762.791 283.904C760.69 285.12 758.359 285.731 755.826 285.731C753.193 285.731 750.826 285.134 748.754 283.933C746.667 282.731 745.02 280.976 743.818 278.688C742.617 276.4 742.019 273.738 742.019 270.701C742.019 267.622 742.617 264.953 743.818 262.701C745.02 260.463 746.667 258.751 748.754 257.578C750.826 256.391 753.186 255.794 755.826 255.794C758.359 255.794 760.69 256.42 762.791 257.636C764.906 258.852 766.568 260.607 767.791 262.881C769.007 265.14 769.633 267.773 769.633 270.759C769.633 273.766 769.007 276.385 767.791 278.659Z" fill="white"/>
<path d="M809.183 274.162C808.068 272.853 806.701 271.86 805.068 271.177C803.434 270.493 801.319 269.817 798.743 269.133C796.52 268.507 794.75 267.932 793.441 267.399C792.117 266.881 791.016 266.162 790.131 265.234C789.246 264.306 788.807 263.118 788.807 261.651C788.807 259.881 789.541 258.42 791.016 257.233C792.491 256.06 794.462 255.463 796.901 255.463C799.628 255.463 801.765 256.161 803.334 257.578C804.902 258.981 805.744 260.794 805.881 263.018H810.651C810.471 259.463 809.14 256.693 806.701 254.679C804.247 252.65 801.031 251.643 797.038 251.643C794.491 251.643 792.254 252.117 790.268 253.046C788.304 253.974 786.778 255.226 785.713 256.78C784.649 258.348 784.116 260.053 784.116 261.917C784.116 264.277 784.728 266.155 785.929 267.572C787.116 268.975 788.563 270.025 790.239 270.731C791.915 271.428 794.139 272.148 796.901 272.882C799.038 273.414 800.729 273.932 801.974 274.407C803.211 274.882 804.247 275.537 805.068 276.343C805.873 277.163 806.284 278.199 806.284 279.479C806.284 281.386 805.55 282.955 804.075 284.206C802.593 285.458 800.571 286.063 797.995 286.063C795.038 286.063 792.692 285.408 790.951 284.099C789.196 282.789 788.21 281.034 787.994 278.854H783.087C783.404 282.221 784.915 284.89 787.613 286.883C790.311 288.876 793.743 289.869 797.916 289.869C800.506 289.869 802.765 289.43 804.715 288.509C806.665 287.61 808.176 286.358 809.241 284.775C810.305 283.192 810.838 281.393 810.838 279.393C810.845 277.227 810.298 275.486 809.183 274.162Z" fill="white"/>
<path d="M980.399 99.7949V104.025H971.614V132.812H966.196V104.025H957.361V99.7949H980.399Z" fill="white"/>
<path d="M1020.62 99.7949V132.805H1015.21V110.199L1005.14 132.805H1001.39L991.27 110.199V132.805H985.852V99.7949H991.695L1003.29 125.682L1014.83 99.7949H1020.62Z" fill="white"/>
</g>
<g clip-path="url(#clip3_1003_705)">
<g clip-path="url(#clip4_1003_705)">
<path d="M56.3778 39.2439V130.839C42.0966 135.715 29.3366 143.526 18.7056 153.705V51.8129L39.4119 44.905L56.3778 39.2439Z" fill="white"/>
<path d="M115.746 19.4441V128.474C107.831 126.428 99.5686 125.32 91.1117 125.216V27.6648L115.746 19.4441Z" fill="white"/>
<path d="M171.561 0.818115V165.503C162.75 153.969 151.602 144.474 138.956 137.601V11.7096L171.561 0.818115Z" fill="white"/>
<path d="M252.386 332.759C252.268 328.275 250.139 323.867 246.138 321.033L217.826 300.869L214.513 298.518L196.348 285.626C192.48 282.91 187.367 282.896 183.484 285.581L166.838 274.356C179.761 252.819 183.644 226.025 175.232 200.282C159.843 153.118 109.147 127.362 61.9831 142.751C14.8226 158.14 -10.9336 208.854 4.45552 256.001C19.8446 303.165 70.5546 328.921 117.705 313.532C134.059 308.201 147.827 298.625 158.211 286.418L174.579 298.042C172.871 301.97 174.142 306.568 177.646 309.038L228.839 345.366C235 349.745 243.44 348.825 248.521 343.247C248.535 343.233 248.566 343.202 248.594 343.174C248.639 343.129 248.68 343.087 248.712 343.028C250.566 340.91 251.719 338.458 252.157 335.919C252.348 334.999 252.404 333.335 252.404 333.335C252.417 333.141 252.4 332.95 252.386 332.759ZM110.227 290.62C75.7225 301.876 38.6373 283.028 27.3777 248.523C16.118 214.018 34.9558 176.933 69.4606 165.674C103.962 154.417 141.051 173.252 152.31 207.756C163.57 242.261 144.732 279.364 110.227 290.62ZM240.237 327.459L191.309 292.725C190.476 292.141 189.309 292.11 188.461 292.711L185.759 294.611L172.193 285.251C171.669 284.9 171.551 284.198 171.902 283.674C172.252 283.163 172.954 283.045 173.478 283.396L185.759 291.86L187.176 290.867C188.798 289.741 191.031 289.741 192.608 290.88L210.494 303.568L241.495 325.573L240.237 327.459Z" fill="white"/>
<path d="M115.354 233.836C112.842 230.8 109.949 228.636 106.636 227.351C103.337 226.052 98.7662 224.649 92.9245 223.132V201.609C95.2758 202.224 97.1582 203.36 98.5613 205.027C99.9644 206.704 100.781 208.677 100.999 210.955H118.201C117.66 204.266 115.166 199.011 110.682 195.184C106.199 191.343 100.287 189.169 92.928 188.627V179.413H86.548V188.627C78.883 189.169 72.6315 191.516 67.8144 195.695C62.9973 199.869 60.587 205.301 60.587 211.976C60.587 217.217 61.813 221.35 64.2823 224.389C66.7516 227.428 69.6412 229.602 72.9406 230.929C76.24 232.259 80.7828 233.69 86.548 235.207V256.949C83.8911 256.424 81.8038 255.299 80.2826 253.59C78.7614 251.882 77.8897 249.662 77.6674 246.932H60.5835C60.7294 253.694 63.1813 259.036 67.929 262.995C72.6732 266.937 78.8795 269.216 86.5445 269.813V279.041H92.9245V269.813C98.3112 269.521 103 268.25 106.987 266.003C110.974 263.77 113.982 260.908 116.041 257.404C118.087 253.913 119.108 250.204 119.108 246.248C119.104 241.004 117.865 236.871 115.354 233.836ZM86.5445 221.308C83.5056 220.256 81.1995 218.943 79.595 217.38C78.0043 215.831 77.2159 213.758 77.2159 211.174C77.2159 208.298 78.0495 206.02 79.7131 204.356C81.3767 202.679 83.655 201.654 86.548 201.276V221.308H86.5445ZM100.037 253.649C98.3286 255.476 95.9635 256.612 92.928 257.067V236.916C96.0364 237.982 98.4328 239.281 100.096 240.844C101.76 242.393 102.607 244.421 102.607 246.932C102.604 249.589 101.743 251.826 100.037 253.649Z" fill="white"/>
<path d="M171.561 0.818115V28.3768L148.879 35.5625L148.195 35.7778L147.865 35.8924L138.956 38.7126V11.7096L171.561 0.818115Z" fill="white"/>
<path d="M125.064 16.3323V43.5054L118.184 45.7976L115.746 46.6173V46.718L105.219 50.1216L104.722 50.2813L104.257 50.4411L91.115 54.6921V27.6648L115.746 19.4441L125.064 16.3323Z" fill="white"/>
<path d="M171.561 0.818115V27.9913L148.879 35.5625L147.865 35.8924L138.956 38.8723L60.212 65.1321L56.3777 66.3719L39.4119 71.8628V44.9015L56.3777 39.2405L171.561 0.818115Z" fill="white"/>
</g>
</g>
</g>
</g>
<defs>
<clipPath id="clip0_1003_705">
<rect width="1021" height="348" fill="white"/>
</clipPath>
<clipPath id="clip1_1003_705">
<rect width="1020.64" height="348.123" fill="white"/>
</clipPath>
<clipPath id="clip2_1003_705">
<rect width="814.368" height="230.598" fill="white" transform="translate(313.761 58.9067)"/>
</clipPath>
<clipPath id="clip3_1003_705">
<rect width="252.491" height="347.305" fill="white" transform="translate(0 0.818115)"/>
</clipPath>
<clipPath id="clip4_1003_705">
<rect width="347.305" height="347.305" fill="white" transform="translate(0 0.818115)"/>
</clipPath>
</defs>
</svg>
