<svg width="372" height="75" viewBox="0 0 372 75" fill="none" xmlns="http://www.w3.org/2000/svg">
<path d="M355.197 36.4491H356.77V41.5283H357.713V36.4491H359.271V35.6458H355.197V36.4491Z" fill="white"/>
<path d="M365.038 35.6891L362.999 40.2104L360.988 35.7468L360.964 35.6891H359.997V41.5283H360.94V37.6756L362.647 41.4706L362.676 41.5283H363.326L365.052 37.6852V41.5283H366V35.6891H365.038Z" fill="white"/>
<path d="M6 25.7808V52.7882H31.348V11L6 25.7808ZM29.4241 50.8643H7.92395V26.887L29.4241 14.3429V50.8643Z" fill="url(#paint0_linear_1_5)"/>
<path d="M34.0993 18.3831V60.181H59.4473V33.1735L34.0993 18.3831ZM57.5234 58.2522H36.0232V21.726L57.5234 34.2702V58.2522Z" fill="url(#paint1_linear_1_5)"/>
<path d="M9.47272 27.6326L27.7839 17.1278V22.5197L9.47272 31.5911V27.6326Z" fill="url(#paint2_linear_1_5)"/>
<path d="M9.47272 33.6593L27.7839 26.0405V31.4323L9.47272 37.6178V33.6593Z" fill="url(#paint3_linear_1_5)"/>
<path d="M9.47272 39.5418L27.7839 35.0542V40.4461L9.47272 43.5052V39.5418Z" fill="url(#paint4_linear_1_5)"/>
<path d="M9.47272 45.4531L27.7839 43.9188V49.3107L9.47272 49.4165V45.4531Z" fill="url(#paint5_linear_1_5)"/>
<path d="M48.1105 44.7028L47.9854 44.3805C48.7646 43.9476 49.2985 43.13 49.2985 42.1728C49.2985 40.7731 48.1634 39.6428 46.7685 39.6428C45.3736 39.6428 44.2385 40.7779 44.2385 42.1728C44.2385 43.1252 44.7724 43.9476 45.5516 44.3805L45.4266 44.7028L44.0846 48.1948H46.7637H49.4428L48.1105 44.7028Z" fill="url(#paint6_linear_1_5)"/>
<path d="M76.2194 55.1499C75.0698 54.6448 74.1656 53.933 73.5114 53.0095C72.8525 52.086 72.5254 51.0085 72.5254 49.7772H76.2819C76.3637 50.7007 76.7292 51.4607 77.3737 52.0571C78.0183 52.6535 78.9273 52.9517 80.1009 52.9517C81.313 52.9517 82.2558 52.6583 82.934 52.0715C83.6121 51.4847 83.9488 50.7344 83.9488 49.8061C83.9488 49.0894 83.7372 48.5026 83.3188 48.0505C82.8955 47.5983 82.376 47.252 81.7507 47.0019C81.1254 46.7566 80.2597 46.4873 79.1486 46.2035C77.7537 45.8331 76.6186 45.458 75.748 45.078C74.8774 44.698 74.1319 44.1064 73.5162 43.3079C72.9006 42.5047 72.5927 41.4417 72.5927 40.1046C72.5927 38.8732 72.9006 37.7958 73.5162 36.8723C74.1319 35.9488 74.9929 35.2418 76.1039 34.7464C77.215 34.2509 78.4944 34.0056 79.9518 34.0056C82.0249 34.0056 83.7228 34.5251 85.0455 35.5592C86.3682 36.5982 87.1041 38.0171 87.2484 39.8256H83.3668C83.3043 39.0464 82.934 38.3778 82.2606 37.8247C81.5824 37.2715 80.6877 36.9926 79.5815 36.9926C78.5762 36.9926 77.7537 37.2475 77.1188 37.7622C76.4839 38.2768 76.1665 39.0127 76.1665 39.9795C76.1665 40.6385 76.3685 41.1772 76.7677 41.5956C77.1669 42.0189 77.6768 42.3508 78.2924 42.5961C78.9081 42.8414 79.7498 43.1107 80.8176 43.3945C82.2317 43.7841 83.3861 44.1737 84.2807 44.5633C85.1754 44.9529 85.9305 45.5541 86.5606 46.367C87.1859 47.1799 87.4985 48.2621 87.4985 49.6137C87.4985 50.7007 87.2051 51.73 86.6231 52.692C86.0363 53.6588 85.185 54.4332 84.0691 55.0152C82.9484 55.602 81.6305 55.8906 80.1106 55.8906C78.658 55.9002 77.3641 55.6501 76.2194 55.1499Z" fill="white"/>
<path d="M107.07 48.5122H94.1073C94.2083 49.8686 94.7134 50.9556 95.6176 51.7781C96.5219 52.6006 97.6281 53.0095 98.9412 53.0095C100.832 53.0095 102.164 52.2206 102.943 50.6382H106.733C106.219 52.1966 105.29 53.476 103.948 54.4717C102.602 55.4673 100.937 55.9627 98.9461 55.9627C97.3251 55.9627 95.8725 55.5972 94.5883 54.8709C93.3041 54.1446 92.2988 53.1153 91.5725 51.7926C90.8414 50.4699 90.4807 48.9355 90.4807 47.1895C90.4807 45.4435 90.8366 43.9092 91.5436 42.5865C92.2507 41.2638 93.2464 40.2393 94.5306 39.5226C95.8148 38.8059 97.2866 38.4452 98.9509 38.4452C100.553 38.4452 101.976 38.7963 103.232 39.4937C104.482 40.1911 105.459 41.1724 106.156 42.4326C106.853 43.6927 107.205 45.1501 107.205 46.7903C107.195 47.4252 107.152 47.9976 107.07 48.5122ZM103.53 45.6792C103.511 44.3854 103.049 43.3512 102.145 42.5672C101.24 41.788 100.124 41.3984 98.7873 41.3984C97.5752 41.3984 96.5411 41.7832 95.6753 42.5528C94.8144 43.3224 94.2997 44.3661 94.1362 45.6792H103.53Z" fill="white"/>
<path d="M114.155 32.8994V55.6837H110.644V32.8994H114.155Z" fill="white"/>
<path d="M125.886 41.586H122.745V55.6886H119.205V41.586H117.204V38.7241H119.205V37.5217C119.205 35.5737 119.725 34.1499 120.759 33.2553C121.793 32.3607 123.423 31.9134 125.641 31.9134V34.8378C124.573 34.8378 123.823 35.0398 123.395 35.439C122.962 35.8382 122.75 36.5308 122.75 37.5169V38.7193H125.891V41.586H125.886Z" fill="white"/>
<path d="M140.172 55.1499C139.022 54.6448 138.118 53.933 137.464 53.0095C136.805 52.086 136.478 51.0085 136.478 49.7772H140.234C140.316 50.7007 140.681 51.4607 141.326 52.0571C141.97 52.6535 142.879 52.9517 144.053 52.9517C145.265 52.9517 146.208 52.6583 146.886 52.0715C147.564 51.4847 147.901 50.7344 147.901 49.8061C147.901 49.0894 147.689 48.5026 147.271 48.0505C146.848 47.5983 146.328 47.252 145.703 47.0019C145.078 46.7566 144.212 46.4873 143.101 46.2035C141.706 45.8331 140.571 45.458 139.7 45.078C138.83 44.698 138.084 44.1064 137.468 43.3079C136.853 42.5047 136.545 41.4417 136.545 40.1046C136.545 38.8732 136.853 37.7958 137.468 36.8723C138.084 35.9488 138.945 35.2418 140.056 34.7464C141.167 34.2509 142.447 34.0056 143.904 34.0056C145.977 34.0056 147.675 34.5251 148.998 35.5592C150.32 36.5982 151.056 38.0171 151.201 39.8256H147.319C147.256 39.0464 146.886 38.3778 146.213 37.8247C145.535 37.2715 144.64 36.9926 143.534 36.9926C142.528 36.9926 141.706 37.2475 141.071 37.7622C140.436 38.2768 140.119 39.0127 140.119 39.9795C140.119 40.6385 140.321 41.1772 140.72 41.5956C141.119 42.0189 141.629 42.3508 142.245 42.5961C142.86 42.8414 143.702 43.1107 144.77 43.3945C146.184 43.7841 147.338 44.1737 148.233 44.5633C149.127 44.9529 149.883 45.5541 150.513 46.367C151.138 47.1799 151.451 48.2621 151.451 49.6137C151.451 50.7007 151.157 51.73 150.575 52.692C149.988 53.6588 149.137 54.4332 148.021 55.0152C146.901 55.602 145.583 55.8906 144.063 55.8906C142.615 55.9002 141.321 55.6501 140.172 55.1499Z" fill="white"/>
<path d="M159.695 41.586V50.9797C159.695 51.6146 159.844 52.0715 160.142 52.3505C160.44 52.6295 160.945 52.7642 161.667 52.7642H163.822V55.6886H161.051C159.469 55.6886 158.261 55.3182 157.42 54.5823C156.578 53.8464 156.16 52.6439 156.16 50.9797V41.586H154.159V38.7241H156.16V34.5059H159.7V38.7241H163.826V41.586H159.695Z" fill="white"/>
<path d="M170.07 54.8709C168.776 54.1446 167.761 53.1153 167.02 51.7926C166.279 50.4699 165.914 48.9355 165.914 47.1895C165.914 45.4676 166.294 43.938 167.054 42.6009C167.814 41.2686 168.848 40.2393 170.166 39.5226C171.479 38.8059 172.946 38.4452 174.567 38.4452C176.188 38.4452 177.655 38.8059 178.973 39.5226C180.286 40.2441 181.325 41.2686 182.085 42.6009C182.845 43.9332 183.225 45.4628 183.225 47.1895C183.225 48.9163 182.835 50.441 182.056 51.7781C181.277 53.1153 180.214 54.1446 178.867 54.8709C177.52 55.602 176.039 55.9627 174.418 55.9627C172.811 55.9627 171.364 55.602 170.07 54.8709ZM176.953 52.2688C177.741 51.8359 178.386 51.1913 178.877 50.3304C179.367 49.4694 179.617 48.4208 179.617 47.1895C179.617 45.9582 179.382 44.9144 178.91 44.0631C178.439 43.2117 177.814 42.5672 177.034 42.1391C176.255 41.7063 175.413 41.4946 174.509 41.4946C173.605 41.4946 172.768 41.7111 171.998 42.1391C171.229 42.572 170.618 43.2117 170.166 44.0631C169.714 44.9144 169.488 45.9582 169.488 47.1895C169.488 49.0173 169.954 50.4266 170.887 51.4222C171.82 52.4179 172.999 52.9133 174.413 52.9133C175.312 52.9133 176.164 52.7016 176.953 52.2688Z" fill="white"/>
<path d="M192.253 39.1666C193.104 38.6857 194.114 38.4452 195.288 38.4452V42.0766H194.393C193.018 42.0766 191.974 42.4277 191.267 43.1252C190.56 43.8226 190.204 45.0347 190.204 46.7566V55.6886H186.693V38.7241H190.204V41.1868C190.718 40.321 191.401 39.6476 192.253 39.1666Z" fill="white"/>
<path d="M198.414 42.6009C199.121 41.2878 200.088 40.2681 201.31 39.537C202.532 38.8107 203.883 38.4452 205.36 38.4452C206.692 38.4452 207.861 38.7049 208.857 39.2292C209.852 39.7534 210.646 40.4028 211.242 41.182V38.7193H214.782V55.6838H211.242V53.1586C210.646 53.9618 209.838 54.6256 208.808 55.1595C207.784 55.6934 206.61 55.9579 205.297 55.9579C203.84 55.9579 202.507 55.5828 201.295 54.8324C200.083 54.0821 199.126 53.0383 198.414 51.6916C197.707 50.3496 197.351 48.8249 197.351 47.1174C197.351 45.4243 197.702 43.914 198.414 42.6009ZM210.516 44.1401C210.035 43.2791 209.4 42.6201 208.621 42.168C207.842 41.7159 207 41.4898 206.096 41.4898C205.191 41.4898 204.35 41.7111 203.57 42.1536C202.791 42.5961 202.156 43.2406 201.675 44.092C201.194 44.9433 200.954 45.9534 200.954 47.127C200.954 48.3006 201.194 49.3251 201.675 50.2053C202.156 51.0903 202.796 51.7589 203.585 52.2207C204.374 52.6824 205.211 52.9133 206.096 52.9133C207 52.9133 207.842 52.6872 208.621 52.2351C209.4 51.783 210.03 51.124 210.516 50.2486C210.997 49.378 211.237 48.3535 211.237 47.1847C211.237 46.0159 210.997 45.001 210.516 44.1401Z" fill="white"/>
<path d="M229.727 39.2292C230.741 39.7534 231.54 40.4028 232.112 41.182V38.7193H235.652V55.9627C235.652 57.5211 235.325 58.9112 234.666 60.1329C234.007 61.3546 233.06 62.3118 231.819 63.014C230.578 63.7114 229.092 64.0626 227.37 64.0626C225.071 64.0626 223.161 63.5239 221.641 62.4464C220.121 61.369 219.26 59.9068 219.053 58.0598H222.531C222.796 58.94 223.368 59.6567 224.238 60.2002C225.109 60.7438 226.153 61.0179 227.365 61.0179C228.784 61.0179 229.924 60.585 230.799 59.7241C231.67 58.8631 232.107 57.6077 232.107 55.9675V53.1345C231.511 53.933 230.708 54.6063 229.688 55.1499C228.673 55.6934 227.519 55.9675 226.225 55.9675C224.748 55.9675 223.397 55.5924 222.175 54.842C220.953 54.0917 219.991 53.0479 219.28 51.7012C218.572 50.3592 218.217 48.8345 218.217 47.127C218.217 45.4243 218.572 43.914 219.28 42.6009C219.987 41.2878 220.953 40.2681 222.175 39.537C223.397 38.8107 224.748 38.4452 226.225 38.4452C227.548 38.4452 228.712 38.7049 229.727 39.2292ZM231.391 44.1401C230.91 43.2791 230.275 42.6201 229.496 42.168C228.716 41.7159 227.875 41.4898 226.971 41.4898C226.066 41.4898 225.225 41.7111 224.445 42.1536C223.666 42.5961 223.031 43.2406 222.55 44.092C222.069 44.9433 221.829 45.9534 221.829 47.127C221.829 48.3006 222.069 49.3251 222.55 50.2053C223.031 51.0903 223.671 51.7589 224.46 52.2207C225.249 52.6824 226.085 52.9133 226.971 52.9133C227.875 52.9133 228.716 52.6872 229.496 52.2351C230.275 51.783 230.905 51.124 231.391 50.2486C231.872 49.378 232.112 48.3535 232.112 47.1847C232.112 46.0159 231.872 45.001 231.391 44.1401Z" fill="white"/>
<path d="M255.7 48.5122H242.737C242.838 49.8686 243.343 50.9556 244.248 51.7781C245.152 52.6006 246.258 53.0095 247.571 53.0095C249.461 53.0095 250.794 52.2206 251.573 50.6382H255.363C254.849 52.1966 253.92 53.476 252.578 54.4717C251.232 55.4673 249.567 55.9627 247.576 55.9627C245.955 55.9627 244.503 55.5972 243.218 54.8709C241.934 54.1446 240.929 53.1153 240.203 51.7926C239.471 50.4699 239.111 48.9355 239.111 47.1895C239.111 45.4435 239.467 43.9092 240.174 42.5865C240.881 41.2638 241.876 40.2393 243.161 39.5226C244.445 38.8059 245.917 38.4452 247.581 38.4452C249.183 38.4452 250.606 38.7963 251.862 39.4937C253.112 40.1911 254.089 41.1724 254.786 42.4326C255.483 43.6927 255.835 45.1501 255.835 46.7903C255.825 47.4252 255.782 47.9976 255.7 48.5122ZM252.16 45.6792C252.141 44.3854 251.679 43.3512 250.775 42.5672C249.87 41.788 248.754 41.3984 247.417 41.3984C246.205 41.3984 245.171 41.7832 244.305 42.5528C243.444 43.3224 242.93 44.3661 242.766 45.6792H252.16Z" fill="white"/>
<path d="M270.788 52.8555H278.023V55.6886H267.277V34.2894H270.788V52.8555Z" fill="white"/>
<path d="M296.377 48.5122H283.414C283.515 49.8686 284.02 50.9556 284.925 51.7781C285.829 52.6006 286.935 53.0095 288.248 53.0095C290.139 53.0095 291.471 52.2206 292.25 50.6382H296.04C295.526 52.1966 294.597 53.476 293.255 54.4717C291.909 55.4673 290.244 55.9627 288.253 55.9627C286.632 55.9627 285.18 55.5972 283.895 54.8709C282.611 54.1446 281.606 53.1153 280.88 51.7926C280.148 50.4699 279.788 48.9355 279.788 47.1895C279.788 45.4435 280.144 43.9092 280.851 42.5865C281.558 41.2638 282.553 40.2393 283.838 39.5226C285.122 38.8059 286.594 38.4452 288.258 38.4452C289.86 38.4452 291.283 38.7963 292.539 39.4937C293.789 40.1911 294.766 41.1724 295.463 42.4326C296.161 43.6927 296.512 45.1501 296.512 46.7903C296.502 47.4252 296.459 47.9976 296.377 48.5122ZM292.837 45.6792C292.818 44.3854 292.356 43.3512 291.452 42.5672C290.547 41.788 289.432 41.3984 288.094 41.3984C286.882 41.3984 285.848 41.7832 284.982 42.5528C284.121 43.3224 283.607 44.3661 283.443 45.6792H292.837Z" fill="white"/>
<path d="M299.84 42.6009C300.547 41.2878 301.514 40.2681 302.736 39.537C303.957 38.8107 305.309 38.4452 306.786 38.4452C308.118 38.4452 309.287 38.7049 310.282 39.2292C311.278 39.7534 312.072 40.4028 312.668 41.182V38.7193H316.208V55.6838H312.668V53.1586C312.072 53.9618 311.264 54.6256 310.234 55.1595C309.21 55.6934 308.036 55.9579 306.723 55.9579C305.266 55.9579 303.933 55.5828 302.721 54.8324C301.509 54.0821 300.552 53.0383 299.84 51.6916C299.133 50.3496 298.777 48.8249 298.777 47.1174C298.777 45.4243 299.133 43.914 299.84 42.6009ZM311.942 44.1401C311.461 43.2791 310.826 42.6201 310.047 42.168C309.267 41.7159 308.426 41.4898 307.521 41.4898C306.617 41.4898 305.775 41.7111 304.996 42.1536C304.217 42.5961 303.582 43.2406 303.101 44.092C302.62 44.9433 302.38 45.9534 302.38 47.127C302.38 48.3006 302.62 49.3251 303.101 50.2053C303.582 51.0903 304.222 51.7589 305.011 52.2207C305.8 52.6824 306.636 52.9133 307.521 52.9133C308.426 52.9133 309.267 52.6872 310.047 52.2351C310.826 51.783 311.456 51.124 311.942 50.2486C312.423 49.378 312.663 48.3535 312.663 47.1847C312.663 46.0159 312.423 45.001 311.942 44.1401Z" fill="white"/>
<path d="M320.72 42.6009C321.427 41.2878 322.394 40.2681 323.615 39.537C324.837 38.8107 326.198 38.4451 327.694 38.4451C328.8 38.4451 329.897 38.6856 330.975 39.1666C332.052 39.6476 332.908 40.2921 333.548 41.0906V32.8994H337.088V55.6837H333.548V53.1297C332.971 53.9522 332.177 54.6304 331.162 55.1643C330.147 55.6982 328.978 55.9627 327.665 55.9627C326.189 55.9627 324.837 55.5875 323.615 54.8372C322.394 54.0869 321.432 53.0431 320.72 51.6964C320.013 50.3544 319.657 48.8297 319.657 47.1222C319.657 45.4243 320.008 43.914 320.72 42.6009ZM332.822 44.14C332.341 43.2791 331.706 42.6201 330.926 42.168C330.147 41.7159 329.305 41.4898 328.401 41.4898C327.497 41.4898 326.655 41.711 325.876 42.1535C325.097 42.5961 324.462 43.2406 323.981 44.0919C323.5 44.9433 323.259 45.9534 323.259 47.127C323.259 48.3006 323.5 49.3251 323.981 50.2053C324.462 51.0903 325.102 51.7589 325.89 52.2206C326.679 52.6824 327.516 52.9133 328.401 52.9133C329.305 52.9133 330.147 52.6872 330.926 52.2351C331.706 51.7829 332.336 51.124 332.822 50.2486C333.303 49.378 333.543 48.3535 333.543 47.1847C333.543 46.0159 333.303 45.001 332.822 44.14Z" fill="white"/>
<path d="M344.274 55.2413C343.216 54.7603 342.379 54.1013 341.763 53.2692C341.147 52.4371 340.82 51.5088 340.777 50.4843H344.413C344.476 51.201 344.817 51.8022 345.443 52.288C346.068 52.769 346.852 53.0095 347.799 53.0095C348.785 53.0095 349.55 52.8219 350.094 52.4419C350.637 52.0619 350.911 51.5761 350.911 50.9797C350.911 50.3448 350.608 49.8734 350.002 49.5608C349.396 49.253 348.439 48.9163 347.121 48.5459C345.847 48.1996 344.812 47.8581 344.009 47.531C343.211 47.204 342.518 46.6989 341.931 46.0207C341.345 45.3425 341.056 44.4479 341.056 43.3416C341.056 42.4374 341.321 41.6149 341.854 40.8645C342.388 40.1142 343.153 39.5226 344.149 39.0945C345.144 38.6616 346.289 38.45 347.583 38.45C349.512 38.45 351.065 38.9358 352.249 39.9122C353.427 40.8886 354.062 42.2161 354.144 43.8996H350.632C350.57 43.1396 350.262 42.5336 349.709 42.0814C349.156 41.6293 348.405 41.4032 347.463 41.4032C346.539 41.4032 345.832 41.5764 345.337 41.9275C344.841 42.2786 344.596 42.7404 344.596 43.3128C344.596 43.7649 344.76 44.1449 345.087 44.4527C345.414 44.7605 345.813 45.001 346.289 45.1742C346.761 45.3473 347.458 45.5686 348.381 45.8379C349.613 46.165 350.623 46.5017 351.416 46.8384C352.205 47.1751 352.888 47.6753 353.465 48.3295C354.038 48.9884 354.336 49.859 354.36 50.946C354.36 51.9128 354.091 52.7738 353.557 53.5337C353.023 54.2937 352.268 54.8901 351.291 55.3182C350.315 55.7511 349.17 55.9627 347.857 55.9627C346.525 55.9627 345.332 55.7222 344.274 55.2413Z" fill="white"/>
<defs>
<linearGradient id="paint0_linear_1_5" x1="18.6728" y1="61.3164" x2="18.6728" y2="12.06" gradientUnits="userSpaceOnUse">
<stop stop-color="#6465F1"/>
<stop offset="1" stop-color="#EA489C"/>
</linearGradient>
<linearGradient id="paint1_linear_1_5" x1="46.772" y1="61.3163" x2="46.772" y2="12.06" gradientUnits="userSpaceOnUse">
<stop stop-color="#6465F1"/>
<stop offset="1" stop-color="#EA489C"/>
</linearGradient>
<linearGradient id="paint2_linear_1_5" x1="18.6281" y1="61.3164" x2="18.6281" y2="12.06" gradientUnits="userSpaceOnUse">
<stop stop-color="#6465F1"/>
<stop offset="1" stop-color="#EA489C"/>
</linearGradient>
<linearGradient id="paint3_linear_1_5" x1="18.6281" y1="61.3163" x2="18.6281" y2="12.06" gradientUnits="userSpaceOnUse">
<stop stop-color="#6465F1"/>
<stop offset="1" stop-color="#EA489C"/>
</linearGradient>
<linearGradient id="paint4_linear_1_5" x1="18.6281" y1="61.3164" x2="18.6281" y2="12.06" gradientUnits="userSpaceOnUse">
<stop stop-color="#6465F1"/>
<stop offset="1" stop-color="#EA489C"/>
</linearGradient>
<linearGradient id="paint5_linear_1_5" x1="18.6281" y1="61.3163" x2="18.6281" y2="12.0601" gradientUnits="userSpaceOnUse">
<stop stop-color="#6465F1"/>
<stop offset="1" stop-color="#EA489C"/>
</linearGradient>
<linearGradient id="paint6_linear_1_5" x1="46.772" y1="58.7563" x2="46.772" y2="10.1722" gradientUnits="userSpaceOnUse">
<stop stop-color="#6465F1"/>
<stop offset="1" stop-color="#EA489C"/>
</linearGradient>
</defs>
</svg>
