<svg width="469" height="423" viewBox="0 0 469 423" fill="none" xmlns="http://www.w3.org/2000/svg">
<path d="M233.831 48.9094L313.303 181.097H308.977L211.731 85.6689L233.831 48.9094Z" fill="#DD4E40"/>
<path d="M183.242 181.097H192.57L242.672 119.685L211.088 88.6918L183.242 181.097Z" fill="#ADB278"/>
<path d="M195.926 181.097H273.398L225.444 145.078L195.926 181.097Z" fill="#DD4E40"/>
<path d="M278.904 181.097L246.411 123.355L305.253 181.097H278.904Z" fill="#ADB278"/>
<path d="M274.589 178.722L227.018 142.99L243.271 123.069L274.589 178.722Z" fill="#F3E5CA"/>
<path d="M180.538 181.097H154.36L206.847 93.794L180.538 181.097Z" fill="#F3E5CA"/>
<path d="M273.213 181.097L337.983 306.94H332.278L195.926 181.097H273.213Z" fill="#DD4E40"/>
<path d="M166.469 306.94H178.769L243.337 229.345L200.472 189.028L166.469 306.94Z" fill="#ADB278"/>
<path d="M282.305 306.94H183.586L222.554 259.748L282.305 306.94Z" fill="#DD4E40"/>
<path d="M292.62 306.94L251.131 234.633L327.367 306.94H292.62Z" fill="#ADB278"/>
<path d="M286.852 305.353L224.197 256.688L245.63 230.417L286.852 305.353Z" fill="#F3E5CA"/>
<path d="M162.903 306.94H128.381L197.596 191.812L162.903 306.94Z" fill="#F3E5CA"/>
<path d="M184.235 306.014L105 423H111.978L282.305 306.949L184.235 306.014Z" fill="#DD4E40"/>
<path d="M314.779 422.726H299.734L233.595 343.688L282.955 310.641L314.779 422.726Z" fill="#ADB278"/>
<path d="M251.67 422.726H294.315L250.947 369.568L251.67 422.726Z" fill="#F3E5CA"/>
<path d="M247.5 422.726H169.364L246.71 364.629L247.5 422.726Z" fill="#DD4E40"/>
<path d="M160.483 422.726L222.554 350.958L117.984 422.726H160.483Z" fill="#ADB278"/>
<path d="M167.443 418.895L244.171 361.263L230.348 345.67L167.443 418.895Z" fill="#F3E5CA"/>
<path d="M319.14 422.726H361.364L284.903 307.997L319.14 422.726Z" fill="#F3E5CA"/>
<path d="M234.245 0L242.556 26.0317H269.452L247.693 42.1202L256.004 68.1519L234.245 52.0634L212.485 68.1519L220.796 42.1202L199.037 26.0317H225.933L234.245 0Z" fill="#F3E5CA"/>
<path d="M99.1819 140L160.364 240H157.033L82.1681 167.809L99.1819 140Z" fill="#FF5757"/>
<path d="M60.2352 240H67.4163L105.988 193.542L81.6726 170.095L60.2352 240Z" fill="#FF914D"/>
<path d="M70 240H129.643L92.725 212.751L70 240Z" fill="#FF5757"/>
<path d="M133.881 240L108.866 196.318L154.166 240H133.881Z" fill="#FF914D"/>
<path d="M130.559 238.203L93.9368 211.172L106.449 196.102L130.559 238.203Z" fill="#FFBD59"/>
<path d="M58.1537 240H38L78.4074 173.955L58.1537 240Z" fill="#FFBD59"/>
<path d="M129.5 240L179.364 335.2H174.972L70 240H129.5Z" fill="#FF5757"/>
<path d="M47.3221 335.2H56.792L106.5 276.5L73.5 246L47.3221 335.2Z" fill="#FF914D"/>
<path d="M136.5 335.2H60.5L90.5 299.5L136.5 335.2Z" fill="#FF5757"/>
<path d="M144.441 335.2L112.5 280.5L171.191 335.2H144.441Z" fill="#FF914D"/>
<path d="M140 334L91.7651 297.185L108.266 277.311L140 334Z" fill="#FFBD59"/>
<path d="M44.5771 335.2H18L71.2861 248.106L44.5771 335.2Z" fill="#FFBD59"/>
<path d="M61 334.5L0 423H5.37204L136.5 335.207L61 334.5Z" fill="#FF5757"/>
<path d="M161.5 422.793H149.917L99 363L137 338L161.5 422.793Z" fill="#FF914D"/>
<path d="M112.915 422.793H145.746L112.358 382.579L112.915 422.793Z" fill="#FFBD59"/>
<path d="M109.705 422.793H49.5512L109.096 378.843L109.705 422.793Z" fill="#FF5757"/>
<path d="M42.7141 422.793L90.5 368.5L9.99622 422.793H42.7141Z" fill="#FF914D"/>
<path d="M48.0725 419.895L107.142 376.296L96.5 364.5L48.0725 419.895Z" fill="#FFBD59"/>
<path d="M164.857 422.793H197.364L138.5 336L164.857 422.793Z" fill="#FFBD59"/>
<path d="M99.5 103L105.899 122.693H126.605L109.853 134.864L116.252 154.557L99.5 142.386L82.7481 154.557L89.1468 134.864L72.3949 122.693H93.1014L99.5 103Z" fill="#FFBD59"/>
<path d="M370.182 140L431.364 240H428.033L353.168 167.809L370.182 140Z" fill="#FF5757"/>
<path d="M331.235 240H338.416L376.988 193.542L352.673 170.095L331.235 240Z" fill="#FF914D"/>
<path d="M341 240H400.643L363.725 212.751L341 240Z" fill="#FF5757"/>
<path d="M404.881 240L379.866 196.318L425.166 240H404.881Z" fill="#FF914D"/>
<path d="M401.559 238.203L364.937 211.172L377.449 196.102L401.559 238.203Z" fill="#FFBD59"/>
<path d="M329.154 240H309L349.407 173.955L329.154 240Z" fill="#FFBD59"/>
<path d="M400.5 240L450.364 335.2H445.972L341 240H400.5Z" fill="#FF5757"/>
<path d="M318.322 335.2H327.792L377.5 276.5L344.5 246L318.322 335.2Z" fill="#FF914D"/>
<path d="M407.5 335.2H331.5L361.5 299.5L407.5 335.2Z" fill="#FF5757"/>
<path d="M415.441 335.2L383.5 280.5L442.191 335.2H415.441Z" fill="#FF914D"/>
<path d="M411 334L362.765 297.185L379.266 277.311L411 334Z" fill="#FFBD59"/>
<path d="M315.577 335.2H289L342.286 248.106L315.577 335.2Z" fill="#FFBD59"/>
<path d="M332 334.5L271 423H276.372L407.5 335.207L332 334.5Z" fill="#FF5757"/>
<path d="M432.5 422.793H420.917L370 363L408 338L432.5 422.793Z" fill="#FF914D"/>
<path d="M383.915 422.793H416.746L383.358 382.579L383.915 422.793Z" fill="#FFBD59"/>
<path d="M380.705 422.793H320.551L380.096 378.843L380.705 422.793Z" fill="#FF5757"/>
<path d="M313.714 422.793L361.5 368.5L280.996 422.793H313.714Z" fill="#FF914D"/>
<path d="M319.072 419.895L378.142 376.296L367.5 364.5L319.072 419.895Z" fill="#FFBD59"/>
<path d="M435.857 422.793H468.364L409.5 336L435.857 422.793Z" fill="#FFBD59"/>
<path d="M370.5 103L376.899 122.693H397.605L380.853 134.864L387.252 154.557L370.5 142.386L353.748 154.557L360.147 134.864L343.395 122.693H364.101L370.5 103Z" fill="#FFBD59"/>
</svg>
