<svg width="198" height="320" viewBox="0 0 198 320" fill="none" xmlns="http://www.w3.org/2000/svg">
<path d="M99.1819 37L160.364 137H157.033L82.1681 64.8086L99.1819 37Z" fill="#DD4E40"/>
<path d="M60.2352 137H67.4163L105.988 90.5421L81.6726 67.0954L60.2352 137Z" fill="#ADB278"/>
<path d="M70 137H129.643L92.725 109.751L70 137Z" fill="#DD4E40"/>
<path d="M133.881 137L108.866 93.3181L154.166 137H133.881Z" fill="#ADB278"/>
<path d="M130.559 135.203L93.9368 108.172L106.449 93.1016L130.559 135.203Z" fill="#F3E5CA"/>
<path d="M58.1537 137H38L78.4074 70.9553L58.1537 137Z" fill="#F3E5CA"/>
<path d="M129.5 137L179.364 232.2H174.972L70 137H129.5Z" fill="#DD4E40"/>
<path d="M47.3221 232.2H56.792L106.5 173.5L73.5 143L47.3221 232.2Z" fill="#ADB278"/>
<path d="M136.5 232.2H60.5L90.5 196.5L136.5 232.2Z" fill="#DD4E40"/>
<path d="M144.441 232.2L112.5 177.5L171.191 232.2H144.441Z" fill="#ADB278"/>
<path d="M140 231L91.7651 194.185L108.266 174.311L140 231Z" fill="#F3E5CA"/>
<path d="M44.5771 232.2H18L71.2861 145.106L44.5771 232.2Z" fill="#F3E5CA"/>
<path d="M61 231.5L0 320H5.37204L136.5 232.207L61 231.5Z" fill="#DD4E40"/>
<path d="M161.5 319.793H149.917L99 260L137 235L161.5 319.793Z" fill="#ADB278"/>
<path d="M112.915 319.793H145.746L112.358 279.579L112.915 319.793Z" fill="#F3E5CA"/>
<path d="M109.705 319.793H49.5512L109.096 275.843L109.705 319.793Z" fill="#DD4E40"/>
<path d="M42.7141 319.793L90.5 265.5L9.99622 319.793H42.7141Z" fill="#ADB278"/>
<path d="M48.0725 316.895L107.142 273.296L96.5 261.5L48.0725 316.895Z" fill="#F3E5CA"/>
<path d="M164.857 319.793H197.364L138.5 233L164.857 319.793Z" fill="#F3E5CA"/>
<path d="M99.5 0L105.899 19.693H126.605L109.853 31.864L116.252 51.557L99.5 39.386L82.7481 51.557L89.1468 31.864L72.3949 19.693H93.1014L99.5 0Z" fill="#F3E5CA"/>
</svg>
