<?xml version="1.0" encoding="UTF-8"?><svg id="Layer_1" xmlns="http://www.w3.org/2000/svg" viewBox="0 0 2000 454.13"><defs><style>.cls-1{fill:#00e58e;}.cls-2{fill:#fff;}</style></defs><polygon class="cls-1" points="365.93 22.46 77.93 22.46 297.03 406.46 443.86 155.73 368.19 155.73 299.29 274.32 192 89.1 327.53 89.1 365.93 22.46"/><polygon class="cls-1" points="0 156.86 77.93 156.86 182.96 338.7 145.69 406.46 0 156.86"/><path class="cls-2" d="m748.67,22.46h-37.66l-22.9,80.82c-1.03,3.67-1.84,6.94-2.42,9.8-.59,2.86-1.03,5.43-1.32,7.71-.11.84-.15,1.61-.24,2.43-.42-1.92-.89-3.9-1.41-5.95-1.1-4.33-2.53-8.92-4.29-13.77l-22.68-61h-30.17l-23.13,61c-1.32,3.82-2.42,7.6-3.3,11.34-.7,2.95-1.27,6.12-1.78,9.39-.33-2.03-.69-4.13-1.08-6.3-.88-4.92-1.98-9.72-3.3-14.43l-23.34-81.04h-38.32l46.47,154.16h29.51l31.78-83.08,34.51,83.08h28.63l46.47-154.16Z"/><rect class="cls-2" x="769.81" y="59.68" width="35.46" height="116.94"/><path class="cls-2" d="m771.9,31.82c3.74,3.16,8.99,4.73,15.75,4.73s11.56-1.69,15.31-5.06c3.74-3.38,5.62-7.78,5.62-13.22,0-5.87-1.87-10.39-5.62-13.54-3.74-3.16-8.85-4.74-15.31-4.74s-11.82,1.69-15.64,5.07c-3.82,3.38-5.73,7.78-5.73,13.21,0,5.87,1.87,10.39,5.62,13.55Z"/><path class="cls-2" d="m933,62.66c-6.02-3.6-13.43-5.4-22.24-5.4-6.46,0-12.63,1.32-18.5,3.96-5.87,2.64-10.9,6.13-15.09,10.46-.71.73-1.33,1.5-1.96,2.26l-.79-14.26h-33.69v116.94h35.46v-69.59c0-2.94.51-5.58,1.54-7.93,1.02-2.35,2.53-4.44,4.52-6.28,1.98-1.83,4.29-3.23,6.94-4.18,2.64-.95,5.51-1.43,8.59-1.43,3.96-.15,7.27.52,9.91,1.98,2.64,1.47,4.63,3.74,5.95,6.83,1.32,3.08,1.98,6.97,1.98,11.67v68.93h35.46v-71.57c0-10.42-1.51-19.19-4.52-26.32-3.01-7.12-7.53-12.48-13.54-16.08Z"/><polygon class="cls-2" points="1028.13 30.17 992.68 30.17 992.68 59.68 971.97 59.68 971.97 90.74 992.68 90.74 992.68 176.63 1028.13 176.63 1028.13 90.74 1050.6 90.74 1050.6 59.68 1028.13 59.68 1028.13 30.17"/><path class="cls-2" d="m1163.57,74c-4.99-5.29-10.87-9.39-17.62-12.33-6.75-2.94-14.24-4.41-22.46-4.41-8.66,0-16.63,1.51-23.89,4.52-7.27,3.01-13.58,7.23-18.94,12.66-5.36,5.43-9.51,11.93-12.44,19.49-2.94,7.56-4.4,15.89-4.4,25,0,11.6,2.6,21.91,7.82,30.94,5.21,9.03,12.62,16.12,22.24,21.25,9.61,5.14,20.88,7.71,33.81,7.71,5.43,0,10.83-.63,16.19-1.87,5.36-1.25,10.61-3.16,15.75-5.73,5.14-2.57,9.98-5.76,14.54-9.58l-16.52-23.35c-4.55,3.52-8.81,6.02-12.77,7.49-3.96,1.47-8.37,2.2-13.21,2.2-7.2,0-13.4-1.32-18.61-3.96-5.21-2.64-9.18-6.39-11.89-11.23-1.2-2.13-2.11-4.41-2.78-6.83h80.19l.22-9.69c.15-8.51-1.1-16.37-3.74-23.57-2.64-7.19-6.46-13.43-11.45-18.72Zm-63.43,26.21c2.05-4.26,5.1-7.52,9.14-9.8,4.04-2.27,8.99-3.41,14.87-3.41,3.96,0,7.52.81,10.68,2.42,3.16,1.62,5.73,3.78,7.71,6.5,1.98,2.72,3.12,5.91,3.41,9.58v.44h-47.76c.5-2.06,1.11-4,1.95-5.73Z"/><path class="cls-2" d="m1261.35,95.14c2.94,0,5.76.33,8.48.99,2.71.66,4.88,1.43,6.5,2.31l9.47-38.98c-1.76-.73-3.78-1.28-6.06-1.65-2.28-.36-4.73-.55-7.38-.55-6.02,0-11.78,1.47-17.29,4.41-5.51,2.94-10.24,6.9-14.2,11.89-1.09,1.37-2.08,2.79-3.01,4.25l-.73-18.12h-33.7v116.94h35.68v-58.36c0-3.52.55-6.68,1.65-9.47,1.1-2.79,2.64-5.21,4.62-7.27,1.98-2.05,4.33-3.63,7.05-4.74,2.71-1.1,5.69-1.65,8.92-1.65Z"/><path class="cls-2" d="m1414.85,176.63v-69.37c0-2.94.51-5.58,1.54-7.93,1.03-2.35,2.46-4.44,4.29-6.28s4.04-3.23,6.61-4.18c2.57-.95,5.4-1.43,8.48-1.43,5.73,0,10.02,1.73,12.88,5.17,2.86,3.45,4.3,8.63,4.3,15.53v68.49h35.46v-71.13c0-10.42-1.54-19.19-4.62-26.32-3.08-7.12-7.71-12.51-13.87-16.19-6.17-3.67-13.87-5.51-23.12-5.51-3.67,0-7.45.52-11.34,1.54-3.89,1.03-7.67,2.57-11.34,4.62-3.67,2.06-7.01,4.52-10.02,7.38-2.35,2.24-4.41,4.69-6.18,7.33-1.68-3.79-3.65-7.01-5.94-9.64-3.45-3.96-7.49-6.83-12.11-8.59-4.63-1.76-9.88-2.64-15.75-2.64-3.82,0-7.64.55-11.45,1.65-3.82,1.1-7.45,2.64-10.9,4.62-3.45,1.98-6.57,4.44-9.36,7.38-.76.8-1.46,1.64-2.14,2.5l-.73-13.95h-33.7v116.94h35.68v-69.37c0-2.94.51-5.58,1.54-7.93,1.02-2.35,2.46-4.44,4.29-6.28,1.83-1.83,4.04-3.23,6.61-4.18,2.57-.95,5.32-1.43,8.26-1.43,5.43,0,9.65,1.76,12.66,5.28,3.01,3.52,4.52,8.59,4.52,15.2v68.71h35.46Z"/><path class="cls-2" d="m1542.04,171.12c9.61,5.14,20.88,7.71,33.81,7.71,5.43,0,10.83-.63,16.19-1.87,5.36-1.25,10.61-3.16,15.75-5.73,5.14-2.57,9.98-5.76,14.54-9.58l-16.52-23.35c-4.55,3.52-8.81,6.02-12.77,7.49-3.96,1.47-8.37,2.2-13.21,2.2-7.2,0-13.4-1.32-18.61-3.96-5.21-2.64-9.18-6.39-11.89-11.23-1.2-2.13-2.11-4.41-2.78-6.83h80.19l.22-9.69c.14-8.51-1.1-16.37-3.74-23.57-2.64-7.19-6.46-13.43-11.45-18.72-4.99-5.29-10.87-9.39-17.62-12.33-6.75-2.94-14.24-4.41-22.46-4.41-8.66,0-16.63,1.51-23.89,4.52-7.27,3.01-13.58,7.23-18.94,12.66-5.36,5.43-9.51,11.93-12.44,19.49-2.94,7.56-4.4,15.89-4.4,25,0,11.6,2.6,21.91,7.82,30.94,5.21,9.03,12.63,16.12,22.24,21.25Zm6.28-70.91c2.05-4.26,5.1-7.52,9.14-9.8,4.04-2.27,8.99-3.41,14.87-3.41,3.96,0,7.52.81,10.68,2.42,3.16,1.62,5.73,3.78,7.71,6.5,1.98,2.72,3.12,5.91,3.41,9.58v.44h-47.76c.5-2.06,1.11-4,1.95-5.73Z"/><path class="cls-2" d="m1707.54,121.79c-1.17,3.37-2.23,6.54-3.23,9.57-.31-1.05-.59-2.09-.96-3.18-1.18-3.52-2.42-6.68-3.74-9.47l-24.67-59.02h-40.08l52.29,114.14-22.78,53.46h35.46l20.04-50.65,49.55-116.94h-40.3l-21.58,62.11Z"/><path class="cls-2" d="m1877.77,74c-4.99-5.29-10.87-9.39-17.62-12.33-6.75-2.94-14.24-4.41-22.46-4.41-8.66,0-16.63,1.51-23.89,4.52-7.27,3.01-13.58,7.23-18.94,12.66-5.36,5.43-9.51,11.93-12.44,19.49-2.94,7.56-4.4,15.89-4.4,25,0,11.6,2.6,21.91,7.82,30.94,5.21,9.03,12.63,16.12,22.24,21.25,9.61,5.14,20.88,7.71,33.81,7.71,5.43,0,10.83-.63,16.19-1.87,5.36-1.25,10.61-3.16,15.75-5.73,5.14-2.57,9.98-5.76,14.54-9.58l-16.52-23.35c-4.55,3.52-8.81,6.02-12.77,7.49-3.96,1.47-8.37,2.2-13.21,2.2-7.2,0-13.4-1.32-18.61-3.96-5.21-2.64-9.18-6.39-11.89-11.23-1.2-2.13-2.11-4.41-2.78-6.83h80.19l.22-9.69c.14-8.51-1.1-16.37-3.74-23.57-2.64-7.19-6.46-13.43-11.45-18.72Zm-63.43,26.21c2.05-4.26,5.1-7.52,9.14-9.8,4.04-2.27,8.99-3.41,14.87-3.41,3.96,0,7.52.81,10.68,2.42,3.16,1.62,5.73,3.78,7.71,6.5,1.98,2.72,3.12,5.91,3.41,9.58v.44h-47.76c.5-2.06,1.11-4,1.95-5.73Z"/><path class="cls-2" d="m1993.94,57.81c-2.28-.36-4.74-.55-7.38-.55-6.02,0-11.78,1.47-17.29,4.41-5.5,2.94-10.24,6.9-14.2,11.89-1.09,1.37-2.08,2.79-3.01,4.25l-.73-18.12h-33.7v116.94h35.68v-58.36c0-3.52.55-6.68,1.65-9.47,1.1-2.79,2.64-5.21,4.63-7.27,1.98-2.05,4.33-3.63,7.05-4.74,2.71-1.1,5.69-1.65,8.92-1.65,2.93,0,5.76.33,8.48.99,2.71.66,4.88,1.43,6.5,2.31l9.47-38.98c-1.76-.73-3.78-1.28-6.06-1.65Z"/><path class="cls-2" d="m575.68,281.91c5.21-5.43,11.34-9.69,18.39-12.77s14.68-4.63,22.9-4.63,15.82,1.8,23.23,5.4c7.41,3.6,14.28,8.77,20.59,15.53l11.89-12.11c-3.96-5.14-8.85-9.69-14.65-13.66-5.8-3.96-12.22-7.05-19.27-9.25-7.05-2.2-14.32-3.3-21.8-3.3-10.87,0-20.85,1.98-29.95,5.95-9.11,3.96-17.07,9.51-23.9,16.63-6.83,7.12-12.15,15.49-15.97,25.11-3.82,9.62-5.73,20.01-5.73,31.16s1.8,22.24,5.4,31.93c3.6,9.69,8.73,18.06,15.41,25.11,6.68,7.05,14.54,12.48,23.57,16.3,9.03,3.82,18.97,5.73,29.84,5.73,7.19,0,14.2-.88,21.03-2.64,6.83-1.76,13.1-4.22,18.83-7.38,5.73-3.16,10.42-6.72,14.09-10.68l-9.03-14.31c-3.67,3.52-7.71,6.61-12.11,9.25-4.41,2.64-9.18,4.66-14.31,6.06-5.14,1.4-10.43,2.09-15.86,2.09-8.81,0-16.81-1.47-24-4.4-7.2-2.94-13.4-7.08-18.61-12.44-5.21-5.36-9.29-11.82-12.22-19.38-2.94-7.56-4.4-15.97-4.4-25.22s1.46-16.99,4.4-24.56c2.93-7.56,7.01-14.06,12.22-19.49Z"/><path class="cls-2" d="m780.71,292.92c-8.89-5.14-18.98-7.71-30.28-7.71s-21.4,2.57-30.28,7.71c-8.88,5.14-15.89,12.19-21.03,21.14-5.14,8.96-7.71,19.24-7.71,30.83s2.57,21.91,7.71,30.94c5.14,9.03,12.15,16.15,21.03,21.36,8.88,5.21,18.97,7.82,30.28,7.82s21.4-2.61,30.28-7.82c8.88-5.21,15.86-12.33,20.92-21.36,5.07-9.03,7.6-19.34,7.6-30.94s-2.53-21.88-7.6-30.83c-5.06-8.95-12.04-16-20.92-21.14Zm6.39,74.88c-3.6,6.75-8.59,12.08-14.98,15.97-6.39,3.89-13.62,5.84-21.69,5.84s-15.3-1.94-21.69-5.84c-6.39-3.89-11.42-9.21-15.09-15.97-3.67-6.75-5.43-14.39-5.29-22.9-.15-8.51,1.61-16.11,5.29-22.79,3.67-6.68,8.7-11.93,15.09-15.75,6.39-3.82,13.62-5.73,21.69-5.73s15.31,1.91,21.69,5.73c6.39,3.82,11.38,9.03,14.98,15.64,3.6,6.61,5.32,14.24,5.18,22.9.14,8.52-1.58,16.15-5.18,22.9Z"/><path class="cls-2" d="m914.17,290.17c-5.95-3.3-13.25-4.95-21.91-4.95-6.46,0-12.7,1.36-18.72,4.07-6.02,2.72-11.16,6.2-15.42,10.46-2.19,2.19-4.02,4.49-5.51,6.91v-19.46h-16.74v115.62h16.74v-74.44c0-3.23.88-6.5,2.64-9.8s4.18-6.31,7.27-9.03c3.08-2.72,6.72-4.88,10.9-6.5,4.18-1.61,8.77-2.42,13.76-2.42,6.31-.15,11.56.88,15.75,3.08,4.18,2.2,7.34,5.73,9.47,10.57,2.13,4.85,3.19,11.01,3.19,18.5v70.03h16.74v-71.13c0-10.57-1.54-19.31-4.63-26.21-3.08-6.9-7.6-12-13.54-15.31Z"/><path class="cls-2" d="m1036.28,350.18c-2.94-2.93-6.83-5.47-11.67-7.6-4.84-2.13-10.79-4.07-17.84-5.84-5.43-1.17-10.06-2.53-13.87-4.07-3.82-1.54-6.75-3.12-8.81-4.74-1.62-1.32-2.86-2.97-3.74-4.96-.88-1.98-1.4-4-1.54-6.06,0-2.79.51-5.25,1.54-7.38,1.02-2.13,2.6-3.96,4.74-5.51,2.13-1.54,4.73-2.71,7.82-3.52,3.08-.81,6.53-1.21,10.35-1.21,3.52,0,7.12.63,10.79,1.87,3.67,1.25,7.23,3.01,10.68,5.29,3.45,2.28,6.64,4.95,9.58,8.04l9.91-10.57c-3.23-3.96-7.05-7.34-11.45-10.13-4.41-2.79-9.21-4.92-14.43-6.39-5.21-1.47-10.46-2.2-15.75-2.2-7.78,0-14.72,1.36-20.81,4.07-6.09,2.72-10.9,6.5-14.43,11.34-3.52,4.84-5.28,10.43-5.28,16.74,0,3.96.58,7.49,1.76,10.57,1.17,3.08,2.94,5.95,5.29,8.59,3.08,3.38,7.3,6.35,12.66,8.92,5.36,2.57,12,4.81,19.93,6.72,5.14,1.32,9.5,2.68,13.1,4.07,3.6,1.4,6.42,2.83,8.48,4.3,3.82,2.94,5.73,6.83,5.73,11.67,0,2.64-.48,5.1-1.43,7.38-.96,2.28-2.46,4.26-4.52,5.95-2.06,1.69-4.55,3.01-7.49,3.96-2.94.96-6.31,1.43-10.13,1.43-7.49,0-14.17-1.32-20.04-3.96-5.87-2.64-10.94-6.61-15.2-11.89l-11.45,9.91c4.85,6.46,11.16,11.42,18.94,14.87,7.78,3.45,16.52,5.18,26.21,5.18,7.93,0,14.98-1.4,21.14-4.18,6.17-2.79,11.01-6.72,14.53-11.78,3.52-5.07,5.29-10.9,5.29-17.51,0-4.55-.66-8.59-1.98-12.11-1.32-3.52-3.52-6.61-6.61-9.25Z"/><path class="cls-2" d="m1153,361.2c0,3.52-.85,7.01-2.53,10.46-1.69,3.45-4,6.57-6.94,9.36-2.94,2.79-6.35,5.03-10.24,6.72-3.89,1.69-8.19,2.53-12.88,2.53-9.69,0-17.22-3.05-22.57-9.14-5.36-6.09-8.04-14.94-8.04-26.54v-67.39h-16.74v71.57c0,9.99,1.65,18.39,4.96,25.22,3.3,6.83,8.04,12.04,14.2,15.64,6.17,3.6,13.51,5.4,22.02,5.4,6.61,0,12.74-1.29,18.39-3.85,5.65-2.57,10.57-6.09,14.76-10.57,2.25-2.4,4.11-4.93,5.66-7.57l.17,19.79h16.52v-115.62h-16.74v74Z"/><rect class="cls-2" x="1205.42" y="239.85" width="16.74" height="162.97"/><polygon class="cls-2" points="1290.2 257.69 1273.47 257.69 1273.47 287.2 1246.82 287.2 1246.82 303.49 1273.47 303.49 1273.47 402.82 1290.2 402.82 1290.2 303.49 1319.05 303.49 1319.05 287.2 1290.2 287.2 1290.2 257.69"/><rect class="cls-2" x="1345.04" y="287.2" width="16.74" height="115.62"/><path class="cls-2" d="m1353.19,236.76c-3.82,0-6.79,1.07-8.92,3.19s-3.19,4.96-3.19,8.48,1.06,6.35,3.19,8.48c2.13,2.13,5.1,3.19,8.92,3.19s6.97-1.1,9.03-3.3c2.05-2.2,3.08-4.99,3.08-8.37,0-3.67-1.07-6.53-3.19-8.59-2.13-2.06-5.1-3.08-8.92-3.08Z"/><path class="cls-2" d="m1476.85,290.17c-5.95-3.3-13.25-4.95-21.91-4.95-6.46,0-12.7,1.36-18.72,4.07-6.02,2.72-11.16,6.2-15.42,10.46-2.19,2.19-4.02,4.49-5.51,6.91v-19.46h-16.74v115.62h16.74v-74.44c0-3.23.88-6.5,2.64-9.8,1.76-3.3,4.18-6.31,7.27-9.03,3.08-2.72,6.72-4.88,10.9-6.5,4.18-1.61,8.77-2.42,13.76-2.42,6.31-.15,11.56.88,15.75,3.08,4.18,2.2,7.34,5.73,9.47,10.57,2.13,4.85,3.19,11.01,3.19,18.5v70.03h16.74v-71.13c0-10.57-1.54-19.31-4.62-26.21-3.08-6.9-7.6-12-13.54-15.31Z"/><path class="cls-2" d="m1619.3,307.81s-.05-.09-.07-.13c-1.91-3.08-4.33-5.95-7.27-8.59-2.94-2.64-6.24-5.03-9.91-7.16-3.67-2.13-7.64-3.78-11.89-4.96-4.26-1.17-8.66-1.76-13.21-1.76-10.43,0-19.9,2.61-28.41,7.82-8.52,5.21-15.23,12.33-20.15,21.36-4.92,9.03-7.38,19.35-7.38,30.94s2.46,21.66,7.38,30.61c4.92,8.96,11.67,16.04,20.26,21.25,8.59,5.21,18.31,7.82,29.18,7.82,6.9,0,13.47-1.47,19.71-4.41,6.24-2.94,11.52-6.83,15.86-11.67,2.5-2.8,4.44-5.75,5.84-8.85v17.66c0,8.81-1.69,16.3-5.06,22.46-3.38,6.17-8.08,10.86-14.09,14.1-6.02,3.23-13.14,4.84-21.36,4.84-6.75,0-13.4-1.18-19.93-3.52-6.53-2.35-12-5.43-16.41-9.25l-6.17,13.22c4.85,4.4,11.12,7.93,18.83,10.57s15.67,3.96,23.89,3.96,16.26-1.29,23.23-3.85c6.97-2.57,12.99-6.31,18.06-11.23,5.06-4.92,8.95-10.94,11.67-18.06,2.71-7.12,4.07-15.23,4.07-24.34v-109.45h-16.52l-.15,20.61Zm-19.12,75.96c-6.09,3.74-13.03,5.62-20.81,5.62s-15.23-1.91-21.47-5.73c-6.24-3.82-11.12-9.06-14.65-15.75-3.52-6.68-5.29-14.2-5.29-22.57s1.76-16.33,5.29-23.01c3.52-6.68,8.4-11.96,14.65-15.86,6.24-3.89,13.32-5.84,21.25-5.84s14.94,1.91,21.03,5.73c6.09,3.82,10.86,9.07,14.31,15.75,3.45,6.68,5.18,14.35,5.18,23.01s-1.73,16.34-5.18,23.01c-3.45,6.68-8.22,11.89-14.31,15.64Z"/></svg>