<svg width="1987" height="455" viewBox="0 0 1987 455" fill="none" xmlns="http://www.w3.org/2000/svg">
<g clip-path="url(#clip0_1280_17)">
<path d="M1866.1 349.68H1895.13V133.817H1972.24V104.752H1788.99V133.817H1866.1V349.68Z" fill="white"/>
<path fill-rule="evenodd" clip-rule="evenodd" d="M1745.18 299.783C1729.24 312.626 1708.98 320.313 1686.93 320.313C1635.57 320.313 1593.94 278.632 1593.94 227.216C1593.94 175.8 1635.57 134.12 1686.93 134.12C1708.98 134.12 1729.24 141.806 1745.18 154.649L1766.02 133.791C1744.69 115.678 1717.08 104.752 1686.93 104.752C1619.37 104.752 1564.61 159.581 1564.61 227.216C1564.61 294.851 1619.37 349.68 1686.93 349.68C1717.08 349.68 1744.69 338.754 1766.02 320.641L1745.18 299.783Z" fill="white"/>
<path d="M1558.86 320.615H1419.76V241.9H1529.83V212.835H1419.76V133.817H1558.86V104.752H1390.73V349.68H1558.86V320.615Z" fill="white"/>
<path d="M1323.9 104.752V274.294L1169.68 104.752V349.68H1198.71V180.441L1352.93 349.68V104.752H1323.9Z" fill="white"/>
<path fill-rule="evenodd" clip-rule="evenodd" d="M1012.58 349.68C1080.14 349.68 1134.9 294.851 1134.9 227.216C1134.9 159.581 1080.14 104.752 1012.58 104.752C945.025 104.752 890.26 159.581 890.26 227.216C890.26 294.851 945.025 349.68 1012.58 349.68ZM1012.58 320.313C1063.94 320.313 1105.57 278.632 1105.57 227.216C1105.57 175.8 1063.94 134.12 1012.58 134.12C961.225 134.12 919.593 175.8 919.593 227.216C919.593 278.632 961.225 320.313 1012.58 320.313Z" fill="white"/>
<path fill-rule="evenodd" clip-rule="evenodd" d="M739.212 349.68C806.767 349.68 861.532 294.851 861.532 227.216C861.532 159.581 806.767 104.752 739.212 104.752C671.656 104.752 616.892 159.581 616.892 227.216C616.892 294.851 671.656 349.68 739.212 349.68ZM739.212 320.313C790.567 320.313 832.199 278.632 832.199 227.216C832.199 175.8 790.567 134.12 739.212 134.12C687.856 134.12 646.224 175.8 646.224 227.216C646.224 278.632 687.856 320.313 739.212 320.313Z" fill="white"/>
<path d="M611.146 320.616H479.906L611.146 104.753H427.894V133.817H559.134L427.894 349.68H611.146V320.616Z" fill="white"/>
<path d="M244.928 302.753L0 454.13L122.464 227.065L244.928 302.753Z" fill="#0083FF"/>
<path d="M0 454.13V151.377L244.928 0L0 454.13Z" fill="#45A4FF"/>
<path d="M244.928 0H0V151.377L244.928 0Z" fill="#73BBFF"/>
</g>
<defs>
<clipPath id="clip0_1280_17">
<rect width="1986.82" height="454.13" fill="white"/>
</clipPath>
</defs>
</svg>
